{
.appVersion = "939";
classes = (
{
automatic = 1;
code = "A Aacute Abreve Acircumflex Adieresis Agrave Amacron Aogonek Aring Atilde AE B C Cacute Ccaron Ccedilla Cdotaccent D Eth Dcaron Dcroat E Eacute Ecaron Ecircumflex Edieresis Edotaccent Egrave Emacron Eogonek F G Gbreve Gcommaaccent Gdotaccent H Hbar I Iacute Icircumflex Idieresis Idotaccent Igrave Imacron Iogonek J K Kcommaaccent L Lacute Lcaron Lcommaaccent Lslash M N Nacute Ncaron Ncommaaccent Eng Ntilde O Oacute Ocircumflex Odieresis Ograve Ohungarumlaut Omacron Oslash Otilde OE P Thorn Q R Racute Rcaron Rcommaaccent S Sacute Scaron Scedilla Scommaaccent T Tbar Tcaron Tcedilla Tcommaaccent U Uacute Ucircumflex Udieresis Ugrave Uhungarumlaut Umacron Uogonek Uring V W Wacute Wcircumflex Wdieresis Wgrave X Y Yacute Ycircumflex Ydieresis Ygrave Z Zacute Zcaron Zdotaccent A.alt Aacute.alt Abreve.alt Acircumflex.alt Adieresis.alt Agrave.alt Amacron.alt Aogonek.alt Aring.alt Atilde.alt E.alt Eacute.alt Ecaron.alt Ecircumflex.alt Edieresis.alt Edotaccent.alt Egrave.alt Emacron.alt Eogonek.alt I.alt Iacute.alt Icircumflex.alt Idieresis.alt Idotaccent.alt Igrave.alt Imacron.alt Iogonek.alt M.alt N.alt Nacute.alt Ncaron.alt Ncommaaccent.alt Eng.alt Ntilde.alt W.alt Wacute.alt Wcircumflex.alt Wdieresis.alt Wgrave.alt";
name = Uppercase;
}
);
copyright = "Copyright © 2018 by Ruggero Magrì. All rights reserved.";
date = "2018-01-20 12:01:38 +0000";
designer = "Ruggero Magrì";
familyName = "Ignazio Display";
featurePrefixes = (
{
automatic = 1;
code = "languagesystem DFLT dflt;\012languagesystem latn dflt;\012languagesystem latn ROM;\012languagesystem latn MOL;\012languagesystem latn KAZ;\012languagesystem latn TAT;\012languagesystem latn TRK;\012languagesystem latn CRT;\012languagesystem latn AZE;\012";
name = Languagesystems;
}
);
features = (
{
automatic = 1;
code = "feature ccmp;\012feature locl;\012feature pnum;\012feature tnum;\012feature case;\012";
name = aalt;
},
{
automatic = 1;

glyphs = (
{
glyphname = A;
lastChange = "2018-01-20 11:43:03 +0000";
layers = (
{
anchors = (
{
name = bottom;
position = "{330, 0}";
},
{
name = ogonek;
position = "{609, 0}";
},
{
name = top;
position = "{336, 700}";
}
);
layerId = "293088C9-8C6F-4F1A-8530-3146F0106214";
paths = (
{
closed = 1;
nodes = (
"116 0 LINE",
"197 212 LINE",
"333 118 LINE",
"335 118 LINE",
"470 211 LINE",
"551 0 LINE",
"657 0 LINE",
"391 700 LINE",
"281 700 LINE",
"15 0 LINE"
);
},
{
closed = 1;
nodes = (
"246 341 LINE SMOOTH",
"295 470 OFFCURVE",
"333 601 OFFCURVE",
"333 601 CURVE",
"335 601 LINE",
"335 601 OFFCURVE",
"372 469 OFFCURVE",
"421 341 CURVE SMOOTH",
"439 294 LINE",
"335 219 LINE",
"333 219 LINE",
"228 294 LINE"
);
}
);
width = 672;
}
);
leftKerningGroup = A;
rightKerningGroup = A;
unicode = 0041;
},
{
glyphname = Aogonek;
lastChange = "2018-01-20 11:44:35 +0000";
layers = (
{
components = (
{
name = A;
}
);
layerId = "293088C9-8C6F-4F1A-8530-3146F0106214";
paths = (
{
closed = 1;
nodes = (
"610 -119 OFFCURVE",
"586 -106 OFFCURVE",
"586 -76 CURVE SMOOTH",
"586 -43 OFFCURVE",
"624 -11 OFFCURVE",
"657 0 CURVE",
"637 12 LINE",
"569 12 LINE",
"552 0 LINE",
"524 -31 OFFCURVE",
"512 -55 OFFCURVE",
"512 -92 CURVE",
"512 -150 OFFCURVE",
"561 -184 OFFCURVE",
"609 -184 CURVE SMOOTH",
"635 -184 OFFCURVE",
"656 -179 OFFCURVE",
"680 -166 CURVE",
"647 -108 LINE"
);
}
);
width = 672;
}
);
leftKerningGroup = A;
leftMetricsKey = A;
rightKerningGroup = A;
unicode = 0104;
},
{
glyphname = Aring;
lastChange = "2018-01-10 10:34:51 +0000";
layers = (
{
anchors = (
{
name = _top;
position = "{338.5, 700}";
},
{
name = top;
position = "{339, 837}";
}
);
components = (
{
name = A;
}
);
layerId = "293088C9-8C6F-4F1A-8530-3146F0106214";
paths = (
{
closed = 1;
nodes = (
"395 650 OFFCURVE",
"433 688 OFFCURVE",
"433 744 CURVE SMOOTH",
"433 800 OFFCURVE",
"395 837 OFFCURVE",
"337 837 CURVE SMOOTH",
"279 837 OFFCURVE",
"240 800 OFFCURVE",
"240 744 CURVE SMOOTH",
"240 688 OFFCURVE",
"279 650 OFFCURVE",
"337 650 CURVE SMOOTH"
);
},
{
closed = 1;
nodes = (
"309 700 OFFCURVE",
"290 718 OFFCURVE",
"290 744 CURVE SMOOTH",
"290 770 OFFCURVE",
"309 787 OFFCURVE",
"337 787 CURVE SMOOTH",
"365 787 OFFCURVE",
"383 770 OFFCURVE",
"383 744 CURVE SMOOTH",
"383 718 OFFCURVE",
"365 700 OFFCURVE",
"337 700 CURVE SMOOTH"
);
}
);
width = 672;
}
);
leftKerningGroup = A;
leftMetricsKey = A;
rightKerningGroup = A;
rightMetricsKey = A;
unicode = 00C5;
},
{
glyphname = AE;
lastChange = "2018-01-17 10:04:34 +0000";
layers = (
{
layerId = "293088C9-8C6F-4F1A-8530-3146F0106214";
paths = (
{
closed = 1;
nodes = (
"478 616 LINE",
"480 616 LINE",
"480 267 LINE",
"273 267 LINE"
);
},
{
closed = 1;
nodes = (
"114 0 LINE",
"219 177 LINE",
"480 177 LINE",
"480 0 LINE",
"571 0 LINE",
"571 34 LINE SMOOTH",
"571 52.044 OFFCURVE",
"569 77 OFFCURVE",
"567 101 CURVE",
"569 102 LINE",
"625 31 OFFCURVE",
"711 -12 OFFCURVE",
"831 -12 CURVE SMOOTH",
"928 -12 OFFCURVE",
"1002 17 OFFCURVE",
"1035 34 CURVE",
"989 113 LINE",
"957 99 OFFCURVE",
"913 84 OFFCURVE",
"831 84 CURVE SMOOTH",
"684 84 OFFCURVE",
"582 177 OFFCURVE",
"568 315 CURVE",
"960 315 LINE",
"960 408 LINE",
"571 408 LINE",
"594 533 OFFCURVE",
"692 616 OFFCURVE",
"831 616 CURVE SMOOTH",
"913 616 OFFCURVE",
"957 601 OFFCURVE",
"989 587 CURVE",
"1035 666 LINE",
"1002 683 OFFCURVE",
"929 712 OFFCURVE",
"831 712 CURVE SMOOTH",
"711 712 OFFCURVE",
"623 668 OFFCURVE",
"567 596 CURVE SMOOTH",
"567 596 OFFCURVE",
"565 597 OFFCURVE",
"565 597 CURVE",
"566 621 OFFCURVE",
"568 647.446 OFFCURVE",
"568 666 CURVE SMOOTH",
"568 700 LINE",
"420 700 LINE",
"5 0 LINE"
);
}
);
width = 1075;
}
);
leftKerningGroup = AE;
rightKerningGroup = C;
rightMetricsKey = E;
unicode = 00C6;
},
{
glyphname = B;
lastChange = "2018-01-16 17:07:58 +0000";
layers = (
{
layerId = "293088C9-8C6F-4F1A-8530-3146F0106214";
paths = (
{
closed = 1;
nodes = (
"191 320 LINE",
"292 320 LINE SMOOTH",
"390 320 OFFCURVE",
"437 281 OFFCURVE",
"437 206 CURVE SMOOTH",
"437 131 OFFCURVE",
"390 92 OFFCURVE",
"292 92 CURVE SMOOTH",
"191 92 LINE"
);
},
{
closed = 1;
nodes = (
"191 608 LINE",
"274 608 LINE SMOOTH",
"359 608 OFFCURVE",
"400 574 OFFCURVE",
"400 508 CURVE SMOOTH",
"400 442 OFFCURVE",
"353 408 OFFCURVE",
"264 408 CURVE SMOOTH",
"191 408 LINE"
);
},
{
closed = 1;
nodes = (
"289 0 LINE SMOOTH",
"459 0 OFFCURVE",
"542 68 OFFCURVE",
"542 207 CURVE SMOOTH",
"542 296 OFFCURVE",
"494 352 OFFCURVE",
"416 381 CURVE",
"416 383 LINE",
"463 413 OFFCURVE",
"503 461.971 OFFCURVE",
"503 523 CURVE SMOOTH",
"503 628 OFFCURVE",
"429 700 OFFCURVE",
"271 700 CURVE SMOOTH",
"90 700 LINE",
"90 0 LINE"
);
}
);
width = 597;
}
);
leftKerningGroup = N;
leftMetricsKey = N;
rightKerningGroup = B;
unicode = 0042;
},
{
glyphname = C;
lastChange = "2018-01-20 11:21:07 +0000";
layers = (
{
anchors = (
{
name = bottom;
position = "{394, 0}";
},
{
name = top;
position = "{394, 700}";
}
);
layerId = "293088C9-8C6F-4F1A-8530-3146F0106214";
paths = (
{
closed = 1;
nodes = (
"50 133 OFFCURVE",
"198 -12 OFFCURVE",
"421 -12 CURVE",
"518 -12 OFFCURVE",
"592 17 OFFCURVE",
"625 34 CURVE",
"579 113 LINE",
"547 99 OFFCURVE",
"503 84 OFFCURVE",
"421 84 CURVE",
"262 84 OFFCURVE",
"156 193 OFFCURVE",
"156 350 CURVE",
"156 507 OFFCURVE",
"262 616 OFFCURVE",
"421 616 CURVE",
"503 616 OFFCURVE",
"547 601 OFFCURVE",
"579 587 CURVE",
"625 666 LINE",
"592 683 OFFCURVE",
"516 712 OFFCURVE",
"418 712 CURVE",
"195 712 OFFCURVE",
"50 567 OFFCURVE",
"50 350 CURVE"
);
}
);
width = 665;
}
);
leftKerningGroup = O;
leftMetricsKey = O;
rightKerningGroup = C;
unicode = 0043;
},
{
glyphname = D;
lastChange = "2018-01-20 11:20:34 +0000";
layers = (
{
anchors = (
{
name = center;
position = "{178, 350}";
},
{
name = top;
position = "{358, 700}";
}
);
layerId = "293088C9-8C6F-4F1A-8530-3146F0106214";
paths = (
{
closed = 1;
nodes = (
"333 0 LINE SMOOTH",
"549 0 OFFCURVE",
"676 130 OFFCURVE",
"676 351 CURVE SMOOTH",
"676 570 OFFCURVE",
"549 700 OFFCURVE",
"333 700 CURVE SMOOTH",
"90 700 LINE",
"90 0 LINE"
);
},
{
closed = 1;
nodes = (
"194 606 LINE",
"333 606 LINE SMOOTH",
"483 606 OFFCURVE",
"571 511 OFFCURVE",
"571 351 CURVE SMOOTH",
"571 189 OFFCURVE",
"483 94 OFFCURVE",
"333 94 CURVE SMOOTH",
"194 94 LINE"
);
}
);
width = 726;
}
);
leftKerningGroup = N;
leftMetricsKey = N;
rightKerningGroup = O;
rightMetricsKey = O;
unicode = 0044;
},
{
glyphname = Eth;
lastChange = "2018-01-17 13:32:28 +0000";
layers = (
{
components = (
{
name = D;
transform = "{1, 0, 0, 1, 9, 0}";
}
);
layerId = "293088C9-8C6F-4F1A-8530-3146F0106214";
paths = (
{
closed = 1;
nodes = (
"15 403 LINE",
"15 319 LINE",
"366 319 LINE",
"366 403 LINE"
);
}
);
width = 735;
}
);
leftKerningGroup = N;
rightKerningGroup = O;
rightMetricsKey = D;
unicode = 00D0;
},
{
glyphname = E;
lastChange = "2018-01-20 11:22:32 +0000";
layers = (
{
anchors = (
{
name = ogonek;
position = "{485, 0}";
},
{
name = top;
position = "{394, 700}";
},
{
name = topleft;
position = "{50, 700}";
}
);
layerId = "293088C9-8C6F-4F1A-8530-3146F0106214";
paths = (
{
closed = 1;
nodes = (
"50 133 OFFCURVE",
"198 -12 OFFCURVE",
"421 -12 CURVE SMOOTH",
"518 -12 OFFCURVE",
"592 17 OFFCURVE",
"625 34 CURVE",
"579 113 LINE",
"547 99 OFFCURVE",
"503 84 OFFCURVE",
"421 84 CURVE SMOOTH",
"274.106 84 OFFCURVE",
"172 177 OFFCURVE",
"158 315 CURVE",
"550 315 LINE",
"550 408 LINE",
"161 408 LINE",
"184 533 OFFCURVE",
"282.425 616 OFFCURVE",
"421 616 CURVE SMOOTH",
"503 616 OFFCURVE",
"547 601 OFFCURVE",
"579 587 CURVE",
"625 666 LINE",
"592 683 OFFCURVE",
"519 712 OFFCURVE",
"421 712 CURVE SMOOTH",
"198 712 OFFCURVE",
"50 567 OFFCURVE",
"50 350 CURVE SMOOTH"
);
}
);
width = 665;
}
);
leftKerningGroup = O;
leftMetricsKey = C;
rightKerningGroup = C;
rightMetricsKey = C;
unicode = 0045;
},
{
glyphname = F;
lastChange = "2018-01-17 11:03:53 +0000";
layers = (
{
layerId = "293088C9-8C6F-4F1A-8530-3146F0106214";
paths = (
{
closed = 1;
nodes = (
"193 0 LINE",
"193 305 LINE",
"439 305 LINE",
"439 397 LINE",
"193 397 LINE",
"193 607 LINE",
"470 607 LINE",
"470 700 LINE",
"90 700 LINE",
"90 0 LINE"
);
}
);
width = 515;
}
);
leftKerningGroup = N;
leftMetricsKey = N;
rightKerningGroup = F;
unicode = 0046;
},
{
glyphname = G;
lastChange = "2018-01-16 17:29:48 +0000";
layers = (
{
anchors = (
{
name = bottom;
position = "{399, 0}";
},
{
name = top;
position = "{399, 700}";
}
);
layerId = "293088C9-8C6F-4F1A-8530-3146F0106214";
paths = (
{
closed = 1;
nodes = (
"50 133 OFFCURVE",
"200 -12 OFFCURVE",
"426 -12 CURVE SMOOTH",
"523 -12 OFFCURVE",
"602 17 OFFCURVE",
"635 34 CURVE",
"635 368 LINE",
"387 368 LINE",
"387 277 LINE",
"538 277 LINE",
"538 96 LINE",
"510 89 OFFCURVE",
"473.283 84 OFFCURVE",
"426 84 CURVE SMOOTH",
"264 84 OFFCURVE",
"156 190 OFFCURVE",
"156 350 CURVE SMOOTH",
"156 510 OFFCURVE",
"264 616 OFFCURVE",
"426 616 CURVE SMOOTH",
"508 616 OFFCURVE",
"554 600 OFFCURVE",
"586 586 CURVE",
"630 666 LINE",
"597 683 OFFCURVE",
"524 712 OFFCURVE",
"426 712 CURVE SMOOTH",
"200 712 OFFCURVE",
"50 567 OFFCURVE",
"50 350 CURVE SMOOTH"
);
}
);
width = 710;
}
);
leftKerningGroup = O;
leftMetricsKey = O;
rightKerningGroup = G;
unicode = 0047;
},
{
glyphname = H;
lastChange = "2018-01-20 11:23:06 +0000";
layers = (
{
anchors = (
{
name = center;
position = "{377, 545}";
},
{
name = top;
position = "{377, 700}";
}
);
layerId = "293088C9-8C6F-4F1A-8530-3146F0106214";
paths = (
{
closed = 1;
nodes = (
"194 0 LINE",
"194 315 LINE",
"560 315 LINE",
"560 0 LINE",
"664 0 LINE",
"664 700 LINE",
"560 700 LINE",
"560 408 LINE",
"194 408 LINE",
"194 700 LINE",
"90 700 LINE",
"90 0 LINE"
);
}
);
width = 754;
}
);
leftKerningGroup = N;
leftMetricsKey = N;
rightMetricsKey = N;
unicode = 0048;
},
{
glyphname = I;
lastChange = "2018-01-20 11:23:21 +0000";
layers = (
{
anchors = (
{
name = ogonek;
position = "{340, 0}";
},
{
name = top;
position = "{219, 700}";
}
);
layerId = "293088C9-8C6F-4F1A-8530-3146F0106214";
paths = (
{
closed = 1;
nodes = (
"383 0 LINE",
"383 85 LINE",
"270 85 LINE",
"270 615 LINE",
"383 615 LINE",
"383 700 LINE",
"55 700 LINE",
"55 615 LINE",
"168 615 LINE",
"168 85 LINE",
"55 85 LINE",
"55 0 LINE"
);
}
);
width = 438;
}
);
leftKerningGroup = I.001;
rightKerningGroup = I.001;
unicode = 0049;
},
{
glyphname = J;
lastChange = "2018-01-17 14:33:25 +0000";
layers = (
{
layerId = "293088C9-8C6F-4F1A-8530-3146F0106214";
paths = (
{
closed = 1;
nodes = (
"193 700 LINE",
"193 188 LINE SMOOTH",
"193 117 OFFCURVE",
"162 84 OFFCURVE",
"93 84 CURVE SMOOTH",
"73 84 OFFCURVE",
"57 86 OFFCURVE",
"48 89 CURVE",
"10 5 LINE",
"29 -5 OFFCURVE",
"66 -12 OFFCURVE",
"102 -12 CURVE SMOOTH",
"230 -12 OFFCURVE",
"297 55 OFFCURVE",
"297 183 CURVE SMOOTH",
"297 700 LINE"
);
}
);
width = 372;
}
);
leftKerningGroup = J;
rightKerningGroup = J;
unicode = 004A;
},
{
glyphname = K;
lastChange = "2018-01-17 09:57:17 +0000";
layers = (
{
anchors = (
{
name = bottom;
position = "{324, 0}";
},
{
name = top;
position = "{324, 700}";
}
);
background = {
paths = (
{
closed = 1;
nodes = (
"82 0 LINE",
"189 0 LINE",
"189 700 LINE",
"82 700 LINE"
);
},
{
closed = 1;
nodes = (
"483 0 LINE",
"621 0 LINE",
"290 364 LINE",
"598 700 LINE",
"463 700 LINE",
"154 361 LINE"
);
}
);
};
layerId = "293088C9-8C6F-4F1A-8530-3146F0106214";
paths = (
{
closed = 1;
nodes = (
"90 0 LINE",
"194 0 LINE",
"194 700 LINE",
"90 700 LINE"
);
},
{
closed = 1;
nodes = (
"623 0 LINE",
"268 399 LINE",
"258 331 LINE",
"587 700 LINE",
"462 700 LINE",
"130 327 LINE",
"140 395 LINE",
"492 0 LINE"
);
}
);
width = 628;
}
);
leftKerningGroup = N;
leftMetricsKey = N;
rightKerningGroup = K;
unicode = 004B;
},
{
glyphname = L;
lastChange = "2018-01-17 10:02:24 +0000";
layers = (
{
anchors = (
{
name = bottom;
position = "{267, 0}";
},
{
name = center;
position = "{167, 406}";
},
{
name = top;
position = "{139, 700}";
},
{
name = topright;
position = "{469, 700}";
}
);
layerId = "293088C9-8C6F-4F1A-8530-3146F0106214";
paths = (
{
closed = 1;
nodes = (
"454 0 LINE",
"454 93 LINE",
"194 93 LINE",
"194 700 LINE",
"90 700 LINE",
"90 0 LINE"
);
}
);
width = 489;
}
);
leftKerningGroup = N;
leftMetricsKey = N;
rightKerningGroup = L;
unicode = 004C;
},
{
glyphname = Lcaron;
lastChange = "2018-01-20 11:23:43 +0000";
layers = (
{
components = (
{
name = L;
}
);
layerId = "293088C9-8C6F-4F1A-8530-3146F0106214";
paths = (
{
closed = 1;
nodes = (
"340 553 LINE",
"390 700 LINE",
"290 700 LINE",
"268 553 LINE"
);
}
);
width = 489;
}
);
leftKerningGroup = N;
leftMetricsKey = L;
rightKerningGroup = L;
rightMetricsKey = L;
unicode = 013D;
},
{
glyphname = M;
lastChange = "2018-01-16 17:31:09 +0000";
layers = (
{
layerId = "293088C9-8C6F-4F1A-8530-3146F0106214";
paths = (
{
closed = 1;
nodes = (
"192 0 LINE",
"192 245 LINE SMOOTH",
"192 380 OFFCURVE",
"189 460 OFFCURVE",
"189 460 CURVE",
"191 460 LINE",
"191 460 OFFCURVE",
"236 393 OFFCURVE",
"311 299 CURVE SMOOTH",
"408 175 LINE",
"486 175 LINE",
"579 295 LINE SMOOTH",
"654 389 OFFCURVE",
"702 460 OFFCURVE",
"702 460 CURVE",
"704 460 LINE",
"704 460 OFFCURVE",
"701 380 OFFCURVE",
"701 245 CURVE SMOOTH",
"701 0 LINE",
"804 0 LINE",
"804 700 LINE",
"701 700 LINE",
"703 608 LINE",
"448 280 LINE",
"190 610 LINE",
"192 700 LINE",
"90 700 LINE",
"90 0 LINE"
);
}
);
width = 894;
}
);
leftKerningGroup = N;
leftMetricsKey = N;
rightMetricsKey = N;
unicode = 004D;
},
{
glyphname = N;
lastChange = "2018-01-20 11:24:29 +0000";
layers = (
{
anchors = (
{
name = bottom;
position = "{402, 0}";
},
{
name = top;
position = "{412, 700}";
}
);
layerId = "293088C9-8C6F-4F1A-8530-3146F0106214";
paths = (
{
closed = 1;
nodes = (
"191 0 LINE",
"191 264 LINE SMOOTH",
"191 412 OFFCURVE",
"189 484 OFFCURVE",
"189 484 CURVE",
"191 484 LINE",
"191 484 OFFCURVE",
"245 427 OFFCURVE",
"336 345 CURVE SMOOTH",
"624 87 LINE",
"623 0 LINE",
"725 0 LINE",
"725 700 LINE",
"623 700 LINE",
"623 430 LINE SMOOTH",
"623 282 OFFCURVE",
"625 210 OFFCURVE",
"625 210 CURVE SMOOTH",
"623 210 LINE SMOOTH",
"623 210 OFFCURVE",
"575 262 OFFCURVE",
"484 344 CURVE SMOOTH",
"190 610 LINE",
"191 700 LINE",
"90 700 LINE",
"90 0 LINE"
);
}
);
width = 815;
}
);
leftKerningGroup = N;
rightKerningGroup = N;
unicode = 004E;
},
{
glyphname = Eng;
lastChange = "2018-01-16 17:52:50 +0000";
layers = (
{
layerId = "293088C9-8C6F-4F1A-8530-3146F0106214";
paths = (
{
closed = 1;
nodes = (
"191 0 LINE",
"191 264 LINE SMOOTH",
"191 412 OFFCURVE",
"189 484 OFFCURVE",
"189 484 CURVE",
"191 484 LINE",
"191 484 OFFCURVE",
"245 427 OFFCURVE",
"336 345 CURVE SMOOTH",
"624 87 LINE",
"624 -33 LINE SMOOTH",
"624 -89 OFFCURVE",
"602 -119 OFFCURVE",
"542 -119 CURVE SMOOTH",
"523 -119 OFFCURVE",
"505 -116 OFFCURVE",
"496 -113 CURVE",
"460 -192 LINE",
"478 -202 OFFCURVE",
"515 -209 OFFCURVE",
"551 -209 CURVE SMOOTH",
"661 -209 OFFCURVE",
"725 -145 OFFCURVE",
"725 -38 CURVE SMOOTH",
"725 700 LINE",
"623 700 LINE",
"623 430 LINE SMOOTH",
"623 282 OFFCURVE",
"625 210 OFFCURVE",
"625 210 CURVE SMOOTH",
"623 210 LINE SMOOTH",
"623 210 OFFCURVE",
"575 262 OFFCURVE",
"484 344 CURVE SMOOTH",
"190 610 LINE",
"191 700 LINE",
"90 700 LINE",
"90 0 LINE"
);
}
);
width = 815;
}
);
leftKerningGroup = N;
leftMetricsKey = N;
rightMetricsKey = N;
unicode = 014A;
},
{
glyphname = O;
lastChange = "2018-01-20 11:24:52 +0000";
layers = (
{
anchors = (
{
name = center;
position = "{393, 337}";
},
{
name = top;
position = "{396, 700}";
}
);
layerId = "293088C9-8C6F-4F1A-8530-3146F0106214";
paths = (
{
closed = 1;
nodes = (
"603 -12 OFFCURVE",
"741 133 OFFCURVE",
"741 350 CURVE SMOOTH",
"741 567 OFFCURVE",
"603 712 OFFCURVE",
"396 712 CURVE SMOOTH",
"188 712 OFFCURVE",
"50 567 OFFCURVE",
"50 350 CURVE SMOOTH",
"50 133 OFFCURVE",
"188 -12 OFFCURVE",
"396 -12 CURVE SMOOTH"
);
},
{
closed = 1;
nodes = (
"252 84 OFFCURVE",
"156 190 OFFCURVE",
"156 350 CURVE SMOOTH",
"156 510 OFFCURVE",
"252 616 OFFCURVE",
"396 616 CURVE SMOOTH",
"539 616 OFFCURVE",
"635 510 OFFCURVE",
"635 350 CURVE SMOOTH",
"635 190 OFFCURVE",
"539 84 OFFCURVE",
"396 84 CURVE SMOOTH"
);
}
);
width = 791;
}
);
leftKerningGroup = O;
rightKerningGroup = O;
unicode = 004F;
},
{
glyphname = Oslash;
lastChange = "2018-01-10 13:52:14 +0000";
layers = (
{
anchors = (
{
name = _center;
position = "{403, 337}";
}
);
components = (
{
name = O;
}
);
layerId = "293088C9-8C6F-4F1A-8530-3146F0106214";
paths = (
{
closed = 1;
nodes = (
"204 106 LINE",
"641 535 LINE",
"591 591 LINE",
"157 165 LINE"
);
}
);
width = 791;
}
);
leftKerningGroup = O;
leftMetricsKey = O;
rightKerningGroup = O;
rightMetricsKey = O;
unicode = 00D8;
},
{
glyphname = OE;
lastChange = "2018-01-17 10:04:41 +0000";
layers = (
{
layerId = "293088C9-8C6F-4F1A-8530-3146F0106214";
paths = (
{
closed = 1;
nodes = (
"50 133 OFFCURVE",
"188 -12 OFFCURVE",
"396 -12 CURVE SMOOTH",
"531.286 -12 OFFCURVE",
"628 50 OFFCURVE",
"679 153 CURVE",
"681 153 LINE",
"735 50 OFFCURVE",
"841 -12 OFFCURVE",
"986 -12 CURVE SMOOTH",
"1083 -12 OFFCURVE",
"1157 17 OFFCURVE",
"1190 34 CURVE",
"1144 113 LINE",
"1112 99 OFFCURVE",
"1068 84 OFFCURVE",
"986 84 CURVE SMOOTH",
"839.106 84 OFFCURVE",
"737 177 OFFCURVE",
"723 315 CURVE",
"1115 315 LINE",
"1115 408 LINE",
"726 408 LINE",
"749 533 OFFCURVE",
"847.425 616 OFFCURVE",
"986 616 CURVE SMOOTH",
"1068 616 OFFCURVE",
"1112 601 OFFCURVE",
"1144 587 CURVE",
"1190 666 LINE",
"1157 683 OFFCURVE",
"1084 712 OFFCURVE",
"986 712 CURVE SMOOTH",
"841 712 OFFCURVE",
"735 650 OFFCURVE",
"681 547 CURVE SMOOTH",
"681 547 OFFCURVE",
"679 547 OFFCURVE",
"679 547 CURVE",
"628 650 OFFCURVE",
"531.286 712 OFFCURVE",
"396 712 CURVE SMOOTH",
"188 712 OFFCURVE",
"50 567 OFFCURVE",
"50 350 CURVE SMOOTH"
);
},
{
closed = 1;
nodes = (
"156 510 OFFCURVE",
"252 616 OFFCURVE",
"396 616 CURVE SMOOTH",
"539 616 OFFCURVE",
"635 510 OFFCURVE",
"635 350 CURVE SMOOTH",
"635 190 OFFCURVE",
"539 84 OFFCURVE",
"396 84 CURVE SMOOTH",
"252 84 OFFCURVE",
"156 190 OFFCURVE",
"156 350 CURVE SMOOTH"
);
}
);
width = 1230;
}
);
leftKerningGroup = O;
leftMetricsKey = O;
rightKerningGroup = C;
rightMetricsKey = C;
unicode = 0152;
},
{
glyphname = P;
lastChange = "2018-01-09 15:01:30 +0000";
layers = (
{
layerId = "293088C9-8C6F-4F1A-8530-3146F0106214";
paths = (
{
closed = 1;
nodes = (
"192 0 LINE",
"192 253 LINE",
"243 253 LINE SMOOTH",
"413 253 OFFCURVE",
"516 336 OFFCURVE",
"516 476 CURVE SMOOTH",
"516 617 OFFCURVE",
"428 700 OFFCURVE",
"280 700 CURVE SMOOTH",
"90 700 LINE",
"90 0 LINE"
);
},
{
closed = 1;
nodes = (
"192 606 LINE",
"272 606 LINE SMOOTH",
"362 606 OFFCURVE",
"415 558 OFFCURVE",
"415 476 CURVE SMOOTH",
"415 394 OFFCURVE",
"360 344 OFFCURVE",
"268 344 CURVE SMOOTH",
"192 344 LINE"
);
}
);
width = 564;
}
);
leftKerningGroup = N;
leftMetricsKey = N;
rightKerningGroup = P;
unicode = 0050;
},
{
glyphname = Thorn;
lastChange = "2018-01-16 17:32:54 +0000";
layers = (
{
layerId = "293088C9-8C6F-4F1A-8530-3146F0106214";
paths = (
{
closed = 1;
nodes = (
"192 0 LINE",
"192 139 LINE",
"243 139 LINE SMOOTH",
"413 139 OFFCURVE",
"516 222 OFFCURVE",
"516 362 CURVE SMOOTH",
"516 503 OFFCURVE",
"428 586 OFFCURVE",
"280 586 CURVE SMOOTH",
"192 586 LINE",
"192 700 LINE",
"90 700 LINE",
"90 0 LINE"
);
},
{
closed = 1;
nodes = (
"192 492 LINE",
"272 492 LINE SMOOTH",
"362 492 OFFCURVE",
"415 444 OFFCURVE",
"415 362 CURVE SMOOTH",
"415 280 OFFCURVE",
"360 230 OFFCURVE",
"268 230 CURVE SMOOTH",
"192 230 LINE"
);
}
);
width = 564;
}
);
leftKerningGroup = N;
leftMetricsKey = N;
rightMetricsKey = P;
unicode = 00DE;
},
{
glyphname = Q;
lastChange = "2018-01-16 17:33:06 +0000";
layers = (
{
layerId = "293088C9-8C6F-4F1A-8530-3146F0106214";
paths = (
{
closed = 1;
nodes = (
"250 84 OFFCURVE",
"156 190 OFFCURVE",
"156 350 CURVE SMOOTH",
"156 510 OFFCURVE",
"250 616 OFFCURVE",
"390 616 CURVE SMOOTH",
"531 616 OFFCURVE",
"625 510 OFFCURVE",
"625 350 CURVE SMOOTH",
"625 190 OFFCURVE",
"531 84 OFFCURVE",
"390 84 CURVE SMOOTH"
);
},
{
closed = 1;
nodes = (
"50 133 OFFCURVE",
"186 -12 OFFCURVE",
"390 -12 CURVE SMOOTH",
"450.495 -12 OFFCURVE",
"505 1 OFFCURVE",
"552 24 CURVE",
"598 -31 OFFCURVE",
"656.255 -75.772 OFFCURVE",
"715 -98 CURVE",
"764 -9 LINE",
"708.026 10.404 OFFCURVE",
"660 37 OFFCURVE",
"624 76 CURVE",
"691 139 OFFCURVE",
"730 234.385 OFFCURVE",
"730 350 CURVE SMOOTH",
"730 567 OFFCURVE",
"594 712 OFFCURVE",
"390 712 CURVE SMOOTH",
"186 712 OFFCURVE",
"50 567 OFFCURVE",
"50 350 CURVE SMOOTH"
);
}
);
width = 804;
}
);
leftKerningGroup = O;
leftMetricsKey = O;
rightKerningGroup = Q;
unicode = 0051;
},
{
glyphname = R;
lastChange = "2018-01-20 11:25:23 +0000";
layers = (
{
anchors = (
{
name = bottom;
position = "{313, 0}";
},
{
name = top;
position = "{283, 700}";
}
);
layerId = "293088C9-8C6F-4F1A-8530-3146F0106214";
paths = (
{
closed = 1;
nodes = (
"192 0 LINE",
"192 260 LINE",
"279 260 LINE",
"471 0 LINE",
"590 0 LINE",
"382 285 LINE",
"464 320 OFFCURVE",
"521 391.359 OFFCURVE",
"521 489 CURVE SMOOTH",
"521 617 OFFCURVE",
"428 700 OFFCURVE",
"280 700 CURVE SMOOTH",
"90 700 LINE",
"90 0 LINE"
);
},
{
closed = 1;
nodes = (
"192 606 LINE",
"272 606 LINE SMOOTH",
"361 606 OFFCURVE",
"420 556 OFFCURVE",
"420 476 CURVE SMOOTH",
"420 396 OFFCURVE",
"360 346 OFFCURVE",
"268 346 CURVE SMOOTH",
"192 346 LINE"
);
}
);
width = 595;
}
);
leftKerningGroup = N;
leftMetricsKey = N;
rightKerningGroup = R;
unicode = 0052;
},
{
glyphname = S;
lastChange = "2018-01-20 11:25:39 +0000";
layers = (
{
anchors = (
{
name = bottom;
position = "{257, 0}";
},
{
name = top;
position = "{266, 700}";
}
);
background = {
paths = (
{
closed = 1;
nodes = (
"388 -12 OFFCURVE",
"495 49 OFFCURVE",
"495 190 CURVE SMOOTH",
"495 410 OFFCURVE",
"165 401 OFFCURVE",
"165 541 CURVE SMOOTH",
"165 591 OFFCURVE",
"210 622 OFFCURVE",
"285 622 CURVE SMOOTH",
"344 622 OFFCURVE",
"390 604 OFFCURVE",
"421 589 CURVE",
"470 673 LINE",
"430 693 OFFCURVE",
"367 716 OFFCURVE",
"282 716 CURVE SMOOTH",
"166 716 OFFCURVE",
"60 659 OFFCURVE",
"60 538 CURVE SMOOTH",
"60 314 OFFCURVE",
"387 337 OFFCURVE",
"387 184 CURVE SMOOTH",
"387 119 OFFCURVE",
"344 87 OFFCURVE",
"246 87 CURVE SMOOTH",
"176 87 OFFCURVE",
"127 103 OFFCURVE",
"84 123 CURVE",
"32 33 LINE",
"75 10 OFFCURVE",
"141 -12 OFFCURVE",
"248 -12 CURVE SMOOTH"
);
}
);
};
layerId = "293088C9-8C6F-4F1A-8530-3146F0106214";
paths = (
{
closed = 1;
nodes = (
"96 5 OFFCURVE",
"172 -12 OFFCURVE",
"246 -12 CURVE",
"390 -12 OFFCURVE",
"483 58 OFFCURVE",
"483 188 CURVE",
"483 406 OFFCURVE",
"168 390 OFFCURVE",
"168 531 CURVE",
"168 583 OFFCURVE",
"210 622 OFFCURVE",
"281 622 CURVE",
"326 622 OFFCURVE",
"368 614 OFFCURVE",
"414 596 CURVE",
"459 673 LINE",
"412 698 OFFCURVE",
"344 712 OFFCURVE",
"283 712 CURVE",
"151 712 OFFCURVE",
"66 639 OFFCURVE",
"66 529 CURVE",
"66 312 OFFCURVE",
"382 328 OFFCURVE",
"381 178 CURVE",
"380 118 OFFCURVE",
"331 80 OFFCURVE",
"249 80 CURVE",
"200 80 OFFCURVE",
"140 94 OFFCURVE",
"97 115 CURVE",
"50 34 LINE"
);
}
);
width = 533;
}
);
leftKerningGroup = S;
rightKerningGroup = S;
unicode = 0053;
},
{
glyphname = T;
lastChange = "2018-01-17 14:51:04 +0000";
layers = (
{
anchors = (
{
name = bottom;
position = "{293, 0}";
},
{
name = center;
position = "{291, 360}";
},
{
name = top;
position = "{291, 700}";
}
);
layerId = "293088C9-8C6F-4F1A-8530-3146F0106214";
paths = (
{
closed = 1;
nodes = (
"239 607 LINE",
"239 0 LINE",
"343 0 LINE",
"343 607 LINE",
"562 607 LINE",
"562 700 LINE",
"20 700 LINE",
"20 607 LINE"
);
}
);
width = 582;
}
);
leftKerningGroup = T;
rightKerningGroup = T;
unicode = 0054;
},
{
glyphname = Tcedilla;
lastChange = "2018-01-20 11:30:53 +0000";
layers = (
{
components = (
{
name = T;
}
);
layerId = "293088C9-8C6F-4F1A-8530-3146F0106214";
paths = (
{
closed = 1;
nodes = (
"256 -192 LINE",
"327 -163 OFFCURVE",
"368 -127 OFFCURVE",
"368 -67 CURVE",
"368 -41 OFFCURVE",
"363 -8 OFFCURVE",
"316 22 CURVE",
"241 12 LINE",
"239 0 LINE",
"272 -9 OFFCURVE",
"284 -32 OFFCURVE",
"284 -53 CURVE SMOOTH",
"284 -89 OFFCURVE",
"259 -104 OFFCURVE",
"217 -124 CURVE"
);
}
);
width = 582;
}
);
leftKerningGroup = T;
leftMetricsKey = T;
rightKerningGroup = T;
rightMetricsKey = T;
unicode = 0162;
},
{
glyphname = U;
lastChange = "2018-01-20 11:31:59 +0000";
layers = (
{
anchors = (
{
name = ogonek;
position = "{420, 0}";
},
{
name = top;
position = "{369, 700}";
}
);
layerId = "293088C9-8C6F-4F1A-8530-3146F0106214";
paths = (
{
closed = 1;
nodes = (
"85 103 OFFCURVE",
"186 -12 OFFCURVE",
"369 -12 CURVE",
"552 -12 OFFCURVE",
"653 103 OFFCURVE",
"653 310 CURVE",
"653 700 LINE",
"549 700 LINE",
"549 330 LINE",
"549 172 OFFCURVE",
"485 84 OFFCURVE",
"369 84 CURVE",
"253 84 OFFCURVE",
"189 172 OFFCURVE",
"189 330 CURVE",
"189 700 LINE",
"85 700 LINE",
"85 310 LINE"
);
}
);
width = 738;
}
);
leftKerningGroup = U;
leftMetricsKey = "=N-5";
rightKerningGroup = U;
rightMetricsKey = "=N-5";
unicode = 0055;
},
{
glyphname = V;
lastChange = "2018-01-17 14:51:12 +0000";
layers = (
{
layerId = "293088C9-8C6F-4F1A-8530-3146F0106214";
paths = (
{
closed = 1;
nodes = (
"555 700 LINE",
"422 352 LINE",
"376 230 OFFCURVE",
"340 104 OFFCURVE",
"340 104 CURVE",
"338 104 LINE",
"338 104 OFFCURVE",
"302 230 OFFCURVE",
"257 352 CURVE",
"125 700 LINE",
"15 700 LINE",
"281 0 LINE",
"393 0 LINE",
"659 700 LINE"
);
}
);
width = 674;
}
);
leftKerningGroup = V;
leftMetricsKey = A;
rightKerningGroup = V;
rightMetricsKey = A;
unicode = 0056;
},
{
glyphname = W;
lastChange = "2018-01-20 11:32:19 +0000";
layers = (
{
anchors = (
{
name = bottom;
position = "{527, 0}";
},
{
name = top;
position = "{517, 700}";
}
);
layerId = "293088C9-8C6F-4F1A-8530-3146F0106214";
paths = (
{
closed = 1;
nodes = (
"261 0 LINE",
"367 0 LINE",
"447 227 LINE SMOOTH",
"492 354 OFFCURVE",
"526 482 OFFCURVE",
"526 482 CURVE",
"528 482 LINE",
"528 482 OFFCURVE",
"562 354 OFFCURVE",
"606 227 CURVE SMOOTH",
"686 0 LINE",
"792 0 LINE",
"1038 700 LINE",
"939 700 LINE",
"817 352 LINE SMOOTH",
"778 238 OFFCURVE",
"742 104 OFFCURVE",
"742 104 CURVE SMOOTH",
"740 104 LINE SMOOTH",
"740 104 OFFCURVE",
"704 238 OFFCURVE",
"665 352 CURVE SMOOTH",
"545 700 LINE",
"436 700 LINE",
"478 596 LINE",
"393 352 LINE SMOOTH",
"353 238 OFFCURVE",
"317 104 OFFCURVE",
"317 104 CURVE SMOOTH",
"315 104 LINE SMOOTH",
"315 104 OFFCURVE",
"279 238 OFFCURVE",
"240 352 CURVE SMOOTH",
"120 700 LINE",
"15 700 LINE"
);
}
);
width = 1053;
}
);
leftKerningGroup = V;
leftMetricsKey = A;
rightKerningGroup = V;
rightMetricsKey = A;
unicode = 0057;
},
{
glyphname = X;
lastChange = "2018-01-17 14:51:19 +0000";
layers = (
{
layerId = "293088C9-8C6F-4F1A-8530-3146F0106214";
paths = (
{
closed = 1;
nodes = (
"129 0 LINE",
"315 287 LINE",
"317 287 LINE",
"503 0 LINE",
"621 0 LINE",
"385 361 LINE",
"609 700 LINE",
"496 700 LINE",
"322 434 LINE",
"320 434 LINE",
"147 700 LINE",
"29 700 LINE",
"251 359 LINE",
"15 0 LINE"
);
}
);
width = 636;
}
);
leftKerningGroup = X;
leftMetricsKey = A;
rightKerningGroup = X;
rightMetricsKey = A;
unicode = 0058;
},
{
glyphname = Y;
lastChange = "2018-01-17 14:49:21 +0000";
layers = (
{
anchors = (
{
name = bottom;
position = "{299, 0}";
},
{
name = top;
position = "{300, 700}";
},
{
name = topleft;
position = "{21, 700}";
}
);
layerId = "293088C9-8C6F-4F1A-8530-3146F0106214";
paths = (
{
closed = 1;
nodes = (
"246 259 LINE",
"246 0 LINE",
"349 0 LINE",
"349 257 LINE",
"581 700 LINE",
"474 700 LINE",
"396 550 LINE SMOOTH",
"328 416 OFFCURVE",
"301 358 OFFCURVE",
"301 358 CURVE SMOOTH",
"299 358 LINE SMOOTH",
"299 358 OFFCURVE",
"275 416 OFFCURVE",
"206 549 CURVE SMOOTH",
"127 700 LINE",
"15 700 LINE"
);
}
);
width = 596;
}
);
leftKerningGroup = Y;
leftMetricsKey = A;
rightKerningGroup = Y;
rightMetricsKey = A;
unicode = 0059;
},
{
glyphname = Z;
lastChange = "2018-01-20 11:32:42 +0000";
layers = (
{
anchors = (
{
name = bottom;
position = "{292, 0}";
},
{
name = top;
position = "{302, 700}";
}
);
layerId = "293088C9-8C6F-4F1A-8530-3146F0106214";
paths = (
{
closed = 1;
nodes = (
"546 0 LINE",
"546 93 LINE",
"163 93 LINE",
"162 95 LINE",
"537 604 LINE",
"537 700 LINE",
"61 700 LINE",
"61 607 LINE",
"418 607 LINE",
"419 605 LINE",
"42 96 LINE",
"42 0 LINE"
);
}
);
width = 589;
}
);
leftKerningGroup = Z;
rightKerningGroup = Z;
unicode = 005A;
},
{
glyphname = A.alt;
lastChange = "2018-01-20 11:39:04 +0000";
layers = (
{
anchors = (
{
name = ogonek;
position = "{609, 0}";
},
{
name = top;
position = "{336, 700}";
}
);
layerId = "293088C9-8C6F-4F1A-8530-3146F0106214";
paths = (
{
closed = 1;
nodes = (
"116 0 LINE",
"183 175 LINE",
"484 175 LINE",
"551 0 LINE",
"657 0 LINE",
"391 700 LINE",
"281 700 LINE",
"15 0 LINE"
);
},
{
closed = 1;
nodes = (
"246 341 LINE SMOOTH",
"295 470 OFFCURVE",
"333 601 OFFCURVE",
"333 601 CURVE",
"335 601 LINE",
"335 601 OFFCURVE",
"372 469 OFFCURVE",
"421 341 CURVE SMOOTH",
"450 265 LINE",
"217 265 LINE"
);
}
);
width = 672;
}
);
leftKerningGroup = A;
leftMetricsKey = A;
rightKerningGroup = A;
rightMetricsKey = A;
},
{
glyphname = Aogonek.alt;
lastChange = "2018-01-20 11:43:34 +0000";
layers = (
{
components = (
{
name = A.alt;
}
);
layerId = "293088C9-8C6F-4F1A-8530-3146F0106214";
paths = (
{
closed = 1;
nodes = (
"610 -119 OFFCURVE",
"586 -106 OFFCURVE",
"586 -76 CURVE SMOOTH",
"586 -43 OFFCURVE",
"624 -11 OFFCURVE",
"657 0 CURVE",
"637 12 LINE",
"569 12 LINE",
"552 0 LINE",
"524 -31 OFFCURVE",
"512 -55 OFFCURVE",
"512 -92 CURVE",
"512 -150 OFFCURVE",
"561 -184 OFFCURVE",
"609 -184 CURVE SMOOTH",
"635 -184 OFFCURVE",
"656 -179 OFFCURVE",
"680 -166 CURVE",
"647 -108 LINE"
);
}
);
width = 672;
}
);
leftKerningGroup = A;
leftMetricsKey = A;
rightKerningGroup = A;
},
{
glyphname = Aring.alt;
lastChange = "2018-01-20 11:39:40 +0000";
layers = (
{
anchors = (
{
name = top;
position = "{339, 837}";
}
);
components = (
{
name = A.alt;
}
);
layerId = "293088C9-8C6F-4F1A-8530-3146F0106214";
paths = (
{
closed = 1;
nodes = (
"395 650 OFFCURVE",
"433 688 OFFCURVE",
"433 744 CURVE SMOOTH",
"433 800 OFFCURVE",
"395 837 OFFCURVE",
"337 837 CURVE SMOOTH",
"279 837 OFFCURVE",
"240 800 OFFCURVE",
"240 744 CURVE SMOOTH",
"240 688 OFFCURVE",
"279 650 OFFCURVE",
"337 650 CURVE SMOOTH"
);
},
{
closed = 1;
nodes = (
"309 700 OFFCURVE",
"290 718 OFFCURVE",
"290 744 CURVE SMOOTH",
"290 770 OFFCURVE",
"309 787 OFFCURVE",
"337 787 CURVE SMOOTH",
"365 787 OFFCURVE",
"383 770 OFFCURVE",
"383 744 CURVE SMOOTH",
"383 718 OFFCURVE",
"365 700 OFFCURVE",
"337 700 CURVE SMOOTH"
);
}
);
width = 672;
}
);
leftKerningGroup = A;
leftMetricsKey = A;
rightKerningGroup = A;
rightMetricsKey = A;
},
{
glyphname = E.alt;
lastChange = "2018-01-20 11:39:52 +0000";
layers = (
{
anchors = (
{
name = bottom;
position = "{280, 0}";
},
{
name = ogonek;
position = "{437, 0}";
},
{
name = top;
position = "{280, 700}";
}
);
layerId = "293088C9-8C6F-4F1A-8530-3146F0106214";
paths = (
{
closed = 1;
nodes = (
"480 0 LINE",
"480 93 LINE",
"193 93 LINE",
"193 316 LINE",
"439 316 LINE",
"439 407 LINE",
"193 407 LINE",
"193 608 LINE",
"470 608 LINE",
"470 700 LINE",
"90 700 LINE",
"90 0 LINE"
);
}
);
width = 540;
}
);
leftKerningGroup = N;
leftMetricsKey = N;
rightKerningGroup = E;
},
{
glyphname = I.alt;
lastChange = "2018-01-10 13:48:38 +0000";
layers = (
{
anchors = (
{
name = bottom;
position = "{142, 0}";
},
{
name = ogonek;
position = "{151, 0}";
},
{
name = top;
position = "{142, 700}";
},
{
name = topleft;
position = "{18, 700}";
}
);
layerId = "293088C9-8C6F-4F1A-8530-3146F0106214";
paths = (
{
closed = 1;
nodes = (
"194 0 LINE",
"194 700 LINE",
"90 700 LINE",
"90 0 LINE"
);
}
);
width = 284;
}
);
leftKerningGroup = N;
leftMetricsKey = N;
rightKerningGroup = N;
rightMetricsKey = N;
},
{
glyphname = Iogonek.alt;
lastChange = "2018-01-20 11:44:03 +0000";
layers = (
{
components = (
{
name = I.alt;
}
);
layerId = "293088C9-8C6F-4F1A-8530-3146F0106214";
paths = (
{
closed = 1;
nodes = (
"147 -119 OFFCURVE",
"123 -106 OFFCURVE",
"123 -76 CURVE SMOOTH",
"123 -43 OFFCURVE",
"161 -11 OFFCURVE",
"194 0 CURVE",
"174 12 LINE",
"106 12 LINE",
"90 0 LINE",
"62 -31 OFFCURVE",
"49 -55 OFFCURVE",
"49 -92 CURVE",
"49 -150 OFFCURVE",
"98 -184 OFFCURVE",
"146 -184 CURVE SMOOTH",
"172 -184 OFFCURVE",
"193 -179 OFFCURVE",
"217 -166 CURVE",
"184 -108 LINE"
);
}
);
width = 284;
}
);
leftKerningGroup = I.001;
rightKerningGroup = I.001;
},
{
glyphname = M.alt;
lastChange = "2018-01-16 17:38:43 +0000";
layers = (
{
layerId = "293088C9-8C6F-4F1A-8530-3146F0106214";
paths = (
{
closed = 1;
nodes = (
"192 0 LINE",
"192 302 LINE",
"192 492 OFFCURVE",
"184 597 OFFCURVE",
"184 597 CURVE",
"186 597 LINE",
"186 597 OFFCURVE",
"230 504 OFFCURVE",
"320 356 CURVE",
"408 210 LINE",
"500 210 LINE",
"588 356 LINE",
"678 504 OFFCURVE",
"721 597 OFFCURVE",
"721 597 CURVE",
"723 597 LINE",
"723 597 OFFCURVE",
"715 492 OFFCURVE",
"715 302 CURVE",
"715 0 LINE",
"818 0 LINE",
"818 700 LINE",
"683 700 LINE",
"577 526 LINE",
"515 424 OFFCURVE",
"457 305 OFFCURVE",
"457 305 CURVE",
"455 305 LINE",
"455 305 OFFCURVE",
"397 424 OFFCURVE",
"335 526 CURVE",
"230 700 LINE",
"90 700 LINE",
"90 0 LINE"
);
}
);
width = 908;
}
);
leftMetricsKey = N;
rightMetricsKey = N;
},
{
glyphname = N.alt;
lastChange = "2018-01-20 11:40:16 +0000";
layers = (
{
anchors = (
{
name = bottom;
position = "{410, 0}";
},
{
name = top;
position = "{420, 700}";
}
);
layerId = "293088C9-8C6F-4F1A-8530-3146F0106214";
paths = (
{
closed = 1;
nodes = (
"192 0 LINE",
"192 302 LINE",
"192 492 OFFCURVE",
"185 587 OFFCURVE",
"185 587 CURVE",
"187 587 LINE",
"187 587 OFFCURVE",
"230 507 OFFCURVE",
"345 353 CURVE",
"607 0 LINE",
"730 0 LINE",
"730 700 LINE",
"627 700 LINE",
"627 398 LINE",
"627 208 OFFCURVE",
"634 113 OFFCURVE",
"634 113 CURVE",
"632 113 LINE",
"632 113 OFFCURVE",
"589 193 OFFCURVE",
"474 347 CURVE",
"212 700 LINE",
"90 700 LINE",
"90 0 LINE"
);
}
);
width = 820;
}
);
leftMetricsKey = N;
rightMetricsKey = N;
},
{
glyphname = Eng.alt;
lastChange = "2018-01-16 17:52:59 +0000";
layers = (
{
layerId = "293088C9-8C6F-4F1A-8530-3146F0106214";
paths = (
{
closed = 1;
nodes = (
"192 0 LINE",
"192 302 LINE SMOOTH",
"192 492 OFFCURVE",
"185 587 OFFCURVE",
"185 587 CURVE",
"187 587 LINE",
"187 587 OFFCURVE",
"230 507 OFFCURVE",
"345 353 CURVE SMOOTH",
"607 0 LINE",
"637 0 LINE",
"637 -33 LINE SMOOTH",
"637 -89 OFFCURVE",
"607 -120 OFFCURVE",
"548 -120 CURVE SMOOTH",
"533 -120 OFFCURVE",
"519 -119 OFFCURVE",
"509 -117 CURVE",
"464 -192 LINE",
"483 -202 OFFCURVE",
"521 -209 OFFCURVE",
"557 -209 CURVE SMOOTH",
"666 -209 OFFCURVE",
"730 -145 OFFCURVE",
"730 -38 CURVE SMOOTH",
"730 700 LINE",
"627 700 LINE",
"627 398 LINE SMOOTH",
"627 208 OFFCURVE",
"634 113 OFFCURVE",
"634 113 CURVE SMOOTH",
"632 113 LINE SMOOTH",
"632 113 OFFCURVE",
"589 193 OFFCURVE",
"474 347 CURVE SMOOTH",
"212 700 LINE",
"90 700 LINE",
"90 0 LINE"
);
}
);
width = 820;
}
);
leftMetricsKey = N;
rightMetricsKey = N;
},
{
glyphname = W.alt;
lastChange = "2018-01-16 17:50:12 +0000";
layers = (
{
anchors = (
{
name = bottom;
position = "{556, 0}";
},
{
name = top;
position = "{556, 700}";
}
);
layerId = "293088C9-8C6F-4F1A-8530-3146F0106214";
paths = (
{
closed = 1;
nodes = (
"252 0 LINE",
"361 0 LINE",
"467 300 LINE",
"533 486 OFFCURVE",
"554 585 OFFCURVE",
"554 585 CURVE",
"556 585 LINE",
"556 585 OFFCURVE",
"575 486 OFFCURVE",
"639 300 CURVE",
"740 0 LINE",
"849 0 LINE",
"1096 700 LINE",
"990 700 LINE",
"875 368 LINE SMOOTH",
"812 187 OFFCURVE",
"798 108 OFFCURVE",
"798 108 CURVE",
"796 108 LINE",
"796 108 OFFCURVE",
"781 187 OFFCURVE",
"721 368 CURVE SMOOTH",
"612 700 LINE",
"502 700 LINE",
"387 368 LINE SMOOTH",
"324 187 OFFCURVE",
"309 108 OFFCURVE",
"309 108 CURVE",
"307 108 LINE",
"307 108 OFFCURVE",
"293 187 OFFCURVE",
"233 368 CURVE SMOOTH",
"124 700 LINE",
"15 700 LINE"
);
}
);
width = 1111;
}
);
leftKerningGroup = W;
leftMetricsKey = A;
rightKerningGroup = W;
rightMetricsKey = A;
},
{
glyphname = a;
lastChange = "2018-01-20 11:56:58 +0000";
layers = (
{
anchors = (
{
name = ogonek;
position = "{470, 0}";
},
{
name = top;
position = "{289, 550}";
}
);
layerId = "293088C9-8C6F-4F1A-8530-3146F0106214";
paths = (
{
closed = 1;
nodes = (
"50 60 OFFCURVE",
"112 -12 OFFCURVE",
"217 -12 CURVE SMOOTH",
"304.04 -12 OFFCURVE",
"370 32 OFFCURVE",
"414 79 CURVE",
"416 79 LINE",
"416 0 LINE",
"507 0 LINE",
"507 335 LINE SMOOTH",
"507 503 OFFCURVE",
"424 562 OFFCURVE",
"280 562 CURVE SMOOTH",
"189 562 OFFCURVE",
"104 530 OFFCURVE",
"80 514 CURVE",
"121 442 LINE",
"149 455 OFFCURVE",
"217 472 OFFCURVE",
"268 472 CURVE SMOOTH",
"387 472 OFFCURVE",
"408 425 OFFCURVE",
"409 329 CURVE",
"383 336 OFFCURVE",
"346 342 OFFCURVE",
"293 342 CURVE SMOOTH",
"180 342 OFFCURVE",
"50 294 OFFCURVE",
"50 156 CURVE SMOOTH"
);
},
{
closed = 1;
nodes = (
"148 215 OFFCURVE",
"194 264 OFFCURVE",
"316 264 CURVE SMOOTH",
"359 264 OFFCURVE",
"387 259 OFFCURVE",
"409 251 CURVE",
"409 170 LINE",
"375 130 OFFCURVE",
"313.434 79 OFFCURVE",
"240 79 CURVE SMOOTH",
"179 79 OFFCURVE",
"148 111 OFFCURVE",
"148 160 CURVE SMOOTH"
);
}
);
width = 583;
}
);
leftKerningGroup = a;
rightKerningGroup = n;
rightMetricsKey = n;
unicode = 0061;
},
{
glyphname = ae;
lastChange = "2018-01-17 11:42:18 +0000";
layers = (
{
layerId = "293088C9-8C6F-4F1A-8530-3146F0106214";
paths = (
{
closed = 1;
nodes = (
"50 60 OFFCURVE",
"112 -12 OFFCURVE",
"217 -12 CURVE SMOOTH",
"304 -12 OFFCURVE",
"387 34 OFFCURVE",
"453 99 CURVE",
"455 99 LINE",
"499 30 OFFCURVE",
"573.141 -12 OFFCURVE",
"681 -12 CURVE SMOOTH",
"791 -12 OFFCURVE",
"854 18 OFFCURVE",
"878 36 CURVE",
"837 108 LINE",
"813 95 OFFCURVE",
"752 78 OFFCURVE",
"687 78 CURVE SMOOTH",
"576.132 78 OFFCURVE",
"505 144 OFFCURVE",
"493 246 CURVE",
"883 246 LINE",
"883 277 LINE SMOOTH",
"883 460 OFFCURVE",
"800 562 OFFCURVE",
"653 562 CURVE SMOOTH",
"572.882 562 OFFCURVE",
"511 530 OFFCURVE",
"469 474 CURVE",
"467 474 LINE",
"435 536 OFFCURVE",
"373 562 OFFCURVE",
"280 562 CURVE SMOOTH",
"189 562 OFFCURVE",
"104 530 OFFCURVE",
"80 514 CURVE",
"121 442 LINE",
"149 455 OFFCURVE",
"217 472 OFFCURVE",
"268 472 CURVE SMOOTH",
"387 472 OFFCURVE",
"408 425 OFFCURVE",
"409 329 CURVE",
"383 336 OFFCURVE",
"346 342 OFFCURVE",
"293 342 CURVE SMOOTH",
"180 342 OFFCURVE",
"50 294 OFFCURVE",
"50 156 CURVE SMOOTH"
);
},
{
closed = 1;
nodes = (
"148 215 OFFCURVE",
"194 264 OFFCURVE",
"316 264 CURVE SMOOTH",
"359 264 OFFCURVE",
"387 259 OFFCURVE",
"409 251 CURVE",
"409 170 LINE",
"375 130 OFFCURVE",
"313.434 79 OFFCURVE",
"240 79 CURVE SMOOTH",
"179 79 OFFCURVE",
"148 111 OFFCURVE",
"148 160 CURVE SMOOTH"
);
},
{
closed = 1;
nodes = (
"513 417 OFFCURVE",
"569.904 472 OFFCURVE",
"653 472 CURVE SMOOTH",
"736 472 OFFCURVE",
"787 417 OFFCURVE",
"787 330 CURVE",
"497 330 LINE"
);
}
);
width = 934;
}
);
leftKerningGroup = a;
leftMetricsKey = a;
rightKerningGroup = e;
rightMetricsKey = e;
unicode = 00E6;
},
{
glyphname = b;
lastChange = "2018-01-17 11:28:10 +0000";
layers = (
{
layerId = "293088C9-8C6F-4F1A-8530-3146F0106214";
paths = (
{
closed = 1;
nodes = (
"113 6 OFFCURVE",
"185 -12 OFFCURVE",
"274 -12 CURVE SMOOTH",
"455 -12 OFFCURVE",
"560 105 OFFCURVE",
"560 276 CURVE SMOOTH",
"560 455 OFFCURVE",
"474 562 OFFCURVE",
"313 562 CURVE SMOOTH",
"249 562 OFFCURVE",
"204 540 OFFCURVE",
"182 526 CURVE",
"180 527 LINE",
"180 760 LINE",
"80 760 LINE",
"80 19 LINE"
);
},
{
closed = 1;
nodes = (
"201 453 OFFCURVE",
"237.614 472 OFFCURVE",
"299 472 CURVE SMOOTH",
"403 472 OFFCURVE",
"460 394 OFFCURVE",
"460 276 CURVE SMOOTH",
"460 162 OFFCURVE",
"394 78 OFFCURVE",
"274 78 CURVE SMOOTH",
"237.836 78 OFFCURVE",
"211 82 OFFCURVE",
"180 93 CURVE",
"180 436 LINE"
);
}
);
width = 600;
}
);
leftKerningGroup = l;
leftMetricsKey = l;
rightKerningGroup = o;
rightMetricsKey = o;
unicode = 0062;
},
{
glyphname = c;
lastChange = "2018-01-20 11:49:20 +0000";
layers = (
{
anchors = (
{
name = bottom;
position = "{287, 0}";
},
{
name = top;
position = "{297, 550}";
}
);
layerId = "293088C9-8C6F-4F1A-8530-3146F0106214";
paths = (
{
closed = 1;
nodes = (
"389 -12 OFFCURVE",
"436 2 OFFCURVE",
"481 27 CURVE",
"440 99 LINE",
"412 85 OFFCURVE",
"370 78 OFFCURVE",
"330 78 CURVE SMOOTH",
"208 78 OFFCURVE",
"140 156 OFFCURVE",
"140 274 CURVE",
"140 393 OFFCURVE",
"208 472 OFFCURVE",
"330 472 CURVE",
"373 472 OFFCURVE",
"414 465 OFFCURVE",
"442 451 CURVE",
"483 523 LINE",
"438 548 OFFCURVE",
"392 562 OFFCURVE",
"330 562 CURVE",
"148 562 OFFCURVE",
"40 447 OFFCURVE",
"40 274 CURVE",
"40 102 OFFCURVE",
"148 -12 OFFCURVE",
"330 -12 CURVE SMOOTH"
);
}
);
width = 524;
}
);
leftKerningGroup = o;
leftMetricsKey = o;
rightKerningGroup = c;
unicode = 0063;
},
{
glyphname = d;
lastChange = "2018-01-18 15:17:18 +0000";
layers = (
{
anchors = (
{
name = bottom;
position = "{298, 0}";
},
{
name = center;
position = "{425, 650}";
},
{
name = top;
position = "{298, 550}";
},
{
name = topright;
position = "{591, 550}";
}
);
layerId = "293088C9-8C6F-4F1A-8530-3146F0106214";
paths = (
{
closed = 1;
nodes = (
"140 392 OFFCURVE",
"202 472 OFFCURVE",
"313 472 CURVE SMOOTH",
"368 472 OFFCURVE",
"404 457 OFFCURVE",
"425 441 CURVE",
"425 146 LINE",
"402 115 OFFCURVE",
"358 78 OFFCURVE",
"292 78 CURVE SMOOTH",
"194 78 OFFCURVE",
"140 164 OFFCURVE",
"140 277 CURVE SMOOTH"
);
},
{
closed = 1;
nodes = (
"40 106 OFFCURVE",
"130 -12 OFFCURVE",
"264 -12 CURVE SMOOTH",
"338 -12 OFFCURVE",
"394 21 OFFCURVE",
"432 61 CURVE",
"434 61 LINE",
"434 0 LINE",
"525 0 LINE",
"525 760 LINE",
"425 760 LINE",
"425 532 LINE",
"423 531 LINE",
"401 544 OFFCURVE",
"357 562 OFFCURVE",
"297 562 CURVE SMOOTH",
"151 562 OFFCURVE",
"40 450 OFFCURVE",
"40 277 CURVE SMOOTH"
);
}
);
width = 605;
}
);
leftKerningGroup = o;
leftMetricsKey = o;
rightKerningGroup = l;
rightMetricsKey = l;
unicode = 0064;
},
{
glyphname = eth;
lastChange = "2018-01-17 11:42:50 +0000";
layers = (
{
layerId = "293088C9-8C6F-4F1A-8530-3146F0106214";
paths = (
{
closed = 1;
nodes = (
"206 78 OFFCURVE",
"140 156 OFFCURVE",
"140 264 CURVE SMOOTH",
"140 373 OFFCURVE",
"206 450 OFFCURVE",
"306 450 CURVE SMOOTH",
"405 450 OFFCURVE",
"471 373 OFFCURVE",
"471 264 CURVE SMOOTH",
"471 156 OFFCURVE",
"405 78 OFFCURVE",
"306 78 CURVE SMOOTH"
);
},
{
closed = 1;
nodes = (
"40 98 OFFCURVE",
"144 -12 OFFCURVE",
"306 -12 CURVE SMOOTH",
"467 -12 OFFCURVE",
"573 98 OFFCURVE",
"573 302 CURVE SMOOTH",
"573 445.797 OFFCURVE",
"519 581 OFFCURVE",
"405 673 CURVE",
"473 722 LINE",
"438 772 LINE",
"353 710 LINE",
"322 729 OFFCURVE",
"288.216 744.313 OFFCURVE",
"251 757 CURVE",
"214 693 LINE",
"239.007 682.805 OFFCURVE",
"262 672 OFFCURVE",
"284 660 CURVE",
"210 607 LINE",
"246 558 LINE",
"339 625 LINE",
"398 583 OFFCURVE",
"437.322 531.408 OFFCURVE",
"458 470 CURVE",
"456 469 LINE",
"418 516 OFFCURVE",
"361 540 OFFCURVE",
"296 540 CURVE SMOOTH",
"144 540 OFFCURVE",
"40 431 OFFCURVE",
"40 264 CURVE SMOOTH"
);
}
);
width = 613;
}
);
leftKerningGroup = o;
leftMetricsKey = o;
rightKerningGroup = o;
rightMetricsKey = o;
unicode = 00F0;
},
{
glyphname = dcaron;
lastChange = "2018-01-20 11:49:35 +0000";
layers = (
{
components = (
{
name = d;
}
);
layerId = "293088C9-8C6F-4F1A-8530-3146F0106214";
paths = (
{
closed = 1;
nodes = (
"666 583 LINE",
"726 750 LINE",
"622 750 LINE",
"590 583 LINE"
);
}
);
width = 716;
}
);
leftKerningGroup = o;
rightKerningGroup = l;
unicode = 010F;
},
{
glyphname = e;
lastChange = "2018-01-20 11:56:41 +0000";
layers = (
{
anchors = (
{
name = ogonek;
position = "{392, 0}";
},
{
name = top;
position = "{291, 550}";
}
);
layerId = "293088C9-8C6F-4F1A-8530-3146F0106214";
paths = (
{
closed = 1;
nodes = (
"40 106 OFFCURVE",
"133 -12 OFFCURVE",
"322 -12 CURVE SMOOTH",
"427 -12 OFFCURVE",
"492 18 OFFCURVE",
"516 36 CURVE",
"475 108 LINE",
"451 95 OFFCURVE",
"388 78 OFFCURVE",
"328 78 CURVE SMOOTH",
"209 78 OFFCURVE",
"145 145 OFFCURVE",
"136 249 CURVE",
"521 249 LINE",
"521 277 LINE SMOOTH",
"521 460 OFFCURVE",
"438 562 OFFCURVE",
"294 562 CURVE SMOOTH",
"143 562 OFFCURVE",
"40 444 OFFCURVE",
"40 274 CURVE SMOOTH"
);
},
{
closed = 1;
nodes = (
"155 417 OFFCURVE",
"212 472 OFFCURVE",
"294 472 CURVE SMOOTH",
"372.903 472 OFFCURVE",
"422.877 419.131 OFFCURVE",
"424.992 333.318 CURVE",
"140 329 LINE"
);
}
);
width = 572;
}
);
leftKerningGroup = o;
leftMetricsKey = o;
rightKerningGroup = o;
unicode = 0065;
},
{
glyphname = f;
lastChange = "2018-01-17 14:32:22 +0000";
layers = (
{
layerId = "293088C9-8C6F-4F1A-8530-3146F0106214";
paths = (
{
closed = 1;
nodes = (
"107 468 LINE",
"107 0 LINE",
"207 0 LINE",
"207 468 LINE",
"347 468 LINE",
"347 550 LINE",
"207 550 LINE",
"207 573 LINE",
"207 640 OFFCURVE",
"237 681 OFFCURVE",
"319 681 CURVE",
"362 681 OFFCURVE",
"385 671 OFFCURVE",
"394 667 CURVE",
"437 742 LINE",
"415 752 OFFCURVE",
"378 769 OFFCURVE",
"313 769 CURVE",
"189 769 OFFCURVE",
"107 683 OFFCURVE",
"107 578 CURVE",
"107 550 LINE",
"17 538 LINE",
"17 468 LINE"
);
}
);
width = 362;
}
);
leftKerningGroup = f;
rightKerningGroup = f;
unicode = 0066;
},
{
glyphname = g;
lastChange = "2018-01-20 11:50:31 +0000";
layers = (
{
anchors = (
{
name = top;
position = "{321, 550}";
}
);
layerId = "293088C9-8C6F-4F1A-8530-3146F0106214";
paths = (
{
closed = 1;
nodes = (
"40 100 OFFCURVE",
"135 -12 OFFCURVE",
"287 -12 CURVE SMOOTH",
"351 -12 OFFCURVE",
"395 10 OFFCURVE",
"418 24 CURVE",
"420 23 LINE",
"420 0 LINE SMOOTH",
"420 -77 OFFCURVE",
"381 -126 OFFCURVE",
"258 -126 CURVE SMOOTH",
"190 -126 OFFCURVE",
"125 -103 OFFCURVE",
"92 -85 CURVE",
"50 -158 LINE",
"83 -181 OFFCURVE",
"165 -214 OFFCURVE",
"272 -214 CURVE SMOOTH",
"428 -214 OFFCURVE",
"520 -131 OFFCURVE",
"520 0 CURVE SMOOTH",
"520 529 LINE",
"484 546 OFFCURVE",
"417 562 OFFCURVE",
"343 562 CURVE SMOOTH",
"154 562 OFFCURVE",
"40 450 OFFCURVE",
"40 275 CURVE SMOOTH"
);
},
{
closed = 1;
nodes = (
"140 396 OFFCURVE",
"216 477 OFFCURVE",
"349 477 CURVE SMOOTH",
"377.91 477 OFFCURVE",
"401 474 OFFCURVE",
"420 469 CURVE",
"420 113 LINE",
"398 97 OFFCURVE",
"361.72 78 OFFCURVE",
"301 78 CURVE SMOOTH",
"204 78 OFFCURVE",
"140 158 OFFCURVE",
"140 275 CURVE SMOOTH"
);
}
);
width = 600;
}
);
leftKerningGroup = o;
leftMetricsKey = o;
rightKerningGroup = l;
rightMetricsKey = l;
unicode = 0067;
},
{
glyphname = h;
lastChange = "2018-01-17 11:30:43 +0000";
layers = (
{
anchors = (
{
name = bottom;
position = "{320, 0}";
},
{
name = center;
position = "{186, 650}";
},
{
name = top;
position = "{320, 550}";
}
);
layerId = "293088C9-8C6F-4F1A-8530-3146F0106214";
paths = (
{
closed = 1;
nodes = (
"180 0 LINE",
"180 370 LINE",
"209 415 OFFCURVE",
"276 468 OFFCURVE",
"345 468 CURVE SMOOTH",
"417 468 OFFCURVE",
"450 422 OFFCURVE",
"450 330 CURVE SMOOTH",
"450 0 LINE",
"550 0 LINE",
"550 330 LINE SMOOTH",
"550 482 OFFCURVE",
"486 562 OFFCURVE",
"363 562 CURVE SMOOTH",
"282 562 OFFCURVE",
"226 517 OFFCURVE",
"182 471 CURVE SMOOTH",
"182 471 OFFCURVE",
"180 472 OFFCURVE",
"180 472 CURVE",
"180 760 LINE",
"80 760 LINE",
"80 0 LINE"
);
}
);
width = 626;
}
);
leftKerningGroup = l;
leftMetricsKey = l;
rightKerningGroup = n;
rightMetricsKey = n;
unicode = 0068;
},
{
glyphname = i;
lastChange = "2018-01-20 11:58:05 +0000";
layers = (
{
anchors = (
{
name = bottom;
position = "{132, 0}";
}
);
layerId = "293088C9-8C6F-4F1A-8530-3146F0106214";
paths = (
{
closed = 1;
nodes = (
"182 0 LINE",
"182 550 LINE",
"82 550 LINE",
"82 0 LINE"
);
},
{
closed = 1;
nodes = (
"184 760 LINE",
"80 760 LINE",
"80 649 LINE",
"184 649 LINE"
);
}
);
width = 264;
}
);
leftKerningGroup = i;
rightKerningGroup = i;
unicode = 0069;
},
{
glyphname = idotless;
lastChange = "2018-01-20 11:58:56 +0000";
layers = (
{
anchors = (
{
name = bottom;
position = "{130, 0}";
},
{
name = ogonek;
position = "{143, 0}";
},
{
name = top;
position = "{130, 550}";
}
);
layerId = "293088C9-8C6F-4F1A-8530-3146F0106214";
paths = (
{
closed = 1;
nodes = (
"180 0 LINE",
"180 550 LINE",
"80 550 LINE",
"80 0 LINE"
);
}
);
width = 260;
}
);
leftKerningGroup = i;
leftMetricsKey = i;
rightKerningGroup = i;
rightMetricsKey = i;
unicode = 0131;
},
{
glyphname = iogonek;
lastChange = "2018-01-20 11:59:29 +0000";
layers = (
{
components = (
{
name = i;
}
);
layerId = "293088C9-8C6F-4F1A-8530-3146F0106214";
paths = (
{
closed = 1;
nodes = (
"135 -119 OFFCURVE",
"111 -106 OFFCURVE",
"111 -76 CURVE SMOOTH",
"111 -46 OFFCURVE",
"139 -16 OFFCURVE",
"182 0 CURVE",
"182 12 LINE",
"99 12 LINE",
"82 0 LINE",
"52 -25 OFFCURVE",
"37 -55 OFFCURVE",
"37 -92 CURVE",
"37 -150 OFFCURVE",
"86 -184 OFFCURVE",
"134 -184 CURVE SMOOTH",
"160 -184 OFFCURVE",
"181 -179 OFFCURVE",
"205 -166 CURVE",
"172 -108 LINE"
);
}
);
width = 264;
}
);
leftKerningGroup = i;
rightKerningGroup = i;
unicode = 012F;
},
{
glyphname = j;
lastChange = "2018-01-17 14:26:45 +0000";
layers = (
{
layerId = "293088C9-8C6F-4F1A-8530-3146F0106214";
paths = (
{
closed = 1;
nodes = (
"-42 -207 OFFCURVE",
"-5 -214 OFFCURVE",
"31 -214 CURVE",
"141 -214 OFFCURVE",
"202 -150 OFFCURVE",
"202 -43 CURVE",
"202 550 LINE",
"102 550 LINE",
"102 -38 LINE",
"102 -94 OFFCURVE",
"92 -126 OFFCURVE",
"23 -126 CURVE",
"8 -126 OFFCURVE",
"-8 -124 OFFCURVE",
"-17 -122 CURVE",
"-60 -197 LINE"
);
},
{
closed = 1;
nodes = (
"204 649 LINE",
"204 760 LINE",
"100 760 LINE",
"100 649 LINE"
);
}
);
width = 284;
}
);
leftKerningGroup = j;
rightKerningGroup = i;
rightMetricsKey = i;
unicode = 006A;
},
{
glyphname = k;
lastChange = "2018-01-19 14:42:29 +0000";
layers = (
{
anchors = (
{
name = bottom;
position = "{272, 0}";
},
{
name = top;
position = "{262, 550}";
}
);
layerId = "293088C9-8C6F-4F1A-8530-3146F0106214";
paths = (
{
closed = 1;
nodes = (
"180 0 LINE",
"180 273 LINE",
"407 0 LINE",
"524 0 LINE",
"273 296 LINE",
"511 550 LINE",
"394 550 LINE",
"180 317 LINE",
"180 760 LINE",
"80 760 LINE",
"80 0 LINE"
);
}
);
width = 537;
}
);
leftKerningGroup = l;
leftMetricsKey = l;
rightKerningGroup = x;
rightMetricsKey = x;
unicode = 006B;
},
{
glyphname = l;
lastChange = "2018-01-17 14:26:14 +0000";
layers = (
{
anchors = (
{
name = bottom;
position = "{130, 0}";
},
{
name = center;
position = "{130, 405}";
},
{
name = top;
position = "{130, 760}";
},
{
name = topright;
position = "{240, 760}";
}
);
layerId = "293088C9-8C6F-4F1A-8530-3146F0106214";
paths = (
{
closed = 1;
nodes = (
"180 0 LINE",
"180 760 LINE",
"80 760 LINE",
"80 0 LINE"
);
}
);
width = 260;
}
);
leftKerningGroup = l;
unicode = 006C;
},
{
glyphname = lcaron;
lastChange = "2017-12-11 13:11:48 +0000";
layers = (
{
components = (
{
name = l;
}
);
layerId = "293088C9-8C6F-4F1A-8530-3146F0106214";
paths = (
{
closed = 1;
nodes = (
"316 583 LINE",
"376 750 LINE",
"272 750 LINE",
"240 583 LINE"
);
}
);
width = 356;
}
);
leftKerningGroup = l;
rightKerningGroup = l;
unicode = 013E;
},
{
glyphname = m;
lastChange = "2018-01-19 14:43:03 +0000";
layers = (
{
layerId = "293088C9-8C6F-4F1A-8530-3146F0106214";
paths = (
{
closed = 1;
nodes = (
"496 525 OFFCURVE",
"442.958 562 OFFCURVE",
"359 562 CURVE SMOOTH",
"275 562 OFFCURVE",
"218 514 OFFCURVE",
"175 467 CURVE",
"173 468 LINE",
"173 550 LINE",
"80 550 LINE",
"80 0 LINE",
"180 0 LINE",
"180 370 LINE",
"209 415 OFFCURVE",
"272 468 OFFCURVE",
"341 468 CURVE SMOOTH",
"413 468 OFFCURVE",
"441 422 OFFCURVE",
"441 330 CURVE SMOOTH",
"441 0 LINE",
"541 0 LINE",
"541 370 LINE",
"570 415 OFFCURVE",
"633 468 OFFCURVE",
"702 468 CURVE SMOOTH",
"774 468 OFFCURVE",
"802 422 OFFCURVE",
"802 330 CURVE SMOOTH",
"802 0 LINE",
"902 0 LINE",
"902 330 LINE SMOOTH",
"902 482 OFFCURVE",
"843 562 OFFCURVE",
"720 562 CURVE SMOOTH",
"627.678 562 OFFCURVE",
"569 504 OFFCURVE",
"524 453 CURVE",
"522 453 LINE"
);
}
);
width = 978;
}
);
leftKerningGroup = n;
leftMetricsKey = l;
rightKerningGroup = n;
rightMetricsKey = n;
unicode = 006D;
},
{
glyphname = n;
lastChange = "2018-01-20 11:51:00 +0000";
layers = (
{
anchors = (
{
name = bottom;
position = "{320, 0}";
},
{
name = top;
position = "{320, 550}";
}
);
layerId = "293088C9-8C6F-4F1A-8530-3146F0106214";
paths = (
{
closed = 1;
nodes = (
"180 0 LINE",
"180 370 LINE",
"209 415 OFFCURVE",
"276 468 OFFCURVE",
"345 468 CURVE SMOOTH",
"417 468 OFFCURVE",
"450 422 OFFCURVE",
"450 330 CURVE SMOOTH",
"450 0 LINE",
"550 0 LINE",
"550 330 LINE SMOOTH",
"550 482 OFFCURVE",
"486 562 OFFCURVE",
"363 562 CURVE SMOOTH",
"278.579 562 OFFCURVE",
"220 514 OFFCURVE",
"175 466 CURVE",
"173 467 LINE",
"173 550 LINE",
"80 550 LINE",
"80 0 LINE"
);
}
);
width = 626;
}
);
leftKerningGroup = n;
leftMetricsKey = l;
rightKerningGroup = n;
unicode = 006E;
},
{
glyphname = eng;
lastChange = "2018-01-17 11:43:50 +0000";
layers = (
{
layerId = "293088C9-8C6F-4F1A-8530-3146F0106214";
paths = (
{
closed = 1;
nodes = (
"180 0 LINE",
"180 370 LINE",
"209 415 OFFCURVE",
"276 468 OFFCURVE",
"345 468 CURVE SMOOTH",
"417 468 OFFCURVE",
"450 422 OFFCURVE",
"450 330 CURVE SMOOTH",
"450 -38 LINE SMOOTH",
"450 -94 OFFCURVE",
"440 -126 OFFCURVE",
"371 -126 CURVE SMOOTH",
"356 -126 OFFCURVE",
"340 -124 OFFCURVE",
"331 -122 CURVE",
"288 -197 LINE",
"306 -207 OFFCURVE",
"343 -214 OFFCURVE",
"379 -214 CURVE SMOOTH",
"489 -214 OFFCURVE",
"550 -150 OFFCURVE",
"550 -43 CURVE SMOOTH",
"550 330 LINE SMOOTH",
"550 482 OFFCURVE",
"486 562 OFFCURVE",
"363 562 CURVE SMOOTH",
"278.579 562 OFFCURVE",
"220 514 OFFCURVE",
"175 466 CURVE",
"173 467 LINE",
"173 550 LINE",
"80 550 LINE",
"80 0 LINE"
);
}
);
width = 626;
}
);
leftKerningGroup = n;
leftMetricsKey = n;
rightKerningGroup = n;
rightMetricsKey = n;
unicode = 014B;
},
{
glyphname = o;
lastChange = "2018-01-20 11:51:27 +0000";
layers = (
{
anchors = (
{
name = center;
position = "{310, 275}";
},
{
name = top;
position = "{305, 550}";
}
);
layerId = "293088C9-8C6F-4F1A-8530-3146F0106214";
paths = (
{
closed = 1;
nodes = (
"463 -12 OFFCURVE",
"569 103 OFFCURVE",
"569 275 CURVE SMOOTH",
"569 447 OFFCURVE",
"463 562 OFFCURVE",
"305 562 CURVE SMOOTH",
"146 562 OFFCURVE",
"40 447 OFFCURVE",
"40 275 CURVE SMOOTH",
"40 103 OFFCURVE",
"146 -12 OFFCURVE",
"305 -12 CURVE SMOOTH"
);
},
{
closed = 1;
nodes = (
"206 78 OFFCURVE",
"140 157 OFFCURVE",
"140 275 CURVE SMOOTH",
"140 393 OFFCURVE",
"206 472 OFFCURVE",
"305 472 CURVE SMOOTH",
"403 472 OFFCURVE",
"469 393 OFFCURVE",
"469 275 CURVE SMOOTH",
"469 157 OFFCURVE",
"403 78 OFFCURVE",
"305 78 CURVE SMOOTH"
);
}
);
width = 609;
}
);
leftKerningGroup = o;
rightKerningGroup = o;
unicode = 006F;
},
{
glyphname = oslash;
lastChange = "2018-01-20 11:51:41 +0000";
layers = (
{
components = (
{
name = o;
}
);
layerId = "293088C9-8C6F-4F1A-8530-3146F0106214";
paths = (
{
closed = 1;
nodes = (
"198 68 LINE",
"479 448 LINE",
"417 477 LINE",
"143 108 LINE"
);
}
);
width = 635;
}
);
leftKerningGroup = o;
rightKerningGroup = o;
unicode = 00F8;
},
{
glyphname = oe;
lastChange = "2018-01-17 11:45:19 +0000";
layers = (
{
layerId = "293088C9-8C6F-4F1A-8530-3146F0106214";
paths = (
{
closed = 1;
nodes = (
"569 31 OFFCURVE",
"645.107 -12 OFFCURVE",
"755 -12 CURVE SMOOTH",
"865 -12 OFFCURVE",
"928 18 OFFCURVE",
"952 36 CURVE",
"911 108 LINE",
"887 95 OFFCURVE",
"826 78 OFFCURVE",
"761 78 CURVE SMOOTH",
"650.132 78 OFFCURVE",
"579 144 OFFCURVE",
"567 246 CURVE",
"957 246 LINE",
"957 277 LINE SMOOTH",
"957 460 OFFCURVE",
"874 562 OFFCURVE",
"727 562 CURVE SMOOTH",
"635 562 OFFCURVE",
"566 519 OFFCURVE",
"525 448 CURVE",
"523 448 LINE",
"480 520 OFFCURVE",
"407.677 562 OFFCURVE",
"310 562 CURVE SMOOTH",
"148 562 OFFCURVE",
"40 447 OFFCURVE",
"40 275 CURVE SMOOTH",
"40 103 OFFCURVE",
"148 -12 OFFCURVE",
"310 -12 CURVE SMOOTH",
"408.239 -12 OFFCURVE",
"481 31 OFFCURVE",
"524 103 CURVE",
"526 103 LINE"
);
},
{
closed = 1;
nodes = (
"140 393 OFFCURVE",
"208 472 OFFCURVE",
"310 472 CURVE SMOOTH",
"411 472 OFFCURVE",
"479 393 OFFCURVE",
"479 275 CURVE SMOOTH",
"479 157 OFFCURVE",
"411 78 OFFCURVE",
"310 78 CURVE SMOOTH",
"208 78 OFFCURVE",
"140 157 OFFCURVE",
"140 275 CURVE SMOOTH"
);
},
{
closed = 1;
nodes = (
"587 417 OFFCURVE",
"643.904 472 OFFCURVE",
"727 472 CURVE SMOOTH",
"810 472 OFFCURVE",
"861 417 OFFCURVE",
"861 330 CURVE",
"571 330 LINE"
);
}
);
width = 1008;
}
);
leftKerningGroup = o;
leftMetricsKey = o;
rightKerningGroup = e;
rightMetricsKey = e;
unicode = 0153;
},
{
glyphname = p;
lastChange = "2018-01-18 11:08:00 +0000";
layers = (
{
layerId = "293088C9-8C6F-4F1A-8530-3146F0106214";
paths = (
{
closed = 1;
nodes = (
"180 -210 LINE",
"180 18 LINE",
"182 19 LINE",
"204 6 OFFCURVE",
"248 -12 OFFCURVE",
"308 -12 CURVE SMOOTH",
"457 -12 OFFCURVE",
"565 106 OFFCURVE",
"565 280 CURVE SMOOTH",
"565 458 OFFCURVE",
"482 562 OFFCURVE",
"341 562 CURVE SMOOTH",
"267 562 OFFCURVE",
"213 529 OFFCURVE",
"175 489 CURVE",
"173 490 LINE",
"173 550 LINE",
"80 550 LINE",
"80 -210 LINE"
);
},
{
closed = 1;
nodes = (
"180 404 LINE",
"203 435 OFFCURVE",
"247 472 OFFCURVE",
"313 472 CURVE SMOOTH",
"408 472 OFFCURVE",
"465 400 OFFCURVE",
"465 280 CURVE SMOOTH",
"465 164 OFFCURVE",
"403 78 OFFCURVE",
"292 78 CURVE SMOOTH",
"237 78 OFFCURVE",
"201 93 OFFCURVE",
"180 109 CURVE"
);
}
);
width = 605;
}
);
leftKerningGroup = n;
leftMetricsKey = l;
rightKerningGroup = o;
rightMetricsKey = o;
unicode = 0070;
},
{
glyphname = thorn;
lastChange = "2018-01-17 11:46:01 +0000";
layers = (
{
layerId = "293088C9-8C6F-4F1A-8530-3146F0106214";
paths = (
{
closed = 1;
nodes = (
"180 -210 LINE",
"180 18 LINE",
"182 19 LINE",
"203 6 OFFCURVE",
"248 -12 OFFCURVE",
"308 -12 CURVE SMOOTH",
"457 -12 OFFCURVE",
"565 106 OFFCURVE",
"565 280 CURVE SMOOTH",
"565 458 OFFCURVE",
"482 562 OFFCURVE",
"341 562 CURVE SMOOTH",
"270 562 OFFCURVE",
"220 532 OFFCURVE",
"182 494 CURVE SMOOTH",
"182 494 OFFCURVE",
"180 495 OFFCURVE",
"180 495 CURVE",
"180 760 LINE",
"80 760 LINE",
"80 -210 LINE"
);
},
{
closed = 1;
nodes = (
"180 404 LINE",
"203 435 OFFCURVE",
"247.239 472 OFFCURVE",
"313 472 CURVE SMOOTH",
"408 472 OFFCURVE",
"465 400 OFFCURVE",
"465 280 CURVE SMOOTH",
"465 164 OFFCURVE",
"403 78 OFFCURVE",
"292 78 CURVE SMOOTH",
"236.85 78 OFFCURVE",
"201 93 OFFCURVE",
"180 109 CURVE"
);
}
);
width = 605;
}
);
leftKerningGroup = l;
leftMetricsKey = p;
rightKerningGroup = o;
rightMetricsKey = p;
unicode = 00FE;
},
{
glyphname = q;
lastChange = "2018-01-17 11:35:30 +0000";
layers = (
{
layerId = "293088C9-8C6F-4F1A-8530-3146F0106214";
paths = (
{
closed = 1;
nodes = (
"40 100 OFFCURVE",
"135 -12 OFFCURVE",
"287 -12 CURVE SMOOTH",
"351 -12 OFFCURVE",
"396 10 OFFCURVE",
"418 24 CURVE",
"420 23 LINE",
"420 -210 LINE",
"520 -210 LINE",
"520 529 LINE",
"484 546 OFFCURVE",
"417 562 OFFCURVE",
"343 562 CURVE SMOOTH",
"154 562 OFFCURVE",
"40 450 OFFCURVE",
"40 275 CURVE SMOOTH"
);
},
{
closed = 1;
nodes = (
"140 396 OFFCURVE",
"216 477 OFFCURVE",
"349 477 CURVE SMOOTH",
"377.91 477 OFFCURVE",
"401 474 OFFCURVE",
"420 469 CURVE",
"420 113 LINE",
"398 97 OFFCURVE",
"361.72 78 OFFCURVE",
"301 78 CURVE SMOOTH",
"204 78 OFFCURVE",
"140 158 OFFCURVE",
"140 275 CURVE SMOOTH"
);
}
);
width = 600;
}
);
leftKerningGroup = o;
leftMetricsKey = o;
rightKerningGroup = u;
rightMetricsKey = l;
unicode = 0071;
},
{
glyphname = r;
lastChange = "2018-01-20 11:51:56 +0000";
layers = (
{
anchors = (
{
name = bottom;
position = "{130, 0}";
},
{
name = top;
position = "{235, 550}";
}
);
layerId = "293088C9-8C6F-4F1A-8530-3146F0106214";
paths = (
{
closed = 1;
nodes = (
"180 0 LINE",
"180 337 LINE SMOOTH",
"180 354 OFFCURVE",
"184 370 OFFCURVE",
"195 384 CURVE SMOOTH",
"232 430 OFFCURVE",
"298 457 OFFCURVE",
"352 457 CURVE",
"393 553 LINE",
"380 555 OFFCURVE",
"369 556 OFFCURVE",
"355 556 CURVE SMOOTH",
"269.041 556 OFFCURVE",
"215 500 OFFCURVE",
"173 448 CURVE",
"171 449 LINE",
"171 550 LINE",
"80 550 LINE",
"80 0 LINE"
);
}
);
width = 401;
}
);
leftKerningGroup = n;
leftMetricsKey = l;
rightKerningGroup = r;
unicode = 0072;
},
{
glyphname = s;
lastChange = "2018-01-20 11:52:37 +0000";
layers = (
{
anchors = (
{
name = bottom;
position = "{232, 0}";
},
{
name = top;
position = "{239, 550}";
}
);
layerId = "293088C9-8C6F-4F1A-8530-3146F0106214";
paths = (
{
closed = 1;
nodes = (
"85 7 OFFCURVE",
"160 -12 OFFCURVE",
"225 -12 CURVE",
"352 -12 OFFCURVE",
"429 46 OFFCURVE",
"429 139 CURVE",
"429 331 OFFCURVE",
"159 303 OFFCURVE",
"159 409 CURVE",
"159 445 OFFCURVE",
"185 475 OFFCURVE",
"247 475 CURVE",
"298 475 OFFCURVE",
"330 464 OFFCURVE",
"366 450 CURVE",
"409 524 LINE",
"365 547 OFFCURVE",
"301 562 OFFCURVE",
"249 562 CURVE",
"136 562 OFFCURVE",
"64 502 OFFCURVE",
"64 413 CURVE",
"64 219 OFFCURVE",
"334 254 OFFCURVE",
"334 145 CURVE",
"334 107 OFFCURVE",
"302 78 OFFCURVE",
"227 78 CURVE",
"166 78 OFFCURVE",
"122 97 OFFCURVE",
"85 114 CURVE",
"40 36 LINE"
);
}
);
width = 474;
}
);
leftKerningGroup = s;
rightKerningGroup = s;
unicode = 0073;
},
{
glyphname = germandbls;
lastChange = "2018-01-09 11:18:43 +0000";
layers = (
{
layerId = "293088C9-8C6F-4F1A-8530-3146F0106214";
paths = (
{
closed = 1;
nodes = (
"279 245 OFFCURVE",
"482 251 OFFCURVE",
"482 140 CURVE",
"482 97 OFFCURVE",
"454 78 OFFCURVE",
"404 78 CURVE",
"363 78 OFFCURVE",
"325 88 OFFCURVE",
"292 103 CURVE",
"245 26 LINE",
"282 3 OFFCURVE",
"347 -12 OFFCURVE",
"413 -12 CURVE",
"516 -12 OFFCURVE",
"577 47 OFFCURVE",
"577 136 CURVE",
"577 304 OFFCURVE",
"374 324 OFFCURVE",
"374 409 CURVE",
"374 481 OFFCURVE",
"488 512 OFFCURVE",
"488 610 CURVE",
"488 705 OFFCURVE",
"410 769 OFFCURVE",
"289 769 CURVE SMOOTH",
"164 769 OFFCURVE",
"80 693 OFFCURVE",
"80 578 CURVE SMOOTH",
"80 0 LINE",
"180 0 LINE",
"180 573 LINE SMOOTH",
"180 637 OFFCURVE",
"224 679 OFFCURVE",
"289 679 CURVE SMOOTH",
"348 679 OFFCURVE",
"388 651 OFFCURVE",
"388 610 CURVE",
"388 538 OFFCURVE",
"279 521 OFFCURVE",
"279 413 CURVE"
);
}
);
width = 622;
}
);
leftKerningGroup = l;
leftMetricsKey = l;
rightKerningGroup = s;
rightMetricsKey = s;
unicode = 00DF;
},
{
glyphname = t;
lastChange = "2018-01-20 11:59:52 +0000";
layers = (
{
anchors = (
{
name = bottom;
position = "{226, 0}";
},
{
name = center;
position = "{187, 325}";
},
{
name = top;
position = "{307, 547}";
}
);
layerId = "293088C9-8C6F-4F1A-8530-3146F0106214";
paths = (
{
closed = 1;
nodes = (
"107 468 LINE",
"107 169 LINE",
"107 57 OFFCURVE",
"152 -12 OFFCURVE",
"269 -12 CURVE",
"311 -12 OFFCURVE",
"368 -2 OFFCURVE",
"386 15 CURVE",
"344 87 LINE",
"333 81 OFFCURVE",
"304 76 OFFCURVE",
"285 76 CURVE",
"226 76 OFFCURVE",
"207 101 OFFCURVE",
"207 164 CURVE",
"207 468 LINE",
"367 468 LINE",
"367 550 LINE",
"207 550 LINE",
"207 678 LINE",
"107 678 LINE",
"107 550 LINE",
"17 538 LINE",
"17 468 LINE"
);
}
);
width = 401;
}
);
leftKerningGroup = f;
rightKerningGroup = t;
unicode = 0074;
},
{
glyphname = u;
lastChange = "2018-01-20 11:57:33 +0000";
layers = (
{
anchors = (
{
name = ogonek;
position = "{501, 0}";
},
{
name = top;
position = "{307, 550}";
},
{
name = topright;
position = "{605, 550}";
}
);
layerId = "293088C9-8C6F-4F1A-8530-3146F0106214";
paths = (
{
closed = 1;
nodes = (
"76 68 OFFCURVE",
"132 -12 OFFCURVE",
"255 -12 CURVE SMOOTH",
"339.421 -12 OFFCURVE",
"398 36 OFFCURVE",
"443 84 CURVE",
"445 83 LINE",
"445 0 LINE",
"538 0 LINE",
"538 550 LINE",
"438 550 LINE",
"438 180 LINE",
"409 135 OFFCURVE",
"342 82 OFFCURVE",
"273 82 CURVE SMOOTH",
"201 82 OFFCURVE",
"176 128 OFFCURVE",
"176 220 CURVE SMOOTH",
"176 550 LINE",
"76 550 LINE",
"76 220 LINE SMOOTH"
);
}
);
width = 618;
}
);
leftKerningGroup = u;
rightKerningGroup = u;
rightMetricsKey = l;
unicode = 0075;
},
{
glyphname = v;
lastChange = "2018-01-17 14:35:35 +0000";
layers = (
{
anchors = (
{
name = bottom;
position = "{271, 0}";
},
{
name = top;
position = "{274, 550}";
}
);
layerId = "293088C9-8C6F-4F1A-8530-3146F0106214";
paths = (
{
closed = 1;
nodes = (
"201 0 LINE",
"342 0 LINE",
"537 550 LINE",
"438 550 LINE",
"275 81 LINE",
"273 81 LINE",
"113 550 LINE",
"10 550 LINE"
);
}
);
width = 547;
}
);
leftKerningGroup = v;
rightKerningGroup = v;
unicode = 0076;
},
{
glyphname = w;
lastChange = "2018-01-18 11:02:03 +0000";
layers = (
{
anchors = (
{
name = bottom;
position = "{448, 0}";
},
{
name = top;
position = "{448, 550}";
}
);
layerId = "293088C9-8C6F-4F1A-8530-3146F0106214";
paths = (
{
closed = 1;
nodes = (
"182 0 LINE",
"319 0 LINE",
"397 251 LINE",
"430 350 OFFCURVE",
"447 450 OFFCURVE",
"447 450 CURVE",
"449 450 LINE",
"449 450 OFFCURVE",
"467 350 OFFCURVE",
"498 251 CURVE",
"576 0 LINE",
"713 0 LINE",
"889 550 LINE",
"792 550 LINE",
"648 81 LINE",
"646 81 LINE",
"505 550 LINE",
"395 550 LINE",
"254 81 LINE",
"252 81 LINE",
"111 550 LINE",
"10 550 LINE"
);
}
);
width = 899;
}
);
leftKerningGroup = v;
rightKerningGroup = v;
unicode = 0077;
},
{
glyphname = x;
lastChange = "2018-01-17 14:05:27 +0000";
layers = (
{
layerId = "293088C9-8C6F-4F1A-8530-3146F0106214";
paths = (
{
closed = 1;
nodes = (
"127 0 LINE",
"267 213 LINE",
"269 213 LINE",
"406 0 LINE",
"523 0 LINE",
"330 282 LINE",
"513 550 LINE",
"401 550 LINE",
"271 350 LINE",
"269 350 LINE",
"141 550 LINE",
"23 550 LINE",
"208 282 LINE",
"13 0 LINE"
);
}
);
width = 536;
}
);
leftKerningGroup = x;
rightKerningGroup = x;
unicode = 0078;
},
{
glyphname = y;
lastChange = "2018-01-20 11:53:58 +0000";
layers = (
{
anchors = (
{
name = top;
position = "{272, 550}";
}
);
layerId = "293088C9-8C6F-4F1A-8530-3146F0106214";
paths = (
{
closed = 1;
nodes = (
"201 0 LINE",
"245 0 LINE",
"225 -53 LINE",
"204 -101 OFFCURVE",
"184 -126 OFFCURVE",
"125 -126 CURVE SMOOTH",
"106 -126 OFFCURVE",
"87 -124 OFFCURVE",
"79 -121 CURVE",
"43 -197 LINE",
"61 -207 OFFCURVE",
"98 -214 OFFCURVE",
"134 -214 CURVE SMOOTH",
"221 -214 OFFCURVE",
"275 -175 OFFCURVE",
"306 -89 CURVE SMOOTH",
"338 0 LINE",
"533 550 LINE",
"436 550 LINE",
"273 81 LINE",
"271 81 LINE",
"111 550 LINE",
"10 550 LINE"
);
}
);
width = 543;
}
);
leftKerningGroup = v;
rightKerningGroup = v;
unicode = 0079;
},
{
glyphname = z;
lastChange = "2018-01-17 14:35:45 +0000";
layers = (
{
anchors = (
{
name = bottom;
position = "{249, 0}";
},
{
name = top;
position = "{256, 550}";
}
);
layerId = "293088C9-8C6F-4F1A-8530-3146F0106214";
paths = (
{
closed = 1;
nodes = (
"459 0 LINE",
"459 84 LINE",
"156 84 LINE",
"155 86 LINE",
"451 463 LINE",
"451 550 LINE",
"61 550 LINE",
"61 466 LINE",
"335 467 LINE",
"336 465 LINE",
"38 87 LINE",
"38 0 LINE"
);
}
);
width = 501;
}
);
leftKerningGroup = z;
rightKerningGroup = z;
unicode = 007A;
},
{
glyphname = f_b.liga;
lastChange = "2018-01-17 12:00:34 +0000";
layers = (
{
layerId = "293088C9-8C6F-4F1A-8530-3146F0106214";
paths = (
{
closed = 1;
nodes = (
"538 453 OFFCURVE",
"575 472 OFFCURVE",
"636 472 CURVE SMOOTH",
"740 472 OFFCURVE",
"797 394 OFFCURVE",
"797 276 CURVE SMOOTH",
"797 162 OFFCURVE",
"731 78 OFFCURVE",
"611 78 CURVE SMOOTH",
"575 78 OFFCURVE",
"548 82 OFFCURVE",
"517 93 CURVE",
"517 436 LINE"
);
},
{
closed = 1;
nodes = (
"107 468 LINE",
"107 0 LINE",
"207 0 LINE",
"207 468 LINE",
"347 468 LINE",
"347 550 LINE",
"207 550 LINE",
"207 573 LINE SMOOTH",
"207 640 OFFCURVE",
"237 682 OFFCURVE",
"329 682 CURVE SMOOTH",
"369.978 682 OFFCURVE",
"398 677 OFFCURVE",
"417 672 CURVE",
"417 19 LINE",
"450 6 OFFCURVE",
"522 -12 OFFCURVE",
"611 -12 CURVE SMOOTH",
"792 -12 OFFCURVE",
"897 105 OFFCURVE",
"897 276 CURVE SMOOTH",
"897 455 OFFCURVE",
"811 562 OFFCURVE",
"650 562 CURVE SMOOTH",
"586 562 OFFCURVE",
"541 540 OFFCURVE",
"519 526 CURVE",
"517 527 LINE",
"517 760 LINE",
"417 760 LINE",
"392 765 OFFCURVE",
"360.32 769 OFFCURVE",
"320 769 CURVE SMOOTH",
"189 769 OFFCURVE",
"107 683 OFFCURVE",
"107 578 CURVE SMOOTH",
"107 550 LINE",
"17 538 LINE",
"17 468 LINE"
);
}
);
width = 937;
}
);
leftKerningGroup = f;
leftMetricsKey = f;
rightKerningGroup = o;
rightMetricsKey = b;
},
{
glyphname = f_f.liga;
lastChange = "2018-01-17 12:00:39 +0000";
layers = (
{
layerId = "293088C9-8C6F-4F1A-8530-3146F0106214";
paths = (
{
closed = 1;
nodes = (
"107 468 LINE",
"107 0 LINE",
"207 0 LINE",
"207 468 LINE",
"412 468 LINE",
"412 0 LINE",
"512 0 LINE",
"512 468 LINE",
"652 468 LINE",
"652 550 LINE",
"512 550 LINE",
"512 573 LINE SMOOTH",
"512 640 OFFCURVE",
"542 681 OFFCURVE",
"624 681 CURVE SMOOTH",
"667 681 OFFCURVE",
"690 671 OFFCURVE",
"699 667 CURVE",
"742 742 LINE",
"720 752 OFFCURVE",
"683 769 OFFCURVE",
"618 769 CURVE SMOOTH",
"569.403 769 OFFCURVE",
"527 756 OFFCURVE",
"494 733 CURVE",
"471 744 OFFCURVE",
"423.279 769 OFFCURVE",
"320 769 CURVE SMOOTH",
"189 769 OFFCURVE",
"107 683 OFFCURVE",
"107 578 CURVE SMOOTH",
"107 550 LINE",
"17 538 LINE",
"17 468 LINE"
);
},
{
closed = 1;
nodes = (
"207 573 LINE SMOOTH",
"207 640 OFFCURVE",
"237 682 OFFCURVE",
"329 682 CURVE SMOOTH",
"383 682 OFFCURVE",
"414 675 OFFCURVE",
"433 668 CURVE SMOOTH",
"433 668 OFFCURVE",
"434 666 OFFCURVE",
"434 666 CURVE",
"420 639 OFFCURVE",
"412 609.963 OFFCURVE",
"412 578 CURVE SMOOTH",
"412 550 LINE",
"207 550 LINE"
);
}
);
width = 667;
}
);
leftKerningGroup = f;
leftMetricsKey = f;
rightKerningGroup = f;
rightMetricsKey = f;
},
{
glyphname = f_f_i.liga;
lastChange = "2018-01-17 12:00:45 +0000";
layers = (
{
layerId = "293088C9-8C6F-4F1A-8530-3146F0106214";
paths = (
{
closed = 1;
nodes = (
"207 573 LINE SMOOTH",
"207 640 OFFCURVE",
"237 682 OFFCURVE",
"329 682 CURVE SMOOTH",
"383 682 OFFCURVE",
"415 675 OFFCURVE",
"433 668 CURVE SMOOTH",
"433 668 OFFCURVE",
"434 666 OFFCURVE",
"434 666 CURVE",
"420 639 OFFCURVE",
"412 609.937 OFFCURVE",
"412 578 CURVE SMOOTH",
"412 550 LINE",
"207 550 LINE"
);
},
{
closed = 1;
nodes = (
"107 468 LINE",
"107 0 LINE",
"207 0 LINE",
"207 468 LINE",
"412 468 LINE",
"412 0 LINE",
"512 0 LINE",
"512 468 LINE",
"717 468 LINE",
"717 0 LINE",
"817 0 LINE",
"817 550 LINE",
"512 550 LINE",
"512 573 LINE SMOOTH",
"512 640 OFFCURVE",
"542 682 OFFCURVE",
"634 682 CURVE SMOOTH",
"724 682 OFFCURVE",
"751 660 OFFCURVE",
"760 657 CURVE",
"802 732 LINE",
"780 742 OFFCURVE",
"733 769 OFFCURVE",
"625 769 CURVE SMOOTH",
"573 769 OFFCURVE",
"529 756 OFFCURVE",
"495 733 CURVE",
"472 744 OFFCURVE",
"425 769 OFFCURVE",
"320 769 CURVE SMOOTH",
"189 769 OFFCURVE",
"107 683 OFFCURVE",
"107 578 CURVE SMOOTH",
"107 550 LINE",
"17 538 LINE",
"17 468 LINE"
);
}
);
width = 897;
}
);
leftKerningGroup = f;
leftMetricsKey = f;
rightKerningGroup = i;
rightMetricsKey = i;
},
{
glyphname = f_f_j.liga;
lastChange = "2018-01-20 15:44:24 +0000";
layers = (
{
layerId = "293088C9-8C6F-4F1A-8530-3146F0106214";
paths = (
{
closed = 1;
nodes = (
"207 573 LINE SMOOTH",
"207 640 OFFCURVE",
"237 682 OFFCURVE",
"329 682 CURVE SMOOTH",
"383 682 OFFCURVE",
"415 675 OFFCURVE",
"433 668 CURVE SMOOTH",
"433 668 OFFCURVE",
"434 666 OFFCURVE",
"434 666 CURVE",
"420 639 OFFCURVE",
"412 609.937 OFFCURVE",
"412 578 CURVE SMOOTH",
"412 550 LINE",
"207 550 LINE"
);
},
{
closed = 1;
nodes = (
"107 468 LINE",
"107 0 LINE",
"207 0 LINE",
"207 468 LINE",
"412 468 LINE",
"412 0 LINE",
"512 0 LINE",
"512 468 LINE",
"717 468 LINE",
"717 -38 LINE SMOOTH",
"717 -94 OFFCURVE",
"707 -126 OFFCURVE",
"638 -126 CURVE SMOOTH",
"623 -126 OFFCURVE",
"607 -124 OFFCURVE",
"598 -122 CURVE",
"555 -197 LINE",
"573 -207 OFFCURVE",
"610 -214 OFFCURVE",
"646 -214 CURVE SMOOTH",
"756 -214 OFFCURVE",
"817 -150 OFFCURVE",
"817 -43 CURVE SMOOTH",
"817 550 LINE",
"512 550 LINE",
"512 573 LINE SMOOTH",
"512 640 OFFCURVE",
"542 682 OFFCURVE",
"634 682 CURVE SMOOTH",
"724 682 OFFCURVE",
"751 660 OFFCURVE",
"760 657 CURVE",
"802 732 LINE",
"780 742 OFFCURVE",
"733 769 OFFCURVE",
"625 769 CURVE SMOOTH",
"573 769 OFFCURVE",
"529 756 OFFCURVE",
"495 733 CURVE",
"472 744 OFFCURVE",
"425 769 OFFCURVE",
"320 769 CURVE SMOOTH",
"189 769 OFFCURVE",
"107 683 OFFCURVE",
"107 578 CURVE SMOOTH",
"107 550 LINE",
"17 538 LINE",
"17 468 LINE"
);
}
);
width = 897;
}
);
leftMetricsKey = f;
rightMetricsKey = j;
},
{
glyphname = f_f_l.liga;
lastChange = "2018-01-20 15:48:50 +0000";
layers = (
{
layerId = "293088C9-8C6F-4F1A-8530-3146F0106214";
paths = (
{
closed = 1;
nodes = (
"107 468 LINE",
"107 0 LINE",
"207 0 LINE",
"207 468 LINE",
"412 468 LINE",
"412 0 LINE",
"512 0 LINE",
"512 468 LINE",
"652 468 LINE",
"652 550 LINE",
"512 550 LINE",
"512 573 LINE SMOOTH",
"512 640 OFFCURVE",
"542 682 OFFCURVE",
"634 682 CURVE SMOOTH",
"675 682 OFFCURVE",
"703 677 OFFCURVE",
"722 672 CURVE",
"722 0 LINE",
"822 0 LINE",
"822 760 LINE",
"722 760 LINE",
"697 765 OFFCURVE",
"665 769 OFFCURVE",
"625 769 CURVE SMOOTH",
"573 769 OFFCURVE",
"529 756 OFFCURVE",
"495 733 CURVE",
"469 745 OFFCURVE",
"421 769 OFFCURVE",
"320 769 CURVE SMOOTH",
"189 769 OFFCURVE",
"107 683 OFFCURVE",
"107 578 CURVE SMOOTH",
"107 550 LINE",
"17 538 LINE",
"17 468 LINE"
);
},
{
closed = 1;
nodes = (
"420 640 OFFCURVE",
"412 610 OFFCURVE",
"412 578 CURVE SMOOTH",
"412 550 LINE",
"207 550 LINE",
"207 573 LINE SMOOTH",
"207 640 OFFCURVE",
"237 682 OFFCURVE",
"329 682 CURVE SMOOTH",
"382 682 OFFCURVE",
"412 676 OFFCURVE",
"433 668 CURVE",
"434 666 LINE"
);
}
);
width = 902;
}
);
leftMetricsKey = f;
rightMetricsKey = l;
},
{
glyphname = f_h.liga;
lastChange = "2018-01-17 12:00:50 +0000";
layers = (
{
layerId = "293088C9-8C6F-4F1A-8530-3146F0106214";
paths = (
{
closed = 1;
nodes = (
"107 468 LINE",
"107 0 LINE",
"207 0 LINE",
"207 468 LINE",
"347 468 LINE",
"347 550 LINE",
"207 550 LINE",
"207 573 LINE SMOOTH",
"207 640 OFFCURVE",
"237 682 OFFCURVE",
"329 682 CURVE SMOOTH",
"369.978 682 OFFCURVE",
"398 677 OFFCURVE",
"417 672 CURVE",
"417 0 LINE",
"517 0 LINE",
"517 370 LINE",
"546 415 OFFCURVE",
"613 468 OFFCURVE",
"682 468 CURVE SMOOTH",
"754 468 OFFCURVE",
"787 422 OFFCURVE",
"787 330 CURVE SMOOTH",
"787 0 LINE",
"887 0 LINE",
"887 330 LINE SMOOTH",
"887 482 OFFCURVE",
"823 562 OFFCURVE",
"700 562 CURVE SMOOTH",
"619 562 OFFCURVE",
"563 517 OFFCURVE",
"519 471 CURVE",
"517 472 LINE",
"517 760 LINE",
"417 760 LINE",
"392 765 OFFCURVE",
"360.32 769 OFFCURVE",
"320 769 CURVE SMOOTH",
"189 769 OFFCURVE",
"107 683 OFFCURVE",
"107 578 CURVE SMOOTH",
"107 550 LINE",
"17 538 LINE",
"17 468 LINE"
);
}
);
width = 963;
}
);
leftKerningGroup = f;
leftMetricsKey = f;
rightKerningGroup = n;
rightMetricsKey = h;
},
{
glyphname = f_j.liga;
lastChange = "2018-01-17 12:00:55 +0000";
layers = (
{
layerId = "293088C9-8C6F-4F1A-8530-3146F0106214";
paths = (
{
closed = 1;
nodes = (
"107 468 LINE",
"107 0 LINE",
"207 0 LINE",
"207 468 LINE",
"412 468 LINE",
"412 -38 LINE SMOOTH",
"412 -94 OFFCURVE",
"402 -126 OFFCURVE",
"333 -126 CURVE SMOOTH",
"318 -126 OFFCURVE",
"302 -124 OFFCURVE",
"293 -122 CURVE",
"250 -197 LINE",
"268 -207 OFFCURVE",
"305 -214 OFFCURVE",
"341 -214 CURVE SMOOTH",
"451 -214 OFFCURVE",
"512 -150 OFFCURVE",
"512 -43 CURVE SMOOTH",
"512 550 LINE",
"207 550 LINE",
"207 573 LINE SMOOTH",
"207 640 OFFCURVE",
"237 682 OFFCURVE",
"329 682 CURVE SMOOTH",
"419 682 OFFCURVE",
"446 660 OFFCURVE",
"455 657 CURVE",
"497 732 LINE",
"475 742 OFFCURVE",
"428 769 OFFCURVE",
"320 769 CURVE SMOOTH",
"189 769 OFFCURVE",
"107 683 OFFCURVE",
"107 578 CURVE SMOOTH",
"107 550 LINE",
"17 538 LINE",
"17 468 LINE"
);
}
);
width = 592;
}
);
leftKerningGroup = f;
leftMetricsKey = f;
rightKerningGroup = i;
rightMetricsKey = j;
},
{
glyphname = f_k.liga;
lastChange = "2018-01-17 12:00:59 +0000";
layers = (
{
layerId = "293088C9-8C6F-4F1A-8530-3146F0106214";
paths = (
{
closed = 1;
nodes = (
"107 468 LINE",
"107 0 LINE",
"207 0 LINE",
"207 468 LINE",
"347 468 LINE",
"347 550 LINE",
"207 550 LINE",
"207 573 LINE SMOOTH",
"207 640 OFFCURVE",
"237 682 OFFCURVE",
"329 682 CURVE SMOOTH",
"369.978 682 OFFCURVE",
"398 677 OFFCURVE",
"417 672 CURVE",
"417 0 LINE",
"517 0 LINE",
"517 268 LINE",
"744 0 LINE",
"861 0 LINE",
"610 296 LINE",
"848 550 LINE",
"731 550 LINE",
"517 322 LINE",
"517 760 LINE",
"417 760 LINE",
"392 765 OFFCURVE",
"360.32 769 OFFCURVE",
"320 769 CURVE SMOOTH",
"189 769 OFFCURVE",
"107 683 OFFCURVE",
"107 578 CURVE SMOOTH",
"107 550 LINE",
"17 538 LINE",
"17 468 LINE"
);
}
);
width = 874;
}
);
leftKerningGroup = f;
leftMetricsKey = f;
rightKerningGroup = x;
rightMetricsKey = k;
},
{
glyphname = fi.liga;
lastChange = "2018-01-17 12:01:02 +0000";
layers = (
{
anchors = (
{
name = bottom;
position = "{511, 0}";
}
);
layerId = "293088C9-8C6F-4F1A-8530-3146F0106214";
paths = (
{
closed = 1;
nodes = (
"107 468 LINE",
"107 0 LINE",
"207 0 LINE",
"207 468 LINE",
"412 468 LINE",
"412 0 LINE",
"512 0 LINE",
"512 550 LINE",
"207 550 LINE",
"207 573 LINE SMOOTH",
"207 640 OFFCURVE",
"237 682 OFFCURVE",
"329 682 CURVE SMOOTH",
"419 682 OFFCURVE",
"446 660 OFFCURVE",
"455 657 CURVE",
"497 732 LINE",
"475 742 OFFCURVE",
"428 769 OFFCURVE",
"320 769 CURVE SMOOTH",
"189 769 OFFCURVE",
"107 683 OFFCURVE",
"107 578 CURVE SMOOTH",
"107 550 LINE",
"17 538 LINE",
"17 468 LINE"
);
}
);
width = 592;
}
);
leftKerningGroup = f;
leftMetricsKey = f;
rightKerningGroup = i;
rightMetricsKey = i;
},
{
glyphname = fl.liga;
lastChange = "2018-01-17 12:01:06 +0000";
layers = (
{
layerId = "293088C9-8C6F-4F1A-8530-3146F0106214";
paths = (
{
closed = 1;
nodes = (
"107 468 LINE",
"107 0 LINE",
"207 0 LINE",
"207 468 LINE",
"347 468 LINE",
"347 550 LINE",
"207 550 LINE",
"207 573 LINE SMOOTH",
"207 640 OFFCURVE",
"237 682 OFFCURVE",
"329 682 CURVE SMOOTH",
"369.978 682 OFFCURVE",
"398 677 OFFCURVE",
"417 672 CURVE",
"417 0 LINE",
"517 0 LINE",
"517 760 LINE",
"417 760 LINE",
"392 765 OFFCURVE",
"360.32 769 OFFCURVE",
"320 769 CURVE SMOOTH",
"189 769 OFFCURVE",
"107 683 OFFCURVE",
"107 578 CURVE SMOOTH",
"107 550 LINE",
"17 538 LINE",
"17 468 LINE"
);
}
);
width = 597;
}
);
leftKerningGroup = f;
leftMetricsKey = f;
rightKerningGroup = l;
rightMetricsKey = l;
},
{
glyphname = t_t.liga;
lastChange = "2018-01-17 13:08:54 +0000";
layers = (
{
layerId = "293088C9-8C6F-4F1A-8530-3146F0106214";
paths = (
{
closed = 1;
nodes = (
"107 468 LINE",
"107 169 LINE SMOOTH",
"107 57 OFFCURVE",
"152 -12 OFFCURVE",
"269 -12 CURVE SMOOTH",
"311 -12 OFFCURVE",
"368 -2 OFFCURVE",
"386 15 CURVE",
"344 87 LINE",
"333 81 OFFCURVE",
"304 76 OFFCURVE",
"285 76 CURVE SMOOTH",
"226 76 OFFCURVE",
"207 101 OFFCURVE",
"207 164 CURVE SMOOTH",
"207 468 LINE",
"457 468 LINE",
"457 169 LINE SMOOTH",
"457 57 OFFCURVE",
"502 -12 OFFCURVE",
"619 -12 CURVE SMOOTH",
"661 -12 OFFCURVE",
"718 -2 OFFCURVE",
"736 15 CURVE",
"694 87 LINE",
"683 81 OFFCURVE",
"654 76 OFFCURVE",
"635 76 CURVE SMOOTH",
"576 76 OFFCURVE",
"557 101 OFFCURVE",
"557 164 CURVE SMOOTH",
"557 468 LINE",
"717 468 LINE",
"717 550 LINE",
"557 550 LINE",
"557 678 LINE",
"457 678 LINE",
"457 550 LINE",
"207 550 LINE",
"207 678 LINE",
"107 678 LINE",
"107 550 LINE",
"17 538 LINE",
"17 468 LINE"
);
}
);
width = 751;
}
);
leftMetricsKey = t;
rightMetricsKey = t;
},
{
glyphname = zero;
lastChange = "2018-01-17 15:05:48 +0000";
layers = (
{
layerId = "293088C9-8C6F-4F1A-8530-3146F0106214";
paths = (
{
closed = 1;
nodes = (
"475 -12 OFFCURVE",
"572 122 OFFCURVE",
"572 350 CURVE SMOOTH",
"572 578 OFFCURVE",
"475 712 OFFCURVE",
"311 712 CURVE SMOOTH",
"147 712 OFFCURVE",
"50 578 OFFCURVE",
"50 350 CURVE SMOOTH",
"50 122 OFFCURVE",
"147 -12 OFFCURVE",
"311 -12 CURVE SMOOTH"
);
},
{
closed = 1;
nodes = (
"211 83 OFFCURVE",
"152 182 OFFCURVE",
"152 350 CURVE SMOOTH",
"152 518 OFFCURVE",
"211 617 OFFCURVE",
"311 617 CURVE",
"411 617 OFFCURVE",
"470 518 OFFCURVE",
"470 350 CURVE SMOOTH",
"470 182 OFFCURVE",
"411 83 OFFCURVE",
"311 83 CURVE SMOOTH"
);
}
);
width = 622;
}
);
leftKerningGroup = zero;
rightKerningGroup = zero;
unicode = 0030;
},
{
glyphname = one;
lastChange = "2018-01-17 15:04:30 +0000";
layers = (
{
layerId = "293088C9-8C6F-4F1A-8530-3146F0106214";
paths = (
{
closed = 1;
nodes = (
"50 530 LINE",
"165 603 LINE",
"167 602 LINE",
"167 0 LINE",
"266 0 LINE",
"266 700 LINE",
"173 700 LINE",
"10 601 LINE"
);
}
);
width = 366;
}
);
leftKerningGroup = one;
unicode = 0031;
},
{
glyphname = two;
lastChange = "2018-01-17 15:01:27 +0000";
layers = (
{
layerId = "293088C9-8C6F-4F1A-8530-3146F0106214";
paths = (
{
closed = 1;
nodes = (
"42 95 LINE",
"245 304 OFFCURVE",
"363 409 OFFCURVE",
"363 518 CURVE SMOOTH",
"363 582 OFFCURVE",
"320 615 OFFCURVE",
"249 615 CURVE SMOOTH",
"196 615 OFFCURVE",
"151 605 OFFCURVE",
"97 578 CURVE",
"49 661 LINE",
"108 694 OFFCURVE",
"173 712 OFFCURVE",
"246 712 CURVE SMOOTH",
"387 712 OFFCURVE",
"467 652 OFFCURVE",
"467 523 CURVE SMOOTH",
"467 394 OFFCURVE",
"365 294 OFFCURVE",
"168 95 CURVE",
"169 93 LINE",
"473 93 LINE",
"473 0 LINE",
"42 0 LINE"
);
}
);
width = 530;
}
);
leftKerningGroup = two;
unicode = 0032;
},
{
glyphname = three;
lastChange = "2018-01-17 15:01:31 +0000";
layers = (
{
layerId = "293088C9-8C6F-4F1A-8530-3146F0106214";
paths = (
{
closed = 1;
nodes = (
"66 110 LINE",
"113 93 OFFCURVE",
"167 83 OFFCURVE",
"222 83 CURVE SMOOTH",
"317 83 OFFCURVE",
"370 123 OFFCURVE",
"370 189 CURVE SMOOTH",
"370 265 OFFCURVE",
"279 308 OFFCURVE",
"115 308 CURVE",
"115 396 LINE",
"266 396 OFFCURVE",
"352 441 OFFCURVE",
"352 519 CURVE SMOOTH",
"352 580 OFFCURVE",
"308 617 OFFCURVE",
"231 617 CURVE SMOOTH",
"184 617 OFFCURVE",
"132 607 OFFCURVE",
"85 590 CURVE",
"38 671 LINE",
"100 697 OFFCURVE",
"168 712 OFFCURVE",
"229 712 CURVE SMOOTH",
"374 712 OFFCURVE",
"454 647 OFFCURVE",
"454 531 CURVE SMOOTH",
"454 450 OFFCURVE",
"398 381 OFFCURVE",
"312 359 CURVE",
"312 357 LINE",
"410 342 OFFCURVE",
"474 270 OFFCURVE",
"474 177 CURVE SMOOTH",
"474 55 OFFCURVE",
"384 -12 OFFCURVE",
"219 -12 CURVE SMOOTH",
"144 -12 OFFCURVE",
"73 3 OFFCURVE",
"19 29 CURVE"
);
}
);
width = 528;
}
);
leftKerningGroup = three;
rightKerningGroup = three;
unicode = 0033;
},
{
glyphname = four;
lastChange = "2018-01-17 14:58:52 +0000";
layers = (
{
layerId = "293088C9-8C6F-4F1A-8530-3146F0106214";
paths = (
{
closed = 1;
nodes = (
"333 155 LINE",
"333 0 LINE",
"430 0 LINE",
"430 155 LINE",
"525 155 LINE",
"525 240 LINE",
"430 240 LINE",
"430 700 LINE",
"301 699 LINE",
"20 243 LINE",
"20 155 LINE"
);
},
{
closed = 1;
nodes = (
"331 596 LINE",
"333 595 LINE",
"333 240 LINE",
"113 240 LINE",
"112 242 LINE"
);
}
);
width = 560;
}
);
leftKerningGroup = four;
rightKerningGroup = four;
unicode = 0034;
},
{
glyphname = five;
lastChange = "2018-01-17 12:15:19 +0000";
layers = (
{
layerId = "293088C9-8C6F-4F1A-8530-3146F0106214";
paths = (
{
closed = 1;
nodes = (
"95 108 LINE",
"137 93 OFFCURVE",
"191 85 OFFCURVE",
"236 85 CURVE SMOOTH",
"333 85 OFFCURVE",
"391 131 OFFCURVE",
"391 210 CURVE SMOOTH",
"391 290 OFFCURVE",
"331 337 OFFCURVE",
"202 337 CURVE SMOOTH",
"181 337 OFFCURVE",
"134 336 OFFCURVE",
"88 332 CURVE",
"88 700 LINE",
"453 700 LINE",
"453 607 LINE",
"183 607 LINE",
"183 423 LINE",
"236 423 LINE SMOOTH",
"399 423 OFFCURVE",
"495 344 OFFCURVE",
"495 210 CURVE SMOOTH",
"495 70 OFFCURVE",
"400 -12 OFFCURVE",
"238 -12 CURVE SMOOTH",
"165 -12 OFFCURVE",
"93 2 OFFCURVE",
"50 27 CURVE"
);
}
);
width = 545;
}
);
leftKerningGroup = five;
unicode = 0035;
},
{
glyphname = six;
lastChange = "2018-01-17 14:58:59 +0000";
layers = (
{
layerId = "293088C9-8C6F-4F1A-8530-3146F0106214";
paths = (
{
closed = 1;
nodes = (
"198 518 OFFCURVE",
"292.428 597.822 OFFCURVE",
"429 634 CURVE",
"383 713 LINE",
"169 656 OFFCURVE",
"42 470 OFFCURVE",
"42 254 CURVE SMOOTH",
"42 89 OFFCURVE",
"137 -12 OFFCURVE",
"275 -12 CURVE SMOOTH",
"414 -12 OFFCURVE",
"509 80 OFFCURVE",
"509 217 CURVE SMOOTH",
"509 354 OFFCURVE",
"420 443 OFFCURVE",
"290 443 CURVE SMOOTH",
"240.665 443 OFFCURVE",
"193 425 OFFCURVE",
"156 398 CURVE",
"154 399 LINE"
);
},
{
closed = 1;
nodes = (
"139 299 OFFCURVE",
"193 354 OFFCURVE",
"275 354 CURVE SMOOTH",
"357 354 OFFCURVE",
"411 299 OFFCURVE",
"411 217 CURVE SMOOTH",
"411 135 OFFCURVE",
"357 81 OFFCURVE",
"275 81 CURVE SMOOTH",
"193 81 OFFCURVE",
"139 135 OFFCURVE",
"139 217 CURVE SMOOTH"
);
}
);
width = 551;
}
);
leftKerningGroup = six;
rightKerningGroup = six;
unicode = 0036;
},
{
glyphname = seven;
lastChange = "2018-01-17 15:04:42 +0000";
layers = (
{
layerId = "293088C9-8C6F-4F1A-8530-3146F0106214";
paths = (
{
closed = 1;
nodes = (
"335 607 LINE",
"336 605 LINE",
"80 37 LINE",
"167 -13 LINE",
"443 608 LINE",
"443 700 LINE",
"20 700 LINE",
"20 607 LINE"
);
}
);
width = 473;
}
);
leftKerningGroup = seven;
rightKerningGroup = seven;
unicode = 0037;
},
{
glyphname = eight;
lastChange = "2018-01-17 14:54:37 +0000";
layers = (
{
layerId = "293088C9-8C6F-4F1A-8530-3146F0106214";
paths = (
{
closed = 1;
nodes = (
"464 334 OFFCURVE",
"518 275 OFFCURVE",
"518 187 CURVE SMOOTH",
"518 69 OFFCURVE",
"425 -12 OFFCURVE",
"286 -12 CURVE SMOOTH",
"144 -12 OFFCURVE",
"50 69 OFFCURVE",
"50 187 CURVE SMOOTH",
"50 275 OFFCURVE",
"101 334 OFFCURVE",
"173 368 CURVE",
"173 370 LINE",
"111 404 OFFCURVE",
"69 454 OFFCURVE",
"69 531 CURVE SMOOTH",
"69 640 OFFCURVE",
"156 712 OFFCURVE",
"286 712 CURVE SMOOTH",
"414 712 OFFCURVE",
"499 640 OFFCURVE",
"499 531 CURVE SMOOTH",
"499 454 OFFCURVE",
"457 404 OFFCURVE",
"395 370 CURVE",
"395 368 LINE"
);
},
{
closed = 1;
nodes = (
"148 125 OFFCURVE",
"202 79 OFFCURVE",
"284 80 CURVE SMOOTH",
"366 81 OFFCURVE",
"420 127 OFFCURVE",
"420 192 CURVE SMOOTH",
"420 260.607 OFFCURVE",
"366 316 OFFCURVE",
"258 328 CURVE",
"184 301 OFFCURVE",
"148 247.614 OFFCURVE",
"148 192 CURVE SMOOTH"
);
},
{
closed = 1;
nodes = (
"165 460 OFFCURVE",
"212.188 413.862 OFFCURVE",
"304.93 403.57 CURVE",
"369.991 426.726 OFFCURVE",
"403 473 OFFCURVE",
"403 526 CURVE SMOOTH",
"403 584 OFFCURVE",
"355 622 OFFCURVE",
"284 622 CURVE SMOOTH",
"213 622 OFFCURVE",
"165 584 OFFCURVE",
"165 526 CURVE SMOOTH"
);
}
);
width = 568;
}
);
leftKerningGroup = eight;
unicode = 0038;
},
{
glyphname = nine;
lastChange = "2018-01-17 15:01:48 +0000";
layers = (
{
layerId = "293088C9-8C6F-4F1A-8530-3146F0106214";
paths = (
{
closed = 1;
nodes = (
"412 401 OFFCURVE",
"358 343 OFFCURVE",
"276 343 CURVE",
"194 343 OFFCURVE",
"140 401 OFFCURVE",
"140 483 CURVE",
"140 565 OFFCURVE",
"194 622 OFFCURVE",
"276 622 CURVE",
"358 622 OFFCURVE",
"412 565 OFFCURVE",
"412 483 CURVE"
);
},
{
closed = 1;
nodes = (
"343 184 OFFCURVE",
"257.052 119.663 OFFCURVE",
"122 66 CURVE",
"168 -13 LINE",
"382 64 OFFCURVE",
"506 230 OFFCURVE",
"506 459 CURVE SMOOTH",
"506 611 OFFCURVE",
"414 712 OFFCURVE",
"276 712 CURVE SMOOTH",
"137 712 OFFCURVE",
"45 620 OFFCURVE",
"45 483 CURVE SMOOTH",
"45 346 OFFCURVE",
"131 254 OFFCURVE",
"261 254 CURVE SMOOTH",
"308.574 254 OFFCURVE",
"355 273 OFFCURVE",
"391 299 CURVE",
"393 298 LINE"
);
}
);
width = 551;
}
);
leftKerningGroup = nine;
rightKerningGroup = nine;
unicode = 0039;
},
{
glyphname = zero.tf;
lastChange = "2018-01-15 20:05:14 +0000";
layers = (
{
layerId = "293088C9-8C6F-4F1A-8530-3146F0106214";
paths = (
{
closed = 1;
nodes = (
"424 -12 OFFCURVE",
"507 117 OFFCURVE",
"507 350 CURVE SMOOTH",
"507 583 OFFCURVE",
"424 712 OFFCURVE",
"275 712 CURVE SMOOTH",
"126 712 OFFCURVE",
"43 583 OFFCURVE",
"43 350 CURVE SMOOTH",
"43 117 OFFCURVE",
"126 -12 OFFCURVE",
"275 -12 CURVE SMOOTH"
);
},
{
closed = 1;
nodes = (
"188 81 OFFCURVE",
"139 177 OFFCURVE",
"139 350 CURVE SMOOTH",
"139 523 OFFCURVE",
"188 619 OFFCURVE",
"275 619 CURVE",
"362 619 OFFCURVE",
"411 523 OFFCURVE",
"411 350 CURVE SMOOTH",
"411 177 OFFCURVE",
"362 81 OFFCURVE",
"275 81 CURVE SMOOTH"
);
}
);
width = 550;
}
);
},
{
glyphname = one.tf;
lastChange = "2018-01-17 12:18:14 +0000";
layers = (
{
layerId = "293088C9-8C6F-4F1A-8530-3146F0106214";
paths = (
{
closed = 1;
nodes = (
"102 517 LINE",
"235 599 LINE",
"237 598 LINE",
"237 91 LINE",
"80 91 LINE",
"80 0 LINE",
"481 0 LINE",
"481 91 LINE",
"336 91 LINE",
"336 700 LINE",
"243 700 LINE",
"60 591 LINE"
);
}
);
width = 550;
}
);
},
{
glyphname = two.tf;
lastChange = "2018-01-17 12:18:34 +0000";
layers = (
{
layerId = "293088C9-8C6F-4F1A-8530-3146F0106214";
paths = (
{
closed = 1;
nodes = (
"47 95 LINE",
"250 304 OFFCURVE",
"378 409 OFFCURVE",
"378 518 CURVE SMOOTH",
"378 582 OFFCURVE",
"325 615 OFFCURVE",
"254 615 CURVE SMOOTH",
"201 615 OFFCURVE",
"156 605 OFFCURVE",
"102 578 CURVE",
"54 661 LINE",
"113 694 OFFCURVE",
"178 712 OFFCURVE",
"251 712 CURVE SMOOTH",
"392 712 OFFCURVE",
"482 652 OFFCURVE",
"482 523 CURVE SMOOTH",
"482 394 OFFCURVE",
"370 294 OFFCURVE",
"173 95 CURVE",
"174 93 LINE",
"488 93 LINE",
"488 0 LINE",
"47 0 LINE"
);
}
);
width = 550;
}
);
},
{
glyphname = three.tf;
lastChange = "2018-01-15 20:05:31 +0000";
layers = (
{
layerId = "293088C9-8C6F-4F1A-8530-3146F0106214";
paths = (
{
closed = 1;
nodes = (
"75 110 LINE",
"122 93 OFFCURVE",
"176 83 OFFCURVE",
"231 83 CURVE SMOOTH",
"326 83 OFFCURVE",
"389 123 OFFCURVE",
"389 189 CURVE SMOOTH",
"389 265 OFFCURVE",
"288 308 OFFCURVE",
"124 308 CURVE",
"124 396 LINE",
"275 396 OFFCURVE",
"371 441 OFFCURVE",
"371 519 CURVE SMOOTH",
"371 580 OFFCURVE",
"317 617 OFFCURVE",
"240 617 CURVE SMOOTH",
"193 617 OFFCURVE",
"141 607 OFFCURVE",
"94 590 CURVE",
"47 671 LINE",
"109 697 OFFCURVE",
"177 712 OFFCURVE",
"238 712 CURVE SMOOTH",
"383 712 OFFCURVE",
"473 647 OFFCURVE",
"473 531 CURVE SMOOTH",
"473 450 OFFCURVE",
"407 381 OFFCURVE",
"321 359 CURVE",
"321 357 LINE",
"419 342 OFFCURVE",
"493 270 OFFCURVE",
"493 177 CURVE SMOOTH",
"493 55 OFFCURVE",
"393 -12 OFFCURVE",
"228 -12 CURVE SMOOTH",
"153 -12 OFFCURVE",
"82 3 OFFCURVE",
"28 29 CURVE"
);
}
);
width = 550;
}
);
},
{
glyphname = four.tf;
lastChange = "2018-01-17 12:19:58 +0000";
layers = (
{
layerId = "293088C9-8C6F-4F1A-8530-3146F0106214";
paths = (
{
closed = 1;
nodes = (
"327 155 LINE",
"327 0 LINE",
"422 0 LINE",
"422 155 LINE",
"517 155 LINE",
"517 240 LINE",
"422 240 LINE",
"422 700 LINE",
"288 699 LINE",
"16 243 LINE",
"16 155 LINE"
);
},
{
closed = 1;
nodes = (
"325 599 LINE",
"327 598 LINE",
"327 240 LINE",
"109 240 LINE",
"108 242 LINE"
);
}
);
width = 550;
}
);
},
{
glyphname = five.tf;
lastChange = "2018-01-17 12:20:11 +0000";
layers = (
{
layerId = "293088C9-8C6F-4F1A-8530-3146F0106214";
paths = (
{
closed = 1;
nodes = (
"95 108 LINE",
"137 93 OFFCURVE",
"191 85 OFFCURVE",
"236 85 CURVE SMOOTH",
"333 85 OFFCURVE",
"396 126 OFFCURVE",
"396 210 CURVE SMOOTH",
"396 295 OFFCURVE",
"331 337 OFFCURVE",
"202 337 CURVE SMOOTH",
"181 337 OFFCURVE",
"134 336 OFFCURVE",
"88 332 CURVE",
"88 700 LINE",
"458 700 LINE",
"458 607 LINE",
"183 607 LINE",
"183 423 LINE",
"236 423 LINE SMOOTH",
"399 423 OFFCURVE",
"500 349 OFFCURVE",
"500 210 CURVE SMOOTH",
"500 65 OFFCURVE",
"400 -12 OFFCURVE",
"238 -12 CURVE SMOOTH",
"165 -12 OFFCURVE",
"93 2 OFFCURVE",
"50 27 CURVE"
);
}
);
width = 550;
}
);
},
{
glyphname = six.tf;
lastChange = "2018-01-17 12:20:33 +0000";
layers = (
{
layerId = "293088C9-8C6F-4F1A-8530-3146F0106214";
paths = (
{
closed = 1;
nodes = (
"139 299 OFFCURVE",
"193 354 OFFCURVE",
"275 354 CURVE",
"357 354 OFFCURVE",
"410 299 OFFCURVE",
"410 217 CURVE",
"410 135 OFFCURVE",
"357 81 OFFCURVE",
"275 81 CURVE",
"193 81 OFFCURVE",
"139 135 OFFCURVE",
"139 217 CURVE"
);
},
{
closed = 1;
nodes = (
"199 518 OFFCURVE",
"292.428 597.822 OFFCURVE",
"429 634 CURVE",
"383 713 LINE",
"169 656 OFFCURVE",
"42 470 OFFCURVE",
"42 254 CURVE SMOOTH",
"42 89 OFFCURVE",
"137 -12 OFFCURVE",
"275 -12 CURVE SMOOTH",
"414 -12 OFFCURVE",
"508 80 OFFCURVE",
"508 217 CURVE SMOOTH",
"508 354 OFFCURVE",
"420 443 OFFCURVE",
"290 443 CURVE SMOOTH",
"240.665 443 OFFCURVE",
"194 425 OFFCURVE",
"157 398 CURVE",
"155 399 LINE"
);
}
);
width = 550;
}
);
},
{
glyphname = seven.tf;
lastChange = "2018-01-17 12:21:04 +0000";
layers = (
{
layerId = "293088C9-8C6F-4F1A-8530-3146F0106214";
paths = (
{
closed = 1;
nodes = (
"380 607 LINE",
"381 605 LINE",
"100 37 LINE",
"187 -13 LINE",
"490 608 LINE",
"490 700 LINE",
"40 700 LINE",
"40 607 LINE"
);
}
);
width = 550;
}
);
},
{
glyphname = eight.tf;
lastChange = "2018-01-17 12:22:03 +0000";
layers = (
{
layerId = "293088C9-8C6F-4F1A-8530-3146F0106214";
paths = (
{
closed = 1;
nodes = (
"455 334 OFFCURVE",
"500 275 OFFCURVE",
"500 187 CURVE SMOOTH",
"500 72 OFFCURVE",
"416 -12 OFFCURVE",
"277 -12 CURVE SMOOTH",
"135 -12 OFFCURVE",
"50 72 OFFCURVE",
"50 187 CURVE SMOOTH",
"50 275 OFFCURVE",
"92 334 OFFCURVE",
"164 368 CURVE",
"164 370 LINE",
"102 404 OFFCURVE",
"69 454 OFFCURVE",
"69 531 CURVE SMOOTH",
"69 635 OFFCURVE",
"147 712 OFFCURVE",
"277 712 CURVE SMOOTH",
"405 712 OFFCURVE",
"481 635 OFFCURVE",
"481 531 CURVE SMOOTH",
"481 454 OFFCURVE",
"448 404 OFFCURVE",
"386 370 CURVE",
"386 368 LINE"
);
},
{
closed = 1;
nodes = (
"147 128 OFFCURVE",
"193 78 OFFCURVE",
"275 79 CURVE SMOOTH",
"357 80 OFFCURVE",
"403 130 OFFCURVE",
"403 192 CURVE SMOOTH",
"403 261 OFFCURVE",
"357 316 OFFCURVE",
"249 328 CURVE",
"175 301 OFFCURVE",
"147 248 OFFCURVE",
"147 192 CURVE SMOOTH"
);
},
{
closed = 1;
nodes = (
"164 460 OFFCURVE",
"203 414 OFFCURVE",
"296 404 CURVE",
"361 427 OFFCURVE",
"386 473 OFFCURVE",
"386 526 CURVE SMOOTH",
"386 579 OFFCURVE",
"346 623 OFFCURVE",
"275 623 CURVE SMOOTH",
"204 623 OFFCURVE",
"164 579 OFFCURVE",
"164 526 CURVE SMOOTH"
);
}
);
width = 550;
}
);
},
{
glyphname = nine.tf;
lastChange = "2018-01-17 12:22:32 +0000";
layers = (
{
layerId = "293088C9-8C6F-4F1A-8530-3146F0106214";
paths = (
{
closed = 1;
nodes = (
"411 401 OFFCURVE",
"357 343 OFFCURVE",
"275 343 CURVE",
"193 343 OFFCURVE",
"140 401 OFFCURVE",
"140 483 CURVE",
"140 565 OFFCURVE",
"193 622 OFFCURVE",
"275 622 CURVE",
"357 622 OFFCURVE",
"411 565 OFFCURVE",
"411 483 CURVE"
);
},
{
closed = 1;
nodes = (
"342 184 OFFCURVE",
"256.052 119.663 OFFCURVE",
"121 66 CURVE",
"167 -13 LINE",
"381 64 OFFCURVE",
"505 230 OFFCURVE",
"505 459 CURVE SMOOTH",
"505 611 OFFCURVE",
"413 712 OFFCURVE",
"275 712 CURVE SMOOTH",
"136 712 OFFCURVE",
"45 620 OFFCURVE",
"45 483 CURVE SMOOTH",
"45 346 OFFCURVE",
"130 254 OFFCURVE",
"260 254 CURVE SMOOTH",
"307.574 254 OFFCURVE",
"354 273 OFFCURVE",
"390 299 CURVE",
"392 298 LINE"
);
}
);
width = 550;
}
);
},
{
glyphname = asterisk;
lastChange = "2018-01-19 10:11:09 +0000";
layers = (
{
background = {
paths = (
{
closed = 1;
nodes = (
"152 567 LINE",
"39 442 LINE",
"120 412 LINE",
"196 530 LINE",
"289 396 LINE",
"342 463 LINE",
"240 567 LINE",
"396 600 LINE",
"351 673 LINE",
"224 616 LINE",
"239 775 LINE",
"159 752 LINE",
"168 616 LINE",
"25 678 LINE",
"20 594 LINE"
);
}
);
};
layerId = "293088C9-8C6F-4F1A-8530-3146F0106214";
paths = (
{
closed = 1;
nodes = (
"152 567 LINE",
"42 445 LINE",
"115 405 LINE",
"196 530 LINE",
"286 400 LINE",
"348 458 LINE",
"240 567 LINE",
"392 599 LINE",
"356 675 LINE",
"224 616 LINE",
"240 771 LINE",
"157 761 LINE",
"168 616 LINE",
"29 676 LINE",
"13 596 LINE"
);
}
);
width = 416;
}
);
leftKerningGroup = quote;
rightKerningGroup = quote;
unicode = 002A;
},
{
glyphname = backslash;
lastChange = "2018-01-13 10:39:38 +0000";
layers = (
{
layerId = "293088C9-8C6F-4F1A-8530-3146F0106214";
paths = (
{
closed = 1;
nodes = (
"131 773 LINE",
"50 726 LINE",
"301 -81 LINE",
"382 -33 LINE"
);
}
);
width = 432;
}
);
leftKerningGroup = backslash;
rightKerningGroup = backslash;
unicode = 005C;
},
{
glyphname = periodcentered;
lastChange = "2018-01-13 10:15:42 +0000";
layers = (
{
layerId = "293088C9-8C6F-4F1A-8530-3146F0106214";
paths = (
{
closed = 1;
nodes = (
"80 214 LINE",
"199 214 LINE",
"199 337 LINE",
"80 337 LINE"
);
}
);
width = 279;
}
);
leftKerningGroup = hyphen;
leftMetricsKey = period;
rightKerningGroup = hyphen;
rightMetricsKey = period;
unicode = 00B7;
},
{
glyphname = bullet;
lastChange = "2017-12-29 14:21:34 +0000";
layers = (
{
layerId = "293088C9-8C6F-4F1A-8530-3146F0106214";
paths = (
{
closed = 1;
nodes = (
"227 181 OFFCURVE",
"269 223 OFFCURVE",
"269 276 CURVE SMOOTH",
"269 328 OFFCURVE",
"227 370 OFFCURVE",
"175 370 CURVE SMOOTH",
"122 370 OFFCURVE",
"80 328 OFFCURVE",
"80 276 CURVE SMOOTH",
"80 223 OFFCURVE",
"122 181 OFFCURVE",
"175 181 CURVE SMOOTH"
);
}
);
width = 349;
}
);
leftKerningGroup = hyphen;
leftMetricsKey = period;
rightKerningGroup = hyphen;
rightMetricsKey = period;
unicode = 2022;
},
{
glyphname = colon;
lastChange = "2018-01-17 14:20:07 +0000";
layers = (
{
layerId = "293088C9-8C6F-4F1A-8530-3146F0106214";
paths = (
{
closed = 1;
nodes = (
"80 0 LINE",
"199 0 LINE",
"199 123 LINE",
"80 123 LINE"
);
},
{
closed = 1;
nodes = (
"80 427 LINE",
"199 427 LINE",
"199 550 LINE",
"80 550 LINE"
);
}
);
width = 279;
}
);
leftKerningGroup = colon;
leftMetricsKey = period;
rightKerningGroup = colon;
rightMetricsKey = period;
unicode = 003A;
},
{
glyphname = comma;
lastChange = "2018-01-13 10:15:53 +0000";
layers = (
{
layerId = "293088C9-8C6F-4F1A-8530-3146F0106214";
paths = (
{
closed = 1;
nodes = (
"159 -108 LINE",
"242 123 LINE",
"134 123 LINE",
"80 -108 LINE"
);
}
);
width = 322;
}
);
leftKerningGroup = period;
leftMetricsKey = period;
rightKerningGroup = period;
rightMetricsKey = period;
unicode = 002C;
},
{
glyphname = ellipsis;
lastChange = "2018-01-13 10:15:54 +0000";
layers = (
{
layerId = "293088C9-8C6F-4F1A-8530-3146F0106214";
paths = (
{
closed = 1;
nodes = (
"80 0 LINE",
"199 0 LINE",
"199 123 LINE",
"80 123 LINE"
);
},
{
closed = 1;
nodes = (
"308 0 LINE",
"427 0 LINE",
"427 123 LINE",
"308 123 LINE"
);
},
{
closed = 1;
nodes = (
"536 0 LINE",
"655 0 LINE",
"655 123 LINE",
"536 123 LINE"
);
}
);
width = 735;
}
);
leftKerningGroup = period;
leftMetricsKey = period;
rightKerningGroup = period;
rightMetricsKey = period;
unicode = 2026;
},
{
glyphname = exclam;
lastChange = "2018-01-13 10:12:32 +0000";
layers = (
{
layerId = "293088C9-8C6F-4F1A-8530-3146F0106214";
paths = (
{
closed = 1;
nodes = (
"201 225 LINE",
"215 700 LINE",
"100 700 LINE",
"114 225 LINE"
);
},
{
closed = 1;
nodes = (
"102 0 LINE",
"213 0 LINE",
"213 116 LINE",
"102 116 LINE"
);
}
);
width = 315;
}
);
leftKerningGroup = l;
rightKerningGroup = l;
unicode = 0021;
},
{
glyphname = exclamdown;
lastChange = "2018-01-13 10:16:25 +0000";
layers = (
{
layerId = "293088C9-8C6F-4F1A-8530-3146F0106214";
paths = (
{
closed = 1;
nodes = (
"100 -150 LINE",
"215 -150 LINE",
"201 325 LINE",
"114 325 LINE"
);
},
{
closed = 1;
nodes = (
"213 434 LINE",
"213 550 LINE",
"102 550 LINE",
"102 434 LINE"
);
}
);
width = 315;
}
);
rightKerningGroup = exclamdown;
unicode = 00A1;
},
{
glyphname = numbersign;
lastChange = "2018-01-17 13:59:03 +0000";
layers = (
{
layerId = "293088C9-8C6F-4F1A-8530-3146F0106214";
paths = (
{
closed = 1;
nodes = (
"165 175 LINE",
"155 0 LINE",
"244 0 LINE",
"254 175 LINE",
"388 175 LINE",
"378 0 LINE",
"466 0 LINE",
"476 175 LINE",
"580 175 LINE",
"580 255 LINE",
"480 255 LINE",
"491 450 LINE",
"600 450 LINE",
"600 530 LINE",
"496 530 LINE",
"505 700 LINE",
"416 700 LINE",
"407 530 LINE",
"273 530 LINE",
"282 700 LINE",
"194 700 LINE",
"185 530 LINE",
"80 530 LINE",
"80 450 LINE",
"180 450 LINE",
"169 255 LINE",
"60 255 LINE",
"60 175 LINE"
);
},
{
closed = 1;
nodes = (
"268 450 LINE",
"402 450 LINE",
"392 255 LINE",
"258 255 LINE"
);
}
);
width = 670;
}
);
leftKerningGroup = numbersign;
rightKerningGroup = numbersign;
unicode = 0023;
},
{
glyphname = period;
lastChange = "2018-01-17 13:56:04 +0000";
layers = (
{
layerId = "293088C9-8C6F-4F1A-8530-3146F0106214";
paths = (
{
closed = 1;
nodes = (
"80 0 LINE",
"199 0 LINE",
"199 123 LINE",
"80 123 LINE"
);
}
);
width = 279;
}
);
leftKerningGroup = period;
rightKerningGroup = period;
unicode = 002E;
},
{
glyphname = question;
lastChange = "2018-01-13 10:24:32 +0000";
layers = (
{
layerId = "293088C9-8C6F-4F1A-8530-3146F0106214";
paths = (
{
closed = 1;
nodes = (
"82 685 OFFCURVE",
"138 712 OFFCURVE",
"224 712 CURVE",
"352 712 OFFCURVE",
"435 648 OFFCURVE",
"435 550 CURVE",
"435 384 OFFCURVE",
"192 367 OFFCURVE",
"256 198 CURVE",
"171 198 LINE",
"109 398 OFFCURVE",
"333 439 OFFCURVE",
"333 550 CURVE",
"333 594 OFFCURVE",
"289 622 OFFCURVE",
"227 622 CURVE",
"157 622 OFFCURVE",
"120 601 OFFCURVE",
"79 581 CURVE",
"35 660 LINE"
);
},
{
closed = 1;
nodes = (
"269 0 LINE",
"269 116 LINE",
"157 116 LINE",
"157 0 LINE"
);
}
);
width = 485;
}
);
leftKerningGroup = question;
unicode = 003F;
},
{
glyphname = questiondown;
lastChange = "2018-01-17 13:59:51 +0000";
layers = (
{
layerId = "293088C9-8C6F-4F1A-8530-3146F0106214";
paths = (
{
closed = 1;
nodes = (
"403 -135 OFFCURVE",
"347 -162 OFFCURVE",
"261 -162 CURVE",
"133 -162 OFFCURVE",
"50 -98 OFFCURVE",
"50 0 CURVE",
"50 166 OFFCURVE",
"293 183 OFFCURVE",
"229 352 CURVE",
"314 352 LINE",
"376 152 OFFCURVE",
"152 111 OFFCURVE",
"152 0 CURVE",
"152 -44 OFFCURVE",
"196 -72 OFFCURVE",
"258 -72 CURVE",
"328 -72 OFFCURVE",
"365 -51 OFFCURVE",
"406 -31 CURVE",
"450 -110 LINE"
);
},
{
closed = 1;
nodes = (
"216 550 LINE",
"216 434 LINE",
"328 434 LINE",
"328 550 LINE"
);
}
);
width = 460;
}
);
rightKerningGroup = questiondown;
unicode = 00BF;
},
{
glyphname = quotedbl;
lastChange = "2018-01-17 13:44:38 +0000";
layers = (
{
layerId = "293088C9-8C6F-4F1A-8530-3146F0106214";
paths = (
{
closed = 1;
nodes = (
"51 531 LINE",
"130 531 LINE",
"142 750 LINE",
"40 750 LINE"
);
},
{
closed = 1;
nodes = (
"226 531 LINE",
"305 531 LINE",
"317 750 LINE",
"215 750 LINE"
);
}
);
width = 357;
}
);
leftKerningGroup = quote;
leftMetricsKey = quotesingle;
rightKerningGroup = quote;
rightMetricsKey = quotesingle;
unicode = 0022;
},
{
glyphname = quotesingle;
lastChange = "2018-01-17 14:58:18 +0000";
layers = (
{
layerId = "293088C9-8C6F-4F1A-8530-3146F0106214";
paths = (
{
closed = 1;
nodes = (
"51 531 LINE",
"130 531 LINE",
"142 750 LINE",
"40 750 LINE"
);
}
);
width = 182;
}
);
leftKerningGroup = quote;
rightKerningGroup = quote;
unicode = 0027;
},
{
glyphname = semicolon;
lastChange = "2018-01-17 14:20:32 +0000";
layers = (
{
layerId = "293088C9-8C6F-4F1A-8530-3146F0106214";
paths = (
{
closed = 1;
nodes = (
"159 -108 LINE",
"242 123 LINE",
"134 123 LINE",
"80 -108 LINE"
);
},
{
closed = 1;
nodes = (
"129 427 LINE",
"248 427 LINE",
"248 550 LINE",
"129 550 LINE"
);
}
);
width = 328;
}
);
leftKerningGroup = colon;
leftMetricsKey = colon;
rightKerningGroup = colon;
rightMetricsKey = colon;
unicode = 003B;
},
{
glyphname = slash;
lastChange = "2018-01-13 10:39:47 +0000";
layers = (
{
layerId = "293088C9-8C6F-4F1A-8530-3146F0106214";
paths = (
{
closed = 1;
nodes = (
"131 -81 LINE",
"382 726 LINE",
"301 773 LINE",
"50 -33 LINE"
);
}
);
width = 432;
}
);
leftKerningGroup = slash;
rightKerningGroup = slash;
unicode = 002F;
},
{
glyphname = underscore;
lastChange = "2018-01-13 10:38:12 +0000";
layers = (
{
layerId = "293088C9-8C6F-4F1A-8530-3146F0106214";
paths = (
{
closed = 1;
nodes = (
"80 -127 LINE",
"534 -127 LINE",
"534 -37 LINE",
"80 -37 LINE"
);
}
);
width = 614;
}
);
leftKerningGroup = period;
leftMetricsKey = period;
rightKerningGroup = period;
rightMetricsKey = period;
unicode = 005F;
},
{
glyphname = braceleft;
lastChange = "2018-01-13 10:27:01 +0000";
layers = (
{
layerId = "293088C9-8C6F-4F1A-8530-3146F0106214";
paths = (
{
closed = 1;
nodes = (
"107 265 OFFCURVE",
"131 229 OFFCURVE",
"124 172 CURVE SMOOTH",
"110 54 LINE SMOOTH",
"98 -67 OFFCURVE",
"157 -140 OFFCURVE",
"279 -140 CURVE SMOOTH",
"324 -140 LINE",
"324 -53 LINE",
"279 -53 LINE SMOOTH",
"217 -53 OFFCURVE",
"192 -22 OFFCURVE",
"200 54 CURVE SMOOTH",
"216 205 LINE SMOOTH",
"223 266 OFFCURVE",
"181 300 OFFCURVE",
"138 302 CURVE",
"138 308 LINE",
"182 308 OFFCURVE",
"223 342 OFFCURVE",
"216 405 CURVE SMOOTH",
"200 556 LINE SMOOTH",
"192 632 OFFCURVE",
"217 663 OFFCURVE",
"279 663 CURVE SMOOTH",
"324 663 LINE",
"324 750 LINE",
"279 750 LINE SMOOTH",
"157 750 OFFCURVE",
"98 677 OFFCURVE",
"110 556 CURVE SMOOTH",
"124 438 LINE SMOOTH",
"130 381 OFFCURVE",
"106 345 OFFCURVE",
"60 345 CURVE",
"60 265 LINE"
);
}
);
width = 354;
}
);
rightKerningGroup = paren;
unicode = 007B;
},
{
glyphname = braceright;
lastChange = "2018-01-13 10:26:56 +0000";
layers = (
{
layerId = "293088C9-8C6F-4F1A-8530-3146F0106214";
paths = (
{
closed = 1;
nodes = (
"294 345 LINE",
"248 345 OFFCURVE",
"224 381 OFFCURVE",
"230 438 CURVE SMOOTH",
"244 556 LINE SMOOTH",
"256 677 OFFCURVE",
"197 750 OFFCURVE",
"75 750 CURVE SMOOTH",
"30 750 LINE",
"30 663 LINE",
"75 663 LINE SMOOTH",
"137 663 OFFCURVE",
"162 632 OFFCURVE",
"154 556 CURVE SMOOTH",
"138 405 LINE SMOOTH",
"131 342 OFFCURVE",
"172 308 OFFCURVE",
"216 308 CURVE",
"216 302 LINE",
"173 300 OFFCURVE",
"131 266 OFFCURVE",
"138 205 CURVE SMOOTH",
"154 54 LINE SMOOTH",
"162 -22 OFFCURVE",
"137 -53 OFFCURVE",
"75 -53 CURVE SMOOTH",
"30 -53 LINE",
"30 -140 LINE",
"75 -140 LINE SMOOTH",
"197 -140 OFFCURVE",
"256 -67 OFFCURVE",
"244 54 CURVE SMOOTH",
"230 172 LINE SMOOTH",
"223 229 OFFCURVE",
"247 265 OFFCURVE",
"294 265 CURVE"
);
}
);
width = 354;
}
);
leftKerningGroup = paren;
unicode = 007D;
},
{
glyphname = bracketleft;
lastChange = "2018-01-13 10:26:46 +0000";
layers = (
{
layerId = "293088C9-8C6F-4F1A-8530-3146F0106214";
paths = (
{
closed = 1;
nodes = (
"318 -53 LINE",
"175 -53 LINE",
"175 663 LINE",
"318 663 LINE",
"318 750 LINE",
"80 750 LINE",
"80 -140 LINE",
"318 -140 LINE"
);
}
);
width = 348;
}
);
rightKerningGroup = paren;
unicode = 005B;
},
{
glyphname = bracketright;
lastChange = "2018-01-13 10:27:25 +0000";
layers = (
{
layerId = "293088C9-8C6F-4F1A-8530-3146F0106214";
paths = (
{
closed = 1;
nodes = (
"268 -140 LINE",
"268 750 LINE",
"30 750 LINE",
"30 663 LINE",
"173 663 LINE",
"173 -53 LINE",
"30 -53 LINE",
"30 -140 LINE"
);
}
);
width = 348;
}
);
leftKerningGroup = paren;
unicode = 005D;
},
{
glyphname = parenleft;
lastChange = "2018-01-13 10:30:00 +0000";
layers = (
{
layerId = "293088C9-8C6F-4F1A-8530-3146F0106214";
paths = (
{
closed = 1;
nodes = (
"50 100 OFFCURVE",
"131 -63 OFFCURVE",
"276 -151 CURVE",
"319 -75 LINE",
"213 -3 OFFCURVE",
"148 135 OFFCURVE",
"148 305 CURVE SMOOTH",
"148 475 OFFCURVE",
"213 613 OFFCURVE",
"319 685 CURVE",
"276 761 LINE",
"131 673 OFFCURVE",
"50 510 OFFCURVE",
"50 305 CURVE SMOOTH"
);
}
);
width = 343;
}
);
rightKerningGroup = paren;
unicode = 0028;
},
{
glyphname = parenright;
lastChange = "2018-01-17 14:55:20 +0000";
layers = (
{
layerId = "293088C9-8C6F-4F1A-8530-3146F0106214";
paths = (
{
closed = 1;
nodes = (
"293 510 OFFCURVE",
"212 673 OFFCURVE",
"67 761 CURVE",
"24 685 LINE",
"130 613 OFFCURVE",
"195 475 OFFCURVE",
"195 305 CURVE SMOOTH",
"195 135 OFFCURVE",
"130 -3 OFFCURVE",
"24 -75 CURVE",
"67 -151 LINE",
"212 -63 OFFCURVE",
"293 100 OFFCURVE",
"293 305 CURVE SMOOTH"
);
}
);
width = 343;
}
);
leftKerningGroup = paren;
unicode = 0029;
},
{
glyphname = emdash;
lastChange = "2018-01-13 10:37:22 +0000";
layers = (
{
layerId = "293088C9-8C6F-4F1A-8530-3146F0106214";
paths = (
{
closed = 1;
nodes = (
"40 234 LINE",
"900 234 LINE",
"900 319 LINE",
"40 319 LINE"
);
}
);
width = 940;
}
);
leftKerningGroup = hyphen;
leftMetricsKey = hyphen;
rightKerningGroup = hyphen;
rightMetricsKey = hyphen;
unicode = 2014;
},
{
glyphname = endash;
lastChange = "2018-01-13 10:37:36 +0000";
layers = (
{
layerId = "293088C9-8C6F-4F1A-8530-3146F0106214";
paths = (
{
closed = 1;
nodes = (
"40 234 LINE",
"470 234 LINE",
"470 319 LINE",
"40 319 LINE"
);
}
);
width = 510;
}
);
leftKerningGroup = hyphen;
leftMetricsKey = hyphen;
rightKerningGroup = hyphen;
rightMetricsKey = hyphen;
unicode = 2013;
},
{
glyphname = hyphen;
lastChange = "2018-01-17 14:09:29 +0000";
layers = (
{
layerId = "293088C9-8C6F-4F1A-8530-3146F0106214";
paths = (
{
closed = 1;
nodes = (
"40 231 LINE",
"360 231 LINE",
"360 321 LINE",
"40 321 LINE"
);
}
);
width = 400;
}
);
leftKerningGroup = hyphen;
rightKerningGroup = hyphen;
unicode = 002D;
},
{
glyphname = guillemetleft;
lastChange = "2018-01-17 14:36:46 +0000";
layers = (
{
layerId = "293088C9-8C6F-4F1A-8530-3146F0106214";
paths = (
{
closed = 1;
nodes = (
"439 31 LINE",
"524 80 LINE",
"376 275 LINE",
"524 470 LINE",
"439 519 LINE",
"263 275 LINE"
);
},
{
closed = 1;
nodes = (
"206 21 LINE",
"291 70 LINE",
"143 275 LINE",
"291 480 LINE",
"206 529 LINE",
"30 275 LINE"
);
}
);
width = 564;
}
);
rightKerningGroup = guillemet;
unicode = 00AB;
},
{
glyphname = guillemetright;
lastChange = "2018-01-17 14:36:43 +0000";
layers = (
{
layerId = "293088C9-8C6F-4F1A-8530-3146F0106214";
paths = (
{
closed = 1;
nodes = (
"125 519 LINE",
"40 470 LINE",
"188 275 LINE",
"40 80 LINE",
"125 31 LINE",
"301 275 LINE"
);
},
{
closed = 1;
nodes = (
"358 529 LINE",
"273 480 LINE",
"421 275 LINE",
"273 70 LINE",
"358 21 LINE",
"534 275 LINE"
);
}
);
width = 564;
}
);
leftKerningGroup = guillemet;
unicode = 00BB;
},
{
glyphname = guilsinglleft;
lastChange = "2018-01-17 14:34:07 +0000";
layers = (
{
layerId = "293088C9-8C6F-4F1A-8530-3146F0106214";
paths = (
{
closed = 1;
nodes = (
"206 21 LINE",
"291 70 LINE",
"143 275 LINE",
"291 480 LINE",
"206 529 LINE",
"30 275 LINE"
);
}
);
width = 331;
}
);
rightKerningGroup = guillemet;
unicode = 2039;
},
{
glyphname = guilsinglright;
lastChange = "2018-01-17 14:36:29 +0000";
layers = (
{
layerId = "293088C9-8C6F-4F1A-8530-3146F0106214";
paths = (
{
closed = 1;
nodes = (
"125 529 LINE",
"40 480 LINE",
"188 275 LINE",
"40 70 LINE",
"125 21 LINE",
"301 275 LINE"
);
}
);
width = 331;
}
);
leftKerningGroup = guillemet;
unicode = 203A;
},
{
glyphname = quotedblleft;
lastChange = "2018-01-17 13:44:11 +0000";
layers = (
{
layerId = "293088C9-8C6F-4F1A-8530-3146F0106214";
paths = (
{
closed = 1;
nodes = (
"130 750 LINE",
"47 519 LINE",
"155 519 LINE",
"209 750 LINE"
);
},
{
closed = 1;
nodes = (
"315 750 LINE",
"232 519 LINE",
"340 519 LINE",
"394 750 LINE"
);
}
);
width = 427;
}
);
leftKerningGroup = quote;
leftMetricsKey = quoteright;
rightKerningGroup = quote;
rightMetricsKey = quoteright;
unicode = 201C;
},
{
glyphname = quotedblright;
lastChange = "2018-01-17 13:44:14 +0000";
layers = (
{
layerId = "293088C9-8C6F-4F1A-8530-3146F0106214";
paths = (
{
closed = 1;
nodes = (
"311 518 LINE",
"394 749 LINE",
"286 749 LINE",
"232 518 LINE"
);
},
{
closed = 1;
nodes = (
"126 518 LINE",
"209 749 LINE",
"101 749 LINE",
"47 518 LINE"
);
}
);
width = 427;
}
);
leftKerningGroup = quote;
leftMetricsKey = quoteright;
rightKerningGroup = quote;
rightMetricsKey = quoteright;
unicode = 201D;
},
{
glyphname = quoteleft;
lastChange = "2018-01-17 13:43:49 +0000";
layers = (
{
layerId = "293088C9-8C6F-4F1A-8530-3146F0106214";
paths = (
{
closed = 1;
nodes = (
"130 750 LINE",
"47 519 LINE",
"155 519 LINE",
"209 750 LINE"
);
}
);
width = 242;
}
);
leftKerningGroup = quote;
leftMetricsKey = quoteright;
rightKerningGroup = quote;
rightMetricsKey = quoteright;
unicode = 2018;
},
{
glyphname = quoteright;
lastChange = "2018-01-17 13:43:20 +0000";
layers = (
{
layerId = "293088C9-8C6F-4F1A-8530-3146F0106214";
paths = (
{
closed = 1;
nodes = (
"126 519 LINE",
"209 750 LINE",
"101 750 LINE",
"47 519 LINE"
);
}
);
width = 242;
}
);
leftKerningGroup = quote;
rightKerningGroup = quote;
unicode = 2019;
},
{
glyphname = cent;
lastChange = "2018-01-17 15:06:39 +0000";
layers = (
{
layerId = "293088C9-8C6F-4F1A-8530-3146F0106214";
paths = (
{
closed = 1;
nodes = (
"53 226 OFFCURVE",
"136 124 OFFCURVE",
"267 98 CURVE",
"265 0 LINE",
"355 0 LINE",
"353 92 LINE",
"422 96 OFFCURVE",
"471 116 OFFCURVE",
"493 129 CURVE",
"452 202 LINE",
"428 192 OFFCURVE",
"382 183 OFFCURVE",
"334 183 CURVE",
"225 183 OFFCURVE",
"155 260 OFFCURVE",
"155 370 CURVE",
"155 480 OFFCURVE",
"227 558 OFFCURVE",
"334 558 CURVE",
"383 558 OFFCURVE",
"428 548 OFFCURVE",
"452 538 CURVE",
"493 612 LINE",
"473 623 OFFCURVE",
"425 644 OFFCURVE",
"360 648 CURVE",
"362 740 LINE",
"273 740 LINE",
"275 644 LINE",
"139 621 OFFCURVE",
"53 517 OFFCURVE",
"53 370 CURVE"
);
}
);
width = 550;
}
);
unicode = 00A2;
},
{
glyphname = currency;
lastChange = "2018-01-17 13:16:34 +0000";
layers = (
{
layerId = "293088C9-8C6F-4F1A-8530-3146F0106214";
paths = (
{
closed = 1;
nodes = (
"89 87 LINE",
"165 165 LINE",
"195 149 OFFCURVE",
"230 140 OFFCURVE",
"271 140 CURVE SMOOTH",
"314 140 OFFCURVE",
"351 150 OFFCURVE",
"382 168 CURVE",
"461 87 LINE",
"526 152 LINE",
"443 232 LINE",
"462 265 OFFCURVE",
"472 305 OFFCURVE",
"472 352 CURVE SMOOTH",
"472 399 OFFCURVE",
"462 439 OFFCURVE",
"443 472 CURVE",
"526 552 LINE",
"461 617 LINE",
"382 536 LINE",
"351 554 OFFCURVE",
"314 564 OFFCURVE",
"271 564 CURVE SMOOTH",
"230 564 OFFCURVE",
"195 555 OFFCURVE",
"165 539 CURVE",
"89 617 LINE",
"24 552 LINE",
"101 477 LINE",
"81 443 OFFCURVE",
"70 401 OFFCURVE",
"70 352 CURVE SMOOTH",
"70 303 OFFCURVE",
"81 261 OFFCURVE",
"101 227 CURVE",
"24 152 LINE"
);
},
{
closed = 1;
nodes = (
"152 436 OFFCURVE",
"201 488 OFFCURVE",
"271 488 CURVE SMOOTH",
"344 488 OFFCURVE",
"390 436 OFFCURVE",
"390 352 CURVE SMOOTH",
"390 268 OFFCURVE",
"344 216 OFFCURVE",
"271 216 CURVE SMOOTH",
"198 216 OFFCURVE",
"152 268 OFFCURVE",
"152 352 CURVE SMOOTH"
);
}
);
width = 550;
}
);
unicode = 00A4;
},
{
glyphname = dollar;
lastChange = "2018-01-17 13:16:43 +0000";
layers = (
{
layerId = "293088C9-8C6F-4F1A-8530-3146F0106214";
paths = (
{
closed = 1;
nodes = (
"95 8 OFFCURVE",
"161 -9 OFFCURVE",
"232 -12 CURVE",
"230 -107 LINE",
"322 -107 LINE",
"320 -7 LINE",
"431 11 OFFCURVE",
"497 78 OFFCURVE",
"497 188 CURVE SMOOTH",
"497 406 OFFCURVE",
"172 390 OFFCURVE",
"172 531 CURVE SMOOTH",
"172 583 OFFCURVE",
"214 622 OFFCURVE",
"290 622 CURVE SMOOTH",
"340 622 OFFCURVE",
"382 614 OFFCURVE",
"428 596 CURVE",
"473 673 LINE",
"434 694 OFFCURVE",
"380 707 OFFCURVE",
"325 711 CURVE",
"327 807 LINE",
"235 807 LINE",
"237 708 LINE",
"133 690 OFFCURVE",
"70 623 OFFCURVE",
"70 529 CURVE SMOOTH",
"70 312 OFFCURVE",
"395 328 OFFCURVE",
"395 178 CURVE SMOOTH",
"395 118 OFFCURVE",
"345 80 OFFCURVE",
"258 80 CURVE SMOOTH",
"204 80 OFFCURVE",
"144 94 OFFCURVE",
"101 115 CURVE",
"54 34 LINE"
);
}
);
width = 550;
}
);
unicode = 0024;
},
{
glyphname = euro;
lastChange = "2018-01-17 13:16:50 +0000";
layers = (
{
layerId = "293088C9-8C6F-4F1A-8530-3146F0106214";
paths = (
{
closed = 1;
nodes = (
"103 243 LINE",
"131 78 OFFCURVE",
"230 -12 OFFCURVE",
"386 -12 CURVE SMOOTH",
"442 -12 OFFCURVE",
"493 -2 OFFCURVE",
"531 15 CURVE",
"488 89 LINE",
"465 83 OFFCURVE",
"426 79 OFFCURVE",
"384 79 CURVE SMOOTH",
"289 79 OFFCURVE",
"226 138 OFFCURVE",
"202 243 CURVE",
"451 243 LINE",
"451 312 LINE",
"192 312 LINE",
"191 324 OFFCURVE",
"191 337 OFFCURVE",
"191 350 CURVE SMOOTH",
"191 365 OFFCURVE",
"192 379 OFFCURVE",
"193 393 CURVE",
"451 393 LINE",
"451 462 LINE",
"203 462 LINE",
"228 564 OFFCURVE",
"290 621 OFFCURVE",
"384 621 CURVE SMOOTH",
"420 621 OFFCURVE",
"459 616 OFFCURVE",
"488 606 CURVE",
"531 680 LINE",
"494 701 OFFCURVE",
"442 712 OFFCURVE",
"386 712 CURVE SMOOTH",
"232 712 OFFCURVE",
"134 625 OFFCURVE",
"104 462 CURVE",
"20 462 LINE",
"20 393 LINE",
"95 393 LINE",
"95 379 OFFCURVE",
"94 365 OFFCURVE",
"94 350 CURVE SMOOTH",
"94 337 OFFCURVE",
"94 324 OFFCURVE",
"95 312 CURVE",
"20 312 LINE",
"20 243 LINE"
);
}
);
width = 550;
}
);
unicode = 20AC;
},
{
glyphname = sterling;
lastChange = "2018-01-17 13:17:34 +0000";
layers = (
{
layerId = "293088C9-8C6F-4F1A-8530-3146F0106214";
paths = (
{
closed = 1;
nodes = (
"131 321 LINE",
"131 248 LINE SMOOTH",
"131 174 OFFCURVE",
"109 122 OFFCURVE",
"59 93 CURVE",
"59 0 LINE",
"506 0 LINE",
"506 93 LINE",
"165 93 LINE",
"165 93 OFFCURVE",
"164 95 OFFCURVE",
"164 95 CURVE SMOOTH",
"205 122 OFFCURVE",
"230 178 OFFCURVE",
"230 246 CURVE SMOOTH",
"230 321 LINE",
"423 321 LINE",
"423 400 LINE",
"230 400 LINE",
"230 511 LINE SMOOTH",
"230 576 OFFCURVE",
"275 620 OFFCURVE",
"351 620 CURVE SMOOTH",
"395 620 OFFCURVE",
"442 611 OFFCURVE",
"481 593 CURVE",
"524 671 LINE",
"470 698 OFFCURVE",
"412 712 OFFCURVE",
"353 712 CURVE SMOOTH",
"214 712 OFFCURVE",
"131 642 OFFCURVE",
"131 523 CURVE SMOOTH",
"131 400 LINE",
"51 400 LINE",
"51 321 LINE"
);
}
);
width = 550;
}
);
unicode = 00A3;
},
{
glyphname = yen;
lastChange = "2018-01-17 13:19:03 +0000";
layers = (
{
layerId = "293088C9-8C6F-4F1A-8530-3146F0106214";
paths = (
{
closed = 1;
nodes = (
"193 324 LINE",
"192 322 LINE",
"78 322 LINE",
"78 251 LINE",
"224 251 LINE",
"224 187 LINE",
"78 187 LINE",
"78 116 LINE",
"224 116 LINE",
"224 0 LINE",
"325 0 LINE",
"325 116 LINE",
"475 116 LINE",
"475 187 LINE",
"325 187 LINE",
"325 251 LINE",
"475 251 LINE",
"475 322 LINE",
"358 322 LINE",
"357 324 LINE",
"545 700 LINE",
"441 700 LINE",
"278 357 LINE",
"277 357 LINE",
"112 700 LINE",
"5 700 LINE"
);
}
);
width = 550;
}
);
unicode = 00A5;
},
{
glyphname = plus;
lastChange = "2018-01-17 14:56:22 +0000";
layers = (
{
layerId = "293088C9-8C6F-4F1A-8530-3146F0106214";
paths = (
{
closed = 1;
nodes = (
"241 232 LINE",
"239 46 LINE",
"335 46 LINE",
"333 232 LINE",
"524 230 LINE",
"524 323 LINE",
"333 321 LINE",
"335 507 LINE",
"239 507 LINE",
"241 321 LINE",
"50 323 LINE",
"50 230 LINE"
);
}
);
width = 574;
}
);
leftKerningGroup = hyphen;
leftMetricsKey = minus;
rightKerningGroup = hyphen;
rightMetricsKey = minus;
unicode = 002B;
},
{
glyphname = minus;
lastChange = "2018-01-17 14:56:22 +0000";
layers = (
{
layerId = "293088C9-8C6F-4F1A-8530-3146F0106214";
paths = (
{
closed = 1;
nodes = (
"50 228 LINE",
"524 228 LINE",
"524 325 LINE",
"50 325 LINE"
);
}
);
width = 574;
}
);
leftKerningGroup = hyphen;
rightKerningGroup = hyphen;
unicode = 2212;
},
{
glyphname = multiply;
lastChange = "2018-01-17 14:56:22 +0000";
layers = (
{
layerId = "293088C9-8C6F-4F1A-8530-3146F0106214";
paths = (
{
closed = 1;
nodes = (
"121 44 LINE",
"287 213 LINE",
"453 47 LINE",
"518 113 LINE",
"354 274 LINE",
"518 437 LINE",
"453 503 LINE",
"287 334 LINE",
"121 503 LINE",
"56 437 LINE",
"220 274 LINE",
"56 110 LINE"
);
}
);
width = 574;
}
);
leftKerningGroup = hyphen;
rightKerningGroup = hyphen;
unicode = 00D7;
},
{
glyphname = divide;
lastChange = "2018-01-17 14:56:22 +0000";
layers = (
{
layerId = "293088C9-8C6F-4F1A-8530-3146F0106214";
paths = (
{
closed = 1;
nodes = (
"50 228 LINE",
"524 228 LINE",
"524 325 LINE",
"50 325 LINE"
);
},
{
closed = 1;
nodes = (
"342 504 LINE",
"232 504 LINE",
"232 393 LINE",
"342 393 LINE"
);
},
{
closed = 1;
nodes = (
"342 160 LINE",
"232 160 LINE",
"232 49 LINE",
"342 49 LINE"
);
}
);
width = 574;
}
);
leftKerningGroup = hyphen;
leftMetricsKey = minus;
rightKerningGroup = hyphen;
rightMetricsKey = minus;
unicode = 00F7;
},
{
glyphname = equal;
lastChange = "2018-01-17 14:56:22 +0000";
layers = (
{
layerId = "293088C9-8C6F-4F1A-8530-3146F0106214";
paths = (
{
closed = 1;
nodes = (
"50 131 LINE",
"524 131 LINE",
"524 226 LINE",
"50 226 LINE"
);
},
{
closed = 1;
nodes = (
"50 328 LINE",
"524 328 LINE",
"524 423 LINE",
"50 423 LINE"
);
}
);
width = 574;
}
);
leftKerningGroup = hyphen;
leftMetricsKey = minus;
rightKerningGroup = hyphen;
rightMetricsKey = minus;
unicode = 003D;
},
{
glyphname = notequal;
lastChange = "2018-01-17 14:56:22 +0000";
layers = (
{
layerId = "293088C9-8C6F-4F1A-8530-3146F0106214";
paths = (
{
closed = 1;
nodes = (
"185.387 131 LINE",
"143 36 LINE",
"204 1 LINE",
"262.004 131 LINE",
"524 131 LINE",
"524 226 LINE",
"304.391 226 LINE",
"349.902 328 LINE",
"524 328 LINE",
"524 423 LINE",
"392.29 423 LINE",
"432 512 LINE",
"371 547 LINE",
"315.673 423 LINE",
"50 423 LINE",
"50 328 LINE",
"273.286 328 LINE",
"227.775 226 LINE",
"50 226 LINE",
"50 131 LINE"
);
}
);
width = 574;
}
);
leftKerningGroup = hyphen;
leftMetricsKey = minus;
rightKerningGroup = hyphen;
rightMetricsKey = minus;
unicode = 2260;
},
{
glyphname = greater;
lastChange = "2018-01-17 14:56:22 +0000";
layers = (
{
layerId = "293088C9-8C6F-4F1A-8530-3146F0106214";
paths = (
{
closed = 1;
nodes = (
"524 230 LINE",
"524 322 LINE",
"98 510 LINE",
"50 428 LINE",
"419 276 LINE",
"50 124 LINE",
"98 42 LINE"
);
}
);
width = 574;
}
);
leftKerningGroup = hyphen;
leftMetricsKey = minus;
rightKerningGroup = hyphen;
rightMetricsKey = minus;
unicode = 003E;
},
{
glyphname = less;
lastChange = "2018-01-17 14:56:22 +0000";
layers = (
{
layerId = "293088C9-8C6F-4F1A-8530-3146F0106214";
paths = (
{
closed = 1;
nodes = (
"524 124 LINE",
"155 276 LINE",
"524 428 LINE",
"476 510 LINE",
"50 322 LINE",
"50 230 LINE",
"476 42 LINE"
);
}
);
width = 574;
}
);
leftKerningGroup = hyphen;
leftMetricsKey = minus;
rightKerningGroup = hyphen;
rightMetricsKey = minus;
unicode = 003C;
},
{
glyphname = greaterequal;
lastChange = "2017-12-29 14:22:36 +0000";
layers = (
{
layerId = "293088C9-8C6F-4F1A-8530-3146F0106214";
paths = (
{
closed = 1;
nodes = (
"50 85 LINE",
"50 0 LINE",
"524 0 LINE",
"524 85 LINE"
);
},
{
closed = 1;
nodes = (
"514 298 LINE",
"514 394 LINE",
"94 560 LINE",
"60 478 LINE",
"419 346 LINE",
"60 214 LINE",
"94 132 LINE"
);
}
);
width = 574;
}
);
leftMetricsKey = minus;
rightMetricsKey = minus;
unicode = 2265;
},
{
glyphname = lessequal;
lastChange = "2017-12-29 14:22:36 +0000";
layers = (
{
layerId = "293088C9-8C6F-4F1A-8530-3146F0106214";
paths = (
{
closed = 1;
nodes = (
"50 0 LINE",
"524 0 LINE",
"524 85 LINE",
"50 85 LINE"
);
},
{
closed = 1;
nodes = (
"514 214 LINE",
"155 346 LINE",
"514 478 LINE",
"480 560 LINE",
"60 394 LINE",
"60 298 LINE",
"480 132 LINE"
);
}
);
width = 574;
}
);
leftMetricsKey = minus;
rightMetricsKey = minus;
unicode = 2264;
},
{
glyphname = plusminus;
lastChange = "2017-12-29 14:22:36 +0000";
layers = (
{
layerId = "293088C9-8C6F-4F1A-8530-3146F0106214";
paths = (
{
closed = 1;
nodes = (
"50 0 LINE",
"524 0 LINE",
"524 85 LINE",
"50 85 LINE"
);
},
{
closed = 1;
nodes = (
"241 305 LINE",
"239 149 LINE",
"335 149 LINE",
"333 305 LINE",
"524 303 LINE",
"524 396 LINE",
"333 394 LINE",
"335 550 LINE",
"239 550 LINE",
"241 394 LINE",
"50 396 LINE",
"50 303 LINE"
);
}
);
width = 574;
}
);
leftMetricsKey = minus;
rightMetricsKey = minus;
unicode = 00B1;
},
{
glyphname = approxequal;
lastChange = "2018-01-17 14:56:34 +0000";
layers = (
{
layerId = "293088C9-8C6F-4F1A-8530-3146F0106214";
paths = (
{
closed = 1;
nodes = (
"137 374 OFFCURVE",
"166 396 OFFCURVE",
"199 396 CURVE SMOOTH",
"251 396 OFFCURVE",
"306 342 OFFCURVE",
"385 342 CURVE SMOOTH",
"447 342 OFFCURVE",
"494 377 OFFCURVE",
"524 439 CURVE",
"447 485 LINE",
"437 455 OFFCURVE",
"408 436 OFFCURVE",
"375 436 CURVE SMOOTH",
"323 436 OFFCURVE",
"268 490 OFFCURVE",
"189 490 CURVE SMOOTH",
"127 490 OFFCURVE",
"80 453 OFFCURVE",
"50 390 CURVE",
"127 344 LINE"
);
},
{
closed = 1;
nodes = (
"137 184 OFFCURVE",
"166 206 OFFCURVE",
"199 206 CURVE SMOOTH",
"251 206 OFFCURVE",
"306 152 OFFCURVE",
"385 152 CURVE SMOOTH",
"447 152 OFFCURVE",
"494 187 OFFCURVE",
"524 249 CURVE",
"447 295 LINE",
"437 265 OFFCURVE",
"408 246 OFFCURVE",
"375 246 CURVE SMOOTH",
"323 246 OFFCURVE",
"268 300 OFFCURVE",
"189 300 CURVE SMOOTH",
"127 300 OFFCURVE",
"80 263 OFFCURVE",
"50 200 CURVE",
"127 154 LINE"
);
}
);
width = 574;
}
);
leftKerningGroup = hyphen;
leftMetricsKey = minus;
rightKerningGroup = hyphen;
rightMetricsKey = minus;
unicode = 2248;
},
{
glyphname = asciitilde;
lastChange = "2018-01-17 14:56:34 +0000";
layers = (
{
layerId = "293088C9-8C6F-4F1A-8530-3146F0106214";
paths = (
{
closed = 1;
nodes = (
"137 304 OFFCURVE",
"166 326 OFFCURVE",
"199 326 CURVE SMOOTH",
"251 326 OFFCURVE",
"306 272 OFFCURVE",
"385 272 CURVE SMOOTH",
"447 272 OFFCURVE",
"494 307 OFFCURVE",
"524 369 CURVE",
"447 415 LINE",
"437 385 OFFCURVE",
"408 366 OFFCURVE",
"375 366 CURVE SMOOTH",
"323 366 OFFCURVE",
"268 420 OFFCURVE",
"189 420 CURVE SMOOTH",
"127 420 OFFCURVE",
"80 383 OFFCURVE",
"50 320 CURVE",
"127 274 LINE"
);
}
);
width = 574;
}
);
leftKerningGroup = hyphen;
leftMetricsKey = minus;
rightKerningGroup = hyphen;
rightMetricsKey = minus;
unicode = 007E;
},
{
glyphname = logicalnot;
lastChange = "2018-01-17 14:56:34 +0000";
layers = (
{
layerId = "293088C9-8C6F-4F1A-8530-3146F0106214";
paths = (
{
closed = 1;
nodes = (
"475 278 LINE",
"424 323 LINE",
"424 122 LINE",
"524 122 LINE",
"524 375 LINE",
"50 375 LINE",
"50 278 LINE"
);
}
);
width = 574;
}
);
leftKerningGroup = hyphen;
leftMetricsKey = minus;
rightKerningGroup = hyphen;
rightMetricsKey = minus;
unicode = 00AC;
},
{
glyphname = infinity;
lastChange = "2018-01-17 13:19:36 +0000";
layers = (
{
layerId = "293088C9-8C6F-4F1A-8530-3146F0106214";
paths = (
{
closed = 1;
nodes = (
"40 384 OFFCURVE",
"108 454 OFFCURVE",
"210 454 CURVE SMOOTH",
"286.008 454 OFFCURVE",
"338 400 OFFCURVE",
"383 341 CURVE",
"428 400 OFFCURVE",
"479.436 454 OFFCURVE",
"555 454 CURVE SMOOTH",
"657 454 OFFCURVE",
"725 384 OFFCURVE",
"725 278 CURVE SMOOTH",
"725 172 OFFCURVE",
"657 102 OFFCURVE",
"555 102 CURVE SMOOTH",
"479.348 102 OFFCURVE",
"427 155 OFFCURVE",
"383 215 CURVE",
"338 155 OFFCURVE",
"285.919 102 OFFCURVE",
"210 102 CURVE SMOOTH",
"108 102 OFFCURVE",
"40 172 OFFCURVE",
"40 278 CURVE SMOOTH"
);
},
{
closed = 1;
nodes = (
"122 221 OFFCURVE",
"159 183 OFFCURVE",
"215 183 CURVE SMOOTH",
"262.779 183 OFFCURVE",
"299 226 OFFCURVE",
"337 278 CURVE",
"299 329 OFFCURVE",
"262.779 372 OFFCURVE",
"215 372 CURVE SMOOTH",
"159 372 OFFCURVE",
"122 334 OFFCURVE",
"122 278 CURVE SMOOTH"
);
},
{
closed = 1;
nodes = (
"466 226 OFFCURVE",
"502.722 183 OFFCURVE",
"551 183 CURVE SMOOTH",
"606 183 OFFCURVE",
"643 221 OFFCURVE",
"643 278 CURVE SMOOTH",
"643 335 OFFCURVE",
"606 373 OFFCURVE",
"551 373 CURVE SMOOTH",
"502.722 373 OFFCURVE",
"466 330 OFFCURVE",
"428 278 CURVE"
);
}
);
width = 765;
}
);
leftKerningGroup = o;
leftMetricsKey = o;
rightKerningGroup = o;
rightMetricsKey = o;
unicode = 221E;
},
{
glyphname = integral;
lastChange = "2017-12-24 18:04:04 +0000";
layers = (
{
layerId = "293088C9-8C6F-4F1A-8530-3146F0106214";
paths = (
{
closed = 1;
nodes = (
"-29 -206 OFFCURVE",
"4 -212 OFFCURVE",
"44 -212 CURVE SMOOTH",
"151 -212 OFFCURVE",
"211 -147 OFFCURVE",
"211 -31 CURVE SMOOTH",
"211 576 LINE SMOOTH",
"211 636 OFFCURVE",
"237 670 OFFCURVE",
"285 670 CURVE SMOOTH",
"294 670 OFFCURVE",
"311 668 OFFCURVE",
"332 665 CURVE",
"370 745 LINE",
"353 756 OFFCURVE",
"320 762 OFFCURVE",
"276 762 CURVE SMOOTH",
"169 762 OFFCURVE",
"109 697 OFFCURVE",
"109 581 CURVE SMOOTH",
"109 -26 LINE SMOOTH",
"109 -86 OFFCURVE",
"83 -120 OFFCURVE",
"35 -120 CURVE SMOOTH",
"19 -120 OFFCURVE",
"2 -118 OFFCURVE",
"-12 -115 CURVE",
"-50 -195 LINE"
);
}
);
width = 320;
}
);
unicode = 222B;
},
{
glyphname = product;
lastChange = "2018-01-17 13:19:47 +0000";
layers = (
{
layerId = "293088C9-8C6F-4F1A-8530-3146F0106214";
paths = (
{
closed = 1;
nodes = (
"130 660 LINE",
"130 -200 LINE",
"232 -200 LINE",
"232 660 LINE",
"450 660 LINE",
"450 -200 LINE",
"552 -200 LINE",
"552 660 LINE",
"662 660 LINE",
"662 750 LINE",
"20 750 LINE",
"20 660 LINE"
);
}
);
width = 682;
}
);
unicode = 220F;
},
{
glyphname = summation;
lastChange = "2018-01-17 13:20:20 +0000";
layers = (
{
layerId = "293088C9-8C6F-4F1A-8530-3146F0106214";
paths = (
{
closed = 1;
nodes = (
"512 -200 LINE",
"512 -110 LINE",
"151 -110 LINE",
"150 -108 LINE",
"389 254 LINE",
"389 296 LINE",
"150 658 LINE",
"151 660 LINE",
"512 660 LINE",
"512 750 LINE",
"37 750 LINE",
"37 660 LINE",
"294 275 LINE",
"37 -110 LINE",
"37 -200 LINE"
);
}
);
width = 547;
}
);
unicode = 2211;
},
{
glyphname = radical;
lastChange = "2018-01-17 13:20:33 +0000";
layers = (
{
layerId = "293088C9-8C6F-4F1A-8530-3146F0106214";
paths = (
{
closed = 1;
nodes = (
"142 259 LINE",
"298 -200 LINE",
"430 -200 LINE",
"668 810 LINE",
"559 810 LINE",
"366 -93 LINE",
"364 -93 LINE",
"219 350 LINE",
"10 350 LINE",
"10 259 LINE"
);
}
);
width = 688;
}
);
rightKerningGroup = radical;
unicode = 221A;
},
{
glyphname = partialdiff;
lastChange = "2018-01-17 13:20:56 +0000";
layers = (
{
layerId = "293088C9-8C6F-4F1A-8530-3146F0106214";
paths = (
{
closed = 1;
nodes = (
"50 74 OFFCURVE",
"141 -12 OFFCURVE",
"287 -12 CURVE SMOOTH",
"457 -12 OFFCURVE",
"545 101 OFFCURVE",
"545 337 CURVE SMOOTH",
"545 592 OFFCURVE",
"475 712 OFFCURVE",
"288 712 CURVE SMOOTH",
"200 712 OFFCURVE",
"130 678 OFFCURVE",
"92 657 CURVE",
"140 574 LINE",
"178 595 OFFCURVE",
"244 615 OFFCURVE",
"288 615 CURVE SMOOTH",
"400 615 OFFCURVE",
"441 548 OFFCURVE",
"449 384 CURVE SMOOTH",
"449 384 OFFCURVE",
"447 383 OFFCURVE",
"447 383 CURVE",
"411 407 OFFCURVE",
"352.532 434 OFFCURVE",
"267 434 CURVE SMOOTH",
"134 434 OFFCURVE",
"50 348 OFFCURVE",
"50 211 CURVE SMOOTH"
);
},
{
closed = 1;
nodes = (
"145 291 OFFCURVE",
"200 342 OFFCURVE",
"287 342 CURVE SMOOTH",
"350.197 342 OFFCURVE",
"409 319 OFFCURVE",
"448 293 CURVE",
"441 153 OFFCURVE",
"385.199 80 OFFCURVE",
"287 80 CURVE SMOOTH",
"200 80 OFFCURVE",
"145 131 OFFCURVE",
"145 211 CURVE SMOOTH"
);
}
);
width = 595;
}
);
unicode = 2202;
},
{
glyphname = percent;
lastChange = "2018-01-02 17:08:45 +0000";
layers = (
{
layerId = "293088C9-8C6F-4F1A-8530-3146F0106214";
paths = (
{
closed = 1;
nodes = (
"50 452 OFFCURVE",
"113 387 OFFCURVE",
"209 387 CURVE",
"304 387 OFFCURVE",
"367 452 OFFCURVE",
"367 550 CURVE",
"367 647 OFFCURVE",
"304 712 OFFCURVE",
"209 712 CURVE",
"113 712 OFFCURVE",
"50 647 OFFCURVE",
"50 550 CURVE"
);
},
{
closed = 1;
nodes = (
"184 34 LINE",
"671 632 LINE",
"603 670 LINE",
"115 72 LINE"
);
},
{
closed = 1;
nodes = (
"129 602 OFFCURVE",
"161 636 OFFCURVE",
"209 636 CURVE",
"257 636 OFFCURVE",
"288 602 OFFCURVE",
"288 550 CURVE",
"288 497 OFFCURVE",
"257 462 OFFCURVE",
"209 462 CURVE",
"161 462 OFFCURVE",
"129 497 OFFCURVE",
"129 550 CURVE"
);
},
{
closed = 1;
nodes = (
"420 53 OFFCURVE",
"483 -12 OFFCURVE",
"579 -12 CURVE",
"674 -12 OFFCURVE",
"737 53 OFFCURVE",
"737 151 CURVE",
"737 248 OFFCURVE",
"674 313 OFFCURVE",
"579 313 CURVE",
"483 313 OFFCURVE",
"420 248 OFFCURVE",
"420 151 CURVE"
);
},
{
closed = 1;
nodes = (
"499 203 OFFCURVE",
"531 237 OFFCURVE",
"579 237 CURVE",
"627 237 OFFCURVE",
"658 203 OFFCURVE",
"658 151 CURVE",
"658 98 OFFCURVE",
"627 63 OFFCURVE",
"579 63 CURVE",
"531 63 OFFCURVE",
"499 98 OFFCURVE",
"499 151 CURVE"
);
}
);
width = 787;
}
);
unicode = 0025;
},
{
glyphname = perthousand;
lastChange = "2018-01-02 17:09:03 +0000";
layers = (
{
layerId = "293088C9-8C6F-4F1A-8530-3146F0106214";
paths = (
{
closed = 1;
nodes = (
"50 452 OFFCURVE",
"113 387 OFFCURVE",
"209 387 CURVE",
"304 387 OFFCURVE",
"367 452 OFFCURVE",
"367 550 CURVE",
"367 647 OFFCURVE",
"304 712 OFFCURVE",
"209 712 CURVE",
"113 712 OFFCURVE",
"50 647 OFFCURVE",
"50 550 CURVE"
);
},
{
closed = 1;
nodes = (
"184 34 LINE",
"671 632 LINE",
"603 670 LINE",
"115 72 LINE"
);
},
{
closed = 1;
nodes = (
"129 602 OFFCURVE",
"161 636 OFFCURVE",
"209 636 CURVE",
"257 636 OFFCURVE",
"288 602 OFFCURVE",
"288 550 CURVE",
"288 497 OFFCURVE",
"257 462 OFFCURVE",
"209 462 CURVE",
"161 462 OFFCURVE",
"129 497 OFFCURVE",
"129 550 CURVE"
);
},
{
closed = 1;
nodes = (
"420 53 OFFCURVE",
"483 -12 OFFCURVE",
"579 -12 CURVE",
"674 -12 OFFCURVE",
"737 53 OFFCURVE",
"737 151 CURVE",
"737 248 OFFCURVE",
"674 313 OFFCURVE",
"579 313 CURVE",
"483 313 OFFCURVE",
"420 248 OFFCURVE",
"420 151 CURVE"
);
},
{
closed = 1;
nodes = (
"499 203 OFFCURVE",
"531 237 OFFCURVE",
"579 237 CURVE",
"627 237 OFFCURVE",
"658 203 OFFCURVE",
"658 151 CURVE",
"658 98 OFFCURVE",
"627 63 OFFCURVE",
"579 63 CURVE",
"531 63 OFFCURVE",
"499 98 OFFCURVE",
"499 151 CURVE"
);
},
{
closed = 1;
nodes = (
"780 53 OFFCURVE",
"843 -12 OFFCURVE",
"939 -12 CURVE",
"1034 -12 OFFCURVE",
"1097 53 OFFCURVE",
"1097 151 CURVE",
"1097 248 OFFCURVE",
"1034 313 OFFCURVE",
"939 313 CURVE",
"843 313 OFFCURVE",
"780 248 OFFCURVE",
"780 151 CURVE"
);
},
{
closed = 1;
nodes = (
"859 203 OFFCURVE",
"891 237 OFFCURVE",
"939 237 CURVE",
"987 237 OFFCURVE",
"1018 203 OFFCURVE",
"1018 151 CURVE",
"1018 98 OFFCURVE",
"987 63 OFFCURVE",
"939 63 CURVE",
"891 63 OFFCURVE",
"859 98 OFFCURVE",
"859 151 CURVE"
);
}
);
width = 1147;
}
);
unicode = 2030;
},
{
glyphname = upArrow;
lastChange = "2017-12-31 15:09:25 +0000";
layers = (
{
layerId = "293088C9-8C6F-4F1A-8530-3146F0106214";
paths = (
{
closed = 1;
nodes = (
"270 19 LINE",
"269 501 LINE",
"100 330 LINE",
"50 415 LINE",
"319 682 LINE",
"587 415 LINE",
"537 330 LINE",
"369 501 LINE",
"369 19 LINE"
);
}
);
width = 637;
}
);
unicode = 2191;
},
{
glyphname = northEastArrow;
lastChange = "2017-12-31 15:10:59 +0000";
layers = (
{
layerId = "293088C9-8C6F-4F1A-8530-3146F0106214";
paths = (
{
closed = 1;
nodes = (
"50 146 LINE",
"390 487 LINE",
"150 486 LINE",
"174 581 LINE",
"553 580 LINE",
"554 202 LINE",
"459 177 LINE",
"461 417 LINE",
"120 76 LINE"
);
}
);
width = 629;
}
);
unicode = 2197;
},
{
glyphname = rightArrow;
lastChange = "2017-12-31 15:11:54 +0000";
layers = (
{
layerId = "293088C9-8C6F-4F1A-8530-3146F0106214";
paths = (
{
closed = 1;
nodes = (
"50 399 LINE",
"532 400 LINE",
"361 569 LINE",
"446 619 LINE",
"713 350 LINE",
"446 82 LINE",
"361 132 LINE",
"532 300 LINE",
"50 300 LINE"
);
}
);
width = 763;
}
);
unicode = 2192;
},
{
glyphname = southEastArrow;
lastChange = "2017-12-31 15:11:21 +0000";
layers = (
{
layerId = "293088C9-8C6F-4F1A-8530-3146F0106214";
paths = (
{
closed = 1;
nodes = (
"461 267 LINE",
"459 507 LINE",
"554 482 LINE",
"553 104 LINE",
"174 103 LINE",
"150 198 LINE",
"390 197 LINE",
"50 538 LINE",
"120 608 LINE"
);
}
);
width = 629;
}
);
unicode = 2198;
},
{
glyphname = downArrow;
lastChange = "2017-12-31 15:09:51 +0000";
layers = (
{
layerId = "293088C9-8C6F-4F1A-8530-3146F0106214";
paths = (
{
closed = 1;
nodes = (
"369 200 LINE",
"537 371 LINE",
"587 286 LINE",
"319 19 LINE",
"50 286 LINE",
"100 371 LINE",
"269 200 LINE",
"270 682 LINE",
"369 682 LINE"
);
}
);
width = 637;
}
);
unicode = 2193;
},
{
glyphname = southWestArrow;
lastChange = "2017-12-31 15:11:38 +0000";
layers = (
{
layerId = "293088C9-8C6F-4F1A-8530-3146F0106214";
paths = (
{
closed = 1;
nodes = (
"579 538 LINE",
"239 197 LINE",
"479 198 LINE",
"455 103 LINE",
"76 104 LINE",
"75 482 LINE",
"170 507 LINE",
"168 267 LINE",
"509 608 LINE"
);
}
);
width = 629;
}
);
unicode = 2199;
},
{
glyphname = leftArrow;
lastChange = "2017-12-31 15:10:14 +0000";
layers = (
{
layerId = "293088C9-8C6F-4F1A-8530-3146F0106214";
paths = (
{
closed = 1;
nodes = (
"231 300 LINE",
"402 132 LINE",
"317 82 LINE",
"50 350 LINE",
"317 619 LINE",
"402 569 LINE",
"231 400 LINE",
"713 399 LINE",
"713 300 LINE"
);
}
);
width = 763;
}
);
unicode = 2190;
},
{
glyphname = northWestArrow;
lastChange = "2017-12-31 15:10:40 +0000";
layers = (
{
layerId = "293088C9-8C6F-4F1A-8530-3146F0106214";
paths = (
{
closed = 1;
nodes = (
"168 417 LINE",
"170 177 LINE",
"75 202 LINE",
"76 580 LINE",
"455 581 LINE",
"479 486 LINE",
"239 487 LINE",
"579 146 LINE",
"509 76 LINE"
);
}
);
width = 629;
}
);
unicode = 2196;
},
{
glyphname = upArrow.alt;
lastChange = "2017-12-31 15:15:19 +0000";
layers = (
{
layerId = "293088C9-8C6F-4F1A-8530-3146F0106214";
paths = (
{
closed = 1;
nodes = (
"373 91 LINE",
"372 471 LINE",
"240 336 LINE",
"200 403 LINE",
"412 613 LINE",
"623 403 LINE",
"583 336 LINE",
"452 471 LINE",
"452 91 LINE"
);
},
{
closed = 1;
nodes = (
"612 -12 OFFCURVE",
"774 150 OFFCURVE",
"774 350 CURVE SMOOTH",
"774 550 OFFCURVE",
"612 712 OFFCURVE",
"412 712 CURVE SMOOTH",
"212 712 OFFCURVE",
"50 550 OFFCURVE",
"50 350 CURVE SMOOTH",
"50 150 OFFCURVE",
"212 -12 OFFCURVE",
"412 -12 CURVE SMOOTH"
);
}
);
width = 824;
}
);
},
{
glyphname = northEastArrow.alt;
lastChange = "2017-12-31 15:17:54 +0000";
layers = (
{
layerId = "293088C9-8C6F-4F1A-8530-3146F0106214";
paths = (
{
closed = 1;
nodes = (
"469 464 LINE",
"281 461 LINE",
"300 537 LINE",
"598 536 LINE",
"600 238 LINE",
"524 219 LINE",
"526 407 LINE",
"257 139 LINE",
"201 195 LINE"
);
},
{
closed = 1;
nodes = (
"50 150 OFFCURVE",
"212 -12 OFFCURVE",
"412 -12 CURVE SMOOTH",
"612 -12 OFFCURVE",
"774 150 OFFCURVE",
"774 350 CURVE SMOOTH",
"774 550 OFFCURVE",
"612 712 OFFCURVE",
"412 712 CURVE SMOOTH",
"212 712 OFFCURVE",
"50 550 OFFCURVE",
"50 350 CURVE SMOOTH"
);
}
);
width = 824;
}
);
},
{
glyphname = rightArrow.alt;
lastChange = "2017-12-31 15:16:28 +0000";
layers = (
{
layerId = "293088C9-8C6F-4F1A-8530-3146F0106214";
paths = (
{
closed = 1;
nodes = (
"533 390 LINE",
"398 521 LINE",
"465 561 LINE",
"675 350 LINE",
"465 138 LINE",
"398 178 LINE",
"533 310 LINE",
"153 311 LINE",
"153 390 LINE"
);
},
{
closed = 1;
nodes = (
"50 150 OFFCURVE",
"212 -12 OFFCURVE",
"412 -12 CURVE SMOOTH",
"612 -12 OFFCURVE",
"774 150 OFFCURVE",
"774 350 CURVE SMOOTH",
"774 550 OFFCURVE",
"612 712 OFFCURVE",
"412 712 CURVE SMOOTH",
"212 712 OFFCURVE",
"50 550 OFFCURVE",
"50 350 CURVE SMOOTH"
);
}
);
width = 824;
}
);
},
{
glyphname = southEastArrow.alt;
lastChange = "2017-12-31 15:18:34 +0000";
layers = (
{
layerId = "293088C9-8C6F-4F1A-8530-3146F0106214";
paths = (
{
closed = 1;
nodes = (
"526 294 LINE",
"523 482 LINE",
"599 463 LINE",
"598 165 LINE",
"300 163 LINE",
"281 239 LINE",
"469 237 LINE",
"201 506 LINE",
"257 562 LINE"
);
},
{
closed = 1;
nodes = (
"50 150 OFFCURVE",
"212 -12 OFFCURVE",
"412 -12 CURVE SMOOTH",
"612 -12 OFFCURVE",
"774 150 OFFCURVE",
"774 350 CURVE SMOOTH",
"774 550 OFFCURVE",
"612 712 OFFCURVE",
"412 712 CURVE SMOOTH",
"212 712 OFFCURVE",
"50 550 OFFCURVE",
"50 350 CURVE SMOOTH"
);
}
);
width = 824;
}
);
},
{
glyphname = downArrow.alt;
lastChange = "2017-12-31 15:15:39 +0000";
layers = (
{
layerId = "293088C9-8C6F-4F1A-8530-3146F0106214";
paths = (
{
closed = 1;
nodes = (
"452 229 LINE",
"583 364 LINE",
"623 297 LINE",
"412 87 LINE",
"200 297 LINE",
"240 364 LINE",
"372 229 LINE",
"373 609 LINE",
"452 609 LINE"
);
},
{
closed = 1;
nodes = (
"212 712 OFFCURVE",
"50 550 OFFCURVE",
"50 350 CURVE SMOOTH",
"50 150 OFFCURVE",
"212 -12 OFFCURVE",
"412 -12 CURVE SMOOTH",
"612 -12 OFFCURVE",
"774 150 OFFCURVE",
"774 350 CURVE SMOOTH",
"774 550 OFFCURVE",
"612 712 OFFCURVE",
"412 712 CURVE SMOOTH"
);
}
);
width = 824;
}
);
},
{
glyphname = southWestArrow.alt;
lastChange = "2017-12-31 15:19:14 +0000";
layers = (
{
layerId = "293088C9-8C6F-4F1A-8530-3146F0106214";
paths = (
{
closed = 1;
nodes = (
"623 506 LINE",
"355 237 LINE",
"543 239 LINE",
"524 163 LINE",
"226 165 LINE",
"225 463 LINE",
"301 482 LINE",
"298 294 LINE",
"567 562 LINE"
);
},
{
closed = 1;
nodes = (
"774 550 OFFCURVE",
"612 712 OFFCURVE",
"412 712 CURVE SMOOTH",
"212 712 OFFCURVE",
"50 550 OFFCURVE",
"50 350 CURVE SMOOTH",
"50 150 OFFCURVE",
"212 -12 OFFCURVE",
"412 -12 CURVE SMOOTH",
"612 -12 OFFCURVE",
"774 150 OFFCURVE",
"774 350 CURVE SMOOTH"
);
}
);
width = 824;
}
);
},
{
glyphname = leftArrow.alt;
lastChange = "2017-12-31 15:18:58 +0000";
layers = (
{
layerId = "293088C9-8C6F-4F1A-8530-3146F0106214";
paths = (
{
closed = 1;
nodes = (
"671 311 LINE",
"291 310 LINE",
"426 178 LINE",
"359 138 LINE",
"149 350 LINE",
"359 561 LINE",
"426 521 LINE",
"291 390 LINE",
"671 390 LINE"
);
},
{
closed = 1;
nodes = (
"774 550 OFFCURVE",
"612 712 OFFCURVE",
"412 712 CURVE SMOOTH",
"212 712 OFFCURVE",
"50 550 OFFCURVE",
"50 350 CURVE SMOOTH",
"50 150 OFFCURVE",
"212 -12 OFFCURVE",
"412 -12 CURVE SMOOTH",
"612 -12 OFFCURVE",
"774 150 OFFCURVE",
"774 350 CURVE SMOOTH"
);
}
);
width = 824;
}
);
},
{
glyphname = northWestArrow.alt;
lastChange = "2017-12-31 15:19:30 +0000";
layers = (
{
layerId = "293088C9-8C6F-4F1A-8530-3146F0106214";
paths = (
{
closed = 1;
nodes = (
"567 139 LINE",
"298 407 LINE",
"300 219 LINE",
"224 238 LINE",
"226 536 LINE",
"524 537 LINE",
"543 461 LINE",
"355 464 LINE",
"623 195 LINE"
);
},
{
closed = 1;
nodes = (
"774 550 OFFCURVE",
"612 712 OFFCURVE",
"412 712 CURVE SMOOTH",
"212 712 OFFCURVE",
"50 550 OFFCURVE",
"50 350 CURVE SMOOTH",
"50 150 OFFCURVE",
"212 -12 OFFCURVE",
"412 -12 CURVE SMOOTH",
"612 -12 OFFCURVE",
"774 150 OFFCURVE",
"774 350 CURVE SMOOTH"
);
}
);
width = 824;
}
);
},
{
glyphname = lozenge;
lastChange = "2018-01-17 13:21:30 +0000";
layers = (
{
layerId = "293088C9-8C6F-4F1A-8530-3146F0106214";
paths = (
{
closed = 1;
nodes = (
"244 0 LINE",
"358 0 LINE",
"552 350 LINE",
"358 700 LINE",
"244 700 LINE",
"50 350 LINE"
);
},
{
closed = 1;
nodes = (
"300 613 LINE",
"302 613 LINE",
"454 350 LINE",
"302 88 LINE",
"300 88 LINE",
"148 350 LINE"
);
}
);
width = 602;
}
);
unicode = 25CA;
},
{
glyphname = at;
lastChange = "2018-01-17 15:03:22 +0000";
layers = (
{
layerId = "293088C9-8C6F-4F1A-8530-3146F0106214";
paths = (
{
closed = 1;
nodes = (
"510 163 OFFCURVE",
"539.129 132 OFFCURVE",
"602 132 CURVE SMOOTH",
"720 132 OFFCURVE",
"800 224 OFFCURVE",
"800 400 CURVE SMOOTH",
"800 593 OFFCURVE",
"668 722 OFFCURVE",
"470 722 CURVE SMOOTH",
"219 722 OFFCURVE",
"60 552 OFFCURVE",
"60 280 CURVE SMOOTH",
"60 58 OFFCURVE",
"203 -82 OFFCURVE",
"431 -82 CURVE SMOOTH",
"513 -82 OFFCURVE",
"598 -63 OFFCURVE",
"651 -33 CURVE",
"608 44 LINE",
"565 21 OFFCURVE",
"495 6 OFFCURVE",
"431 6 CURVE SMOOTH",
"258 6 OFFCURVE",
"150 114 OFFCURVE",
"150 280 CURVE SMOOTH",
"150 495 OFFCURVE",
"273 634 OFFCURVE",
"470 634 CURVE SMOOTH",
"615 634 OFFCURVE",
"711 538 OFFCURVE",
"711 400 CURVE SMOOTH",
"711 271 OFFCURVE",
"662 213 OFFCURVE",
"618 213 CURVE SMOOTH",
"576 213 OFFCURVE",
"560 239 OFFCURVE",
"564 284 CURVE SMOOTH",
"570 353 OFFCURVE",
"579 422 OFFCURVE",
"586 492 CURVE",
"553 506 OFFCURVE",
"517 516 OFFCURVE",
"477 516 CURVE SMOOTH",
"350 516 OFFCURVE",
"264 424 OFFCURVE",
"264 287 CURVE SMOOTH",
"264 194 OFFCURVE",
"314 132 OFFCURVE",
"388 132 CURVE SMOOTH",
"433.512 132.875 OFFCURVE",
"470 154 OFFCURVE",
"496 190 CURVE",
"498 190 LINE"
);
},
{
closed = 1;
nodes = (
"345 380 OFFCURVE",
"395 442 OFFCURVE",
"472 442 CURVE SMOOTH",
"484 442 OFFCURVE",
"494 441 OFFCURVE",
"502 439 CURVE",
"483 262 LINE",
"458 230 OFFCURVE",
"429.236 212 OFFCURVE",
"400 212 CURVE SMOOTH",
"363 212 OFFCURVE",
"345 245 OFFCURVE",
"345 289 CURVE SMOOTH"
);
}
);
width = 860;
}
);
leftKerningGroup = O;
rightKerningGroup = O;
unicode = 0040;
},
{
glyphname = ampersand;
lastChange = "2018-01-17 13:23:01 +0000";
layers = (
{
layerId = "293088C9-8C6F-4F1A-8530-3146F0106214";
paths = (
{
closed = 1;
nodes = (
"55 243 OFFCURVE",
"99 311 OFFCURVE",
"192 368 CURVE",
"163 421 OFFCURVE",
"145 473 OFFCURVE",
"145 520 CURVE",
"145 635 OFFCURVE",
"219 712 OFFCURVE",
"334 712 CURVE",
"434 712 OFFCURVE",
"501 649 OFFCURVE",
"501 554 CURVE",
"501 451 OFFCURVE",
"409 388 OFFCURVE",
"315 338 CURVE",
"349 293 OFFCURVE",
"393 246 OFFCURVE",
"441 206 CURVE",
"473 250 OFFCURVE",
"503 306 OFFCURVE",
"535 371 CURVE",
"611 326 LINE",
"579 261 OFFCURVE",
"546 202 OFFCURVE",
"511 153 CURVE",
"555 121 OFFCURVE",
"602 93 OFFCURVE",
"649 72 CURVE",
"604 -8 LINE",
"558 13 OFFCURVE",
"506 47 OFFCURVE",
"454 87 CURVE",
"394 26 OFFCURVE",
"326 -12 OFFCURVE",
"240 -12 CURVE",
"129 -12 OFFCURVE",
"55 56 OFFCURVE",
"55 158 CURVE"
);
},
{
closed = 1;
nodes = (
"152 116 OFFCURVE",
"191 78 OFFCURVE",
"253 78 CURVE",
"299 78 OFFCURVE",
"342 102 OFFCURVE",
"384 142 CURVE",
"331 189 OFFCURVE",
"281 243 OFFCURVE",
"240 298 CURVE",
"180 258 OFFCURVE",
"152 215 OFFCURVE",
"152 170 CURVE"
);
},
{
closed = 1;
nodes = (
"235 489 OFFCURVE",
"248 448 OFFCURVE",
"269 407 CURVE",
"341 442 OFFCURVE",
"412 482 OFFCURVE",
"411 547 CURVE",
"411 591 OFFCURVE",
"380 627 OFFCURVE",
"334 627 CURVE",
"275 627 OFFCURVE",
"235 583 OFFCURVE",
"235 525 CURVE"
);
}
);
width = 659;
}
);
leftKerningGroup = ampersand;
rightKerningGroup = ampersand;
unicode = 0026;
},
{
glyphname = paragraph;
lastChange = "2018-01-20 15:35:33 +0000";
layers = (
{
layerId = "293088C9-8C6F-4F1A-8530-3146F0106214";
paths = (
{
closed = 1;
nodes = (
"30 341 OFFCURVE",
"126 255 OFFCURVE",
"264 255 CURVE",
"264 609 LINE",
"348 609 LINE",
"350 0 LINE",
"444 0 LINE",
"444 700 LINE",
"424 700 LINE",
"347 700 LINE",
"264 700 LINE",
"126 700 OFFCURVE",
"30 614 OFFCURVE",
"30 477 CURVE"
);
}
);
width = 529;
}
);
unicode = 00B6;
},
{
glyphname = section;
lastChange = "2018-01-17 13:23:49 +0000";
layers = (
{
layerId = "293088C9-8C6F-4F1A-8530-3146F0106214";
paths = (
{
closed = 1;
nodes = (
"434 195 OFFCURVE",
"459 235.738 OFFCURVE",
"459 289 CURVE SMOOTH",
"459 471 OFFCURVE",
"179 453 OFFCURVE",
"179 559 CURVE SMOOTH",
"179 595 OFFCURVE",
"205 625 OFFCURVE",
"272 625 CURVE SMOOTH",
"328 625 OFFCURVE",
"360 614 OFFCURVE",
"396 600 CURVE",
"439 674 LINE",
"395 697 OFFCURVE",
"331 712 OFFCURVE",
"274 712 CURVE SMOOTH",
"156 712 OFFCURVE",
"84 652 OFFCURVE",
"84 563 CURVE SMOOTH",
"84 500.051 OFFCURVE",
"113 462 OFFCURVE",
"153 435 CURVE",
"153 433 LINE",
"109 407 OFFCURVE",
"84 365.515 OFFCURVE",
"84 313 CURVE SMOOTH",
"84 129 OFFCURVE",
"364 154 OFFCURVE",
"364 45 CURVE SMOOTH",
"364 7 OFFCURVE",
"332 -22 OFFCURVE",
"252 -22 CURVE SMOOTH",
"186 -22 OFFCURVE",
"142 -3 OFFCURVE",
"105 14 CURVE",
"60 -64 LINE",
"105 -93 OFFCURVE",
"180 -112 OFFCURVE",
"250 -112 CURVE SMOOTH",
"382 -112 OFFCURVE",
"459 -54 OFFCURVE",
"459 39 CURVE SMOOTH",
"459 102.422 OFFCURVE",
"428 140 OFFCURVE",
"388 167 CURVE",
"388 169 LINE"
);
},
{
closed = 1;
nodes = (
"179 347.594 OFFCURVE",
"196 381 OFFCURVE",
"231 393 CURVE",
"299 365 OFFCURVE",
"364 344.457 OFFCURVE",
"364 289 CURVE SMOOTH",
"364 254.472 OFFCURVE",
"344 224 OFFCURVE",
"297 213 CURVE",
"235 239 OFFCURVE",
"179 262.027 OFFCURVE",
"179 318 CURVE SMOOTH"
);
}
);
width = 511;
}
);
unicode = 00A7;
},
{
glyphname = copyright;
lastChange = "2018-01-17 13:33:30 +0000";
layers = (
{
layerId = "293088C9-8C6F-4F1A-8530-3146F0106214";
paths = (
{
closed = 1;
nodes = (
"642 -12 OFFCURVE",
"782 127 OFFCURVE",
"782 335 CURVE SMOOTH",
"782 542 OFFCURVE",
"642 681 OFFCURVE",
"431 681 CURVE SMOOTH",
"220 681 OFFCURVE",
"80 542 OFFCURVE",
"80 335 CURVE SMOOTH",
"80 127 OFFCURVE",
"220 -12 OFFCURVE",
"431 -12 CURVE SMOOTH"
);
},
{
closed = 1;
nodes = (
"268 62 OFFCURVE",
"160 171 OFFCURVE",
"160 335 CURVE SMOOTH",
"160 498 OFFCURVE",
"268 607 OFFCURVE",
"431 607 CURVE SMOOTH",
"594 607 OFFCURVE",
"702 498 OFFCURVE",
"702 335 CURVE SMOOTH",
"702 171 OFFCURVE",
"594 62 OFFCURVE",
"431 62 CURVE SMOOTH"
);
},
{
closed = 1;
nodes = (
"252 225 OFFCURVE",
"328 152 OFFCURVE",
"441 152 CURVE SMOOTH",
"495 152 OFFCURVE",
"534 167 OFFCURVE",
"549 177 CURVE",
"524 240 LINE",
"505 228 OFFCURVE",
"474 223 OFFCURVE",
"441 223 CURVE SMOOTH",
"373 223 OFFCURVE",
"327 268 OFFCURVE",
"327 335 CURVE SMOOTH",
"327 403 OFFCURVE",
"373 449 OFFCURVE",
"441 449 CURVE SMOOTH",
"470 449 OFFCURVE",
"503 443 OFFCURVE",
"524 434 CURVE",
"549 494 LINE",
"534 503 OFFCURVE",
"495 518 OFFCURVE",
"441 518 CURVE SMOOTH",
"328 518 OFFCURVE",
"252 445 OFFCURVE",
"252 335 CURVE SMOOTH"
);
}
);
width = 862;
}
);
leftKerningGroup = O;
rightKerningGroup = O;
unicode = 00A9;
},
{
glyphname = registered;
lastChange = "2018-01-17 15:00:43 +0000";
layers = (
{
layerId = "293088C9-8C6F-4F1A-8530-3146F0106214";
paths = (
{
closed = 1;
nodes = (
"509 224 OFFCURVE",
"615 329 OFFCURVE",
"615 487 CURVE SMOOTH",
"615 644 OFFCURVE",
"509 749 OFFCURVE",
"349 749 CURVE SMOOTH",
"189 749 OFFCURVE",
"82 644 OFFCURVE",
"82 487 CURVE SMOOTH",
"82 329 OFFCURVE",
"189 224 OFFCURVE",
"349 224 CURVE SMOOTH"
);
},
{
closed = 1;
nodes = (
"222 274 OFFCURVE",
"138 359 OFFCURVE",
"138 487 CURVE SMOOTH",
"138 614 OFFCURVE",
"222 699 OFFCURVE",
"349 699 CURVE SMOOTH",
"476 699 OFFCURVE",
"560 614 OFFCURVE",
"560 487 CURVE SMOOTH",
"560 359 OFFCURVE",
"476 274 OFFCURVE",
"349 274 CURVE SMOOTH"
);
},
{
closed = 1;
nodes = (
"310 349 LINE",
"310 443 LINE",
"352 443 LINE",
"421 349 LINE",
"483 349 LINE",
"401 458 LINE",
"434 475 OFFCURVE",
"454 506 OFFCURVE",
"454 543 CURVE SMOOTH",
"454 597 OFFCURVE",
"410 633 OFFCURVE",
"342 633 CURVE SMOOTH",
"257 633 LINE",
"257 349 LINE"
);
},
{
closed = 1;
nodes = (
"310 587 LINE",
"337 587 LINE SMOOTH",
"375 587 OFFCURVE",
"398 569 OFFCURVE",
"398 538 CURVE SMOOTH",
"398 506 OFFCURVE",
"375 489 OFFCURVE",
"336 489 CURVE SMOOTH",
"310 489 LINE"
);
}
);
width = 704;
}
);
leftKerningGroup = quote;
rightKerningGroup = quote;
unicode = 00AE;
},
{
glyphname = trademark;
lastChange = "2018-01-17 14:59:44 +0000";
layers = (
{
layerId = "293088C9-8C6F-4F1A-8530-3146F0106214";
paths = (
{
closed = 1;
nodes = (
"336 424 LINE",
"335 621 LINE",
"337 622 LINE",
"422 481 LINE",
"453 481 LINE",
"535 622 LINE",
"537 621 LINE",
"536 424 LINE",
"592 424 LINE",
"592 700 LINE",
"522 700 LINE",
"438 550 LINE",
"436 550 LINE",
"351 700 LINE",
"281 700 LINE",
"281 424 LINE"
);
},
{
closed = 1;
nodes = (
"117 651 LINE",
"117 424 LINE",
"175 424 LINE",
"175 651 LINE",
"252 651 LINE",
"252 700 LINE",
"40 700 LINE",
"40 651 LINE"
);
}
);
width = 642;
}
);
leftKerningGroup = quote;
rightKerningGroup = quote;
unicode = 2122;
},
{
glyphname = degree;
lastChange = "2018-01-17 14:57:16 +0000";
layers = (
{
layerId = "293088C9-8C6F-4F1A-8530-3146F0106214";
paths = (
{
closed = 1;
nodes = (
"214 450 OFFCURVE",
"265 502 OFFCURVE",
"265 580 CURVE SMOOTH",
"265 659 OFFCURVE",
"214 712 OFFCURVE",
"138 712 CURVE SMOOTH",
"61 712 OFFCURVE",
"10 659 OFFCURVE",
"10 580 CURVE SMOOTH",
"10 502 OFFCURVE",
"61 450 OFFCURVE",
"138 450 CURVE SMOOTH"
);
},
{
closed = 1;
nodes = (
"100 511 OFFCURVE",
"74 539 OFFCURVE",
"74 580 CURVE SMOOTH",
"74 622 OFFCURVE",
"100 650 OFFCURVE",
"138 650 CURVE SMOOTH",
"177 650 OFFCURVE",
"202 622 OFFCURVE",
"202 580 CURVE SMOOTH",
"202 539 OFFCURVE",
"177 511 OFFCURVE",
"138 511 CURVE SMOOTH"
);
}
);
width = 275;
}
);
leftKerningGroup = quote;
rightKerningGroup = quote;
unicode = 00B0;
},
{
glyphname = bar;
lastChange = "2018-01-15 20:33:10 +0000";
layers = (
{
layerId = "293088C9-8C6F-4F1A-8530-3146F0106214";
paths = (
{
closed = 1;
nodes = (
"183 -200 LINE",
"183 750 LINE",
"80 750 LINE",
"80 -200 LINE"
);
}
);
width = 263;
}
);
leftMetricsKey = l;
rightMetricsKey = l;
unicode = 007C;
},
{
glyphname = brokenbar;
lastChange = "2018-01-15 20:33:19 +0000";
layers = (
{
layerId = "293088C9-8C6F-4F1A-8530-3146F0106214";
paths = (
{
closed = 1;
nodes = (
"183 -200 LINE",
"183 165 LINE",
"80 165 LINE",
"80 -200 LINE"
);
},
{
closed = 1;
nodes = (
"183 385 LINE",
"183 750 LINE",
"80 750 LINE",
"80 385 LINE"
);
}
);
width = 263;
}
);
leftMetricsKey = l;
rightMetricsKey = l;
unicode = 00A6;
},
{
glyphname = dagger;
lastChange = "2018-01-17 13:24:45 +0000";
layers = (
{
layerId = "293088C9-8C6F-4F1A-8530-3146F0106214";
paths = (
{
closed = 1;
nodes = (
"186 486 LINE",
"186 0 LINE",
"286 0 LINE",
"286 486 LINE",
"437 486 LINE",
"437 570 LINE",
"286 570 LINE",
"286 750 LINE",
"186 750 LINE",
"186 570 LINE",
"35 570 LINE",
"35 486 LINE"
);
}
);
width = 472;
}
);
unicode = 2020;
},
{
glyphname = daggerdbl;
lastChange = "2018-01-17 13:24:48 +0000";
layers = (
{
layerId = "293088C9-8C6F-4F1A-8530-3146F0106214";
paths = (
{
closed = 1;
nodes = (
"186 180 LINE",
"186 0 LINE",
"286 0 LINE",
"286 180 LINE",
"437 180 LINE",
"437 264 LINE",
"286 264 LINE",
"286 486 LINE",
"437 486 LINE",
"437 570 LINE",
"286 570 LINE",
"286 750 LINE",
"186 750 LINE",
"186 570 LINE",
"35 570 LINE",
"35 486 LINE",
"186 486 LINE",
"186 264 LINE",
"35 264 LINE",
"35 180 LINE"
);
}
);
width = 472;
}
);
unicode = 2021;
},
{
glyphname = dieresiscomb;
lastChange = "2018-01-09 11:35:22 +0000";
layers = (
{
anchors = (
{
name = _top;
position = "{237, 550}";
},
{
name = top;
position = "{237, 781}";
}
);
layerId = "293088C9-8C6F-4F1A-8530-3146F0106214";
paths = (
{
closed = 1;
nodes = (
"182 764 LINE",
"78 764 LINE",
"78 653 LINE",
"182 653 LINE"
);
},
{
closed = 1;
nodes = (
"396 764 LINE",
"292 764 LINE",
"292 653 LINE",
"396 653 LINE"
);
}
);
width = 474;
}
);
unicode = 0308;
},
{
glyphname = dotaccentcomb;
lastChange = "2018-01-09 11:35:54 +0000";
layers = (
{
anchors = (
{
name = _top;
position = "{154, 550}";
},
{
name = top;
position = "{154, 783}";
}
);
layerId = "293088C9-8C6F-4F1A-8530-3146F0106214";
paths = (
{
closed = 1;
nodes = (
"206 764 LINE",
"102 764 LINE",
"102 653 LINE",
"206 653 LINE"
);
}
);
width = 308;
}
);
unicode = 0307;
},
{
glyphname = gravecomb;
lastChange = "2017-12-10 13:13:53 +0000";
layers = (
{
anchors = (
{
name = _top;
position = "{184, 550}";
},
{
name = top;
position = "{184, 760}";
}
);
layerId = "293088C9-8C6F-4F1A-8530-3146F0106214";
paths = (
{
closed = 1;
nodes = (
"89 787 LINE",
"44 709 LINE",
"245 623 LINE",
"282 687 LINE"
);
}
);
width = 336;
}
);
unicode = 0300;
},
{
glyphname = acutecomb;
lastChange = "2018-01-09 11:47:10 +0000";
layers = (
{
anchors = (
{
name = _top;
position = "{153, 550}";
},
{
name = top;
position = "{153, 795}";
}
);
background = {
paths = (
{
closed = 1;
nodes = (
"92 623 LINE",
"293 709 LINE",
"248 787 LINE",
"55 687 LINE"
);
}
);
};
layerId = "293088C9-8C6F-4F1A-8530-3146F0106214";
paths = (
{
closed = 1;
nodes = (
"92 623 LINE",
"293 709 LINE",
"248 787 LINE",
"55 687 LINE"
);
}
);
width = 336;
}
);
unicode = 0301;
},
{
glyphname = hungarumlautcomb;
lastChange = "2017-12-09 14:52:05 +0000";
layers = (
{
anchors = (
{
name = _top;
position = "{241, 550}";
},
{
name = top;
position = "{241, 838}";
}
);
layerId = "293088C9-8C6F-4F1A-8530-3146F0106214";
paths = (
{
closed = 1;
nodes = (
"95 621 LINE",
"269 755 LINE",
"213 826 LINE",
"50 679 LINE"
);
},
{
closed = 1;
nodes = (
"323 621 LINE",
"497 755 LINE",
"441 826 LINE",
"278 679 LINE"
);
}
);
width = 553;
}
);
unicode = 030B;
},
{
glyphname = circumflexcomb;
lastChange = "2017-12-10 13:05:43 +0000";
layers = (
{
anchors = (
{
name = _top;
position = "{208, 550}";
},
{
name = top;
position = "{208, 782}";
}
);
layerId = "293088C9-8C6F-4F1A-8530-3146F0106214";
paths = (
{
closed = 1;
nodes = (
"81 609 LINE",
"208 691 LINE",
"335 609 LINE",
"370 670 LINE",
"208 780 LINE",
"46 670 LINE"
);
}
);
width = 416;
}
);
unicode = 0302;
},
{
glyphname = caroncomb;
lastChange = "2017-12-10 13:06:01 +0000";
layers = (
{
anchors = (
{
name = _top;
position = "{208, 550}";
},
{
name = top;
position = "{208, 797}";
}
);
layerId = "293088C9-8C6F-4F1A-8530-3146F0106214";
paths = (
{
closed = 1;
nodes = (
"208 614 LINE",
"370 724 LINE",
"335 785 LINE",
"208 703 LINE",
"81 785 LINE",
"46 724 LINE"
);
}
);
width = 416;
}
);
unicode = 030C;
},
{
glyphname = brevecomb;
lastChange = "2017-12-26 15:50:28 +0000";
layers = (
{
anchors = (
{
name = _top;
position = "{216, 550}";
},
{
name = top;
position = "{216, 775}";
}
);
layerId = "293088C9-8C6F-4F1A-8530-3146F0106214";
paths = (
{
closed = 1;
nodes = (
"72 701 OFFCURVE",
"121 629 OFFCURVE",
"216 629 CURVE SMOOTH",
"311 629 OFFCURVE",
"360 701 OFFCURVE",
"382 741 CURVE",
"323 775 LINE",
"293 723 OFFCURVE",
"260 700 OFFCURVE",
"216 700 CURVE SMOOTH",
"172 700 OFFCURVE",
"139 723 OFFCURVE",
"109 775 CURVE",
"50 741 LINE"
);
}
);
width = 432;
}
);
unicode = 0306;
},
{
glyphname = ringcomb;
lastChange = "2017-12-10 11:14:07 +0000";
layers = (
{
anchors = (
{
name = _top;
position = "{129, 550}";
},
{
name = top;
position = "{129, 795}";
}
);
layerId = "293088C9-8C6F-4F1A-8530-3146F0106214";
paths = (
{
closed = 1;
nodes = (
"187 608 OFFCURVE",
"225 646 OFFCURVE",
"225 702 CURVE SMOOTH",
"225 758 OFFCURVE",
"187 795 OFFCURVE",
"129 795 CURVE SMOOTH",
"71 795 OFFCURVE",
"32 758 OFFCURVE",
"32 702 CURVE SMOOTH",
"32 646 OFFCURVE",
"71 608 OFFCURVE",
"129 608 CURVE SMOOTH"
);
},
{
closed = 1;
nodes = (
"103 661 OFFCURVE",
"86 677 OFFCURVE",
"86 702 CURVE SMOOTH",
"86 726 OFFCURVE",
"103 742 OFFCURVE",
"129 742 CURVE SMOOTH",
"154 742 OFFCURVE",
"171 726 OFFCURVE",
"171 702 CURVE SMOOTH",
"171 677 OFFCURVE",
"154 661 OFFCURVE",
"129 661 CURVE SMOOTH"
);
}
);
width = 257;
}
);
unicode = 030A;
},
{
glyphname = tildecomb;
lastChange = "2017-12-10 13:07:03 +0000";
layers = (
{
anchors = (
{
name = _top;
position = "{209, 550}";
},
{
name = top;
position = "{209, 765}";
}
);
layerId = "293088C9-8C6F-4F1A-8530-3146F0106214";
paths = (
{
closed = 1;
nodes = (
"116 670 OFFCURVE",
"130 692 OFFCURVE",
"155 692 CURVE SMOOTH",
"186 692 OFFCURVE",
"218 644 OFFCURVE",
"270 644 CURVE SMOOTH",
"316 644 OFFCURVE",
"344 680 OFFCURVE",
"367 727 CURVE",
"309 761 LINE",
"301 739 OFFCURVE",
"287 717 OFFCURVE",
"262 717 CURVE SMOOTH",
"231 717 OFFCURVE",
"199 765 OFFCURVE",
"147 765 CURVE SMOOTH",
"101 765 OFFCURVE",
"73 730 OFFCURVE",
"50 682 CURVE",
"108 648 LINE"
);
}
);
width = 417;
}
);
unicode = 0303;
},
{
glyphname = macroncomb;
lastChange = "2018-01-09 11:45:32 +0000";
layers = (
{
anchors = (
{
name = _top;
position = "{212, 550}";
},
{
name = top;
position = "{212, 733}";
}
);
layerId = "293088C9-8C6F-4F1A-8530-3146F0106214";
paths = (
{
closed = 1;
nodes = (
"55 659 LINE",
"369 659 LINE",
"369 732 LINE",
"55 732 LINE"
);
}
);
width = 424;
}
);
unicode = 0304;
},
{
glyphname = commaturnedabovecomb;
lastChange = "2017-12-09 14:57:14 +0000";
layers = (
{
anchors = (
{
name = _top;
position = "{98, 550}";
},
{
name = top;
position = "{118, 775}";
}
);
layerId = "293088C9-8C6F-4F1A-8530-3146F0106214";
paths = (
{
closed = 1;
nodes = (
"136 618 LINE",
"196 785 LINE",
"92 785 LINE",
"60 618 LINE"
);
}
);
width = 236;
}
);
unicode = 0312;
},
{
glyphname = commaaccentcomb;
lastChange = "2017-12-09 14:40:48 +0000";
layers = (
{
anchors = (
{
name = _bottom;
position = "{118, 0}";
},
{
name = bottom;
position = "{118, -242}";
}
);
layerId = "293088C9-8C6F-4F1A-8530-3146F0106214";
paths = (
{
closed = 1;
nodes = (
"111 -242 LINE",
"171 -75 LINE",
"67 -75 LINE",
"35 -242 LINE"
);
}
);
width = 256;
}
);
unicode = 0326;
},
{
glyphname = cedillacomb;
lastChange = "2018-01-20 11:19:51 +0000";
layers = (
{
anchors = (
{
name = _bottom;
position = "{344, 0}";
},
{
name = bottom;
position = "{344, -215}";
}
);
layerId = "293088C9-8C6F-4F1A-8530-3146F0106214";
paths = (
{
closed = 1;
nodes = (
"307 -192 LINE",
"378 -163 OFFCURVE",
"419 -125 OFFCURVE",
"419 -81 CURVE",
"419 -45 OFFCURVE",
"398 -8 OFFCURVE",
"366 12 CURVE",
"317 12 LINE",
"315 0 LINE",
"323 -15 OFFCURVE",
"335 -32 OFFCURVE",
"335 -53 CURVE SMOOTH",
"335 -89 OFFCURVE",
"310 -104 OFFCURVE",
"268 -124 CURVE"
);
}
);
width = 600;
}
);
unicode = 0327;
},
{
glyphname = ogonekcomb;
lastChange = "2018-01-20 11:57:11 +0000";
layers = (
{
anchors = (
{
name = _ogonek;
position = "{179, 0}";
}
);
layerId = "293088C9-8C6F-4F1A-8530-3146F0106214";
paths = (
{
closed = 1;
nodes = (
"169 -119 OFFCURVE",
"145 -106 OFFCURVE",
"145 -76 CURVE SMOOTH",
"145 -46 OFFCURVE",
"173 -16 OFFCURVE",
"216 0 CURVE",
"216 12 LINE",
"141 13 LINE",
"124 1 LINE",
"86 -25 OFFCURVE",
"71 -55 OFFCURVE",
"71 -92 CURVE",
"71 -150 OFFCURVE",
"120 -184 OFFCURVE",
"168 -184 CURVE SMOOTH",
"194 -184 OFFCURVE",
"215 -179 OFFCURVE",
"239 -166 CURVE",
"206 -108 LINE"
);
}
);
width = 340;
}
);
unicode = 0328;
},
{
glyphname = strokeshortcomb;
lastChange = "2017-12-10 11:52:56 +0000";
layers = (
{
anchors = (
{
name = _center;
position = "{221, 353}";
}
);
layerId = "293088C9-8C6F-4F1A-8530-3146F0106214";
paths = (
{
closed = 1;
nodes = (
"50 319 LINE",
"391 319 LINE",
"391 386 LINE",
"50 386 LINE"
);
}
);
width = 441;
}
);
unicode = 0335;
},
{
glyphname = slashshortcomb;
lastChange = "2017-12-10 13:08:12 +0000";
layers = (
{
anchors = (
{
name = _center;
position = "{215, 348}";
}
);
layerId = "293088C9-8C6F-4F1A-8530-3146F0106214";
paths = (
{
closed = 1;
nodes = (
"84 234 LINE",
"379 404 LINE",
"346 462 LINE",
"50 292 LINE"
);
}
);
width = 429;
}
);
unicode = 0337;
},
{
glyphname = slashlongcomb;
lastChange = "2017-12-10 13:08:38 +0000";
layers = (
{
anchors = (
{
name = _center;
position = "{242, 268}";
}
);
layerId = "293088C9-8C6F-4F1A-8530-3146F0106214";
paths = (
{
closed = 1;
nodes = (
"50 -48 LINE",
"493 550 LINE",
"434 584 LINE",
"-9 -14 LINE"
);
}
);
width = 489;
}
);
unicode = 0338;
},
{
glyphname = dieresiscomb.case;
lastChange = "2017-12-26 15:04:25 +0000";
layers = (
{
anchors = (
{
name = _top;
position = "{227, 700}";
},
{
name = top;
position = "{227, 913}";
}
);
layerId = "293088C9-8C6F-4F1A-8530-3146F0106214";
paths = (
{
closed = 1;
nodes = (
"173 883 LINE",
"61 883 LINE",
"61 770 LINE",
"173 770 LINE"
);
},
{
closed = 1;
nodes = (
"393 883 LINE",
"281 883 LINE",
"281 770 LINE",
"393 770 LINE"
);
}
);
width = 474;
}
);
},
{
glyphname = dotaccentcomb.case;
lastChange = "2017-12-26 15:04:28 +0000";
layers = (
{
anchors = (
{
name = _top;
position = "{117, 700}";
},
{
name = top;
position = "{117, 895}";
}
);
layerId = "293088C9-8C6F-4F1A-8530-3146F0106214";
paths = (
{
closed = 1;
nodes = (
"173 883 LINE",
"61 883 LINE",
"61 770 LINE",
"173 770 LINE"
);
}
);
width = 234;
}
);
},
{
glyphname = gravecomb.case;
lastChange = "2017-12-10 13:54:47 +0000";
layers = (
{
anchors = (
{
name = _top;
position = "{236, 700}";
},
{
name = top;
position = "{236, 910}";
}
);
layerId = "293088C9-8C6F-4F1A-8530-3146F0106214";
paths = (
{
closed = 1;
nodes = (
"98 932 LINE",
"53 854 LINE",
"284 756 LINE",
"321 820 LINE"
);
}
);
width = 373;
}
);
},
{
glyphname = acutecomb.case;
lastChange = "2017-12-10 13:54:23 +0000";
layers = (
{
anchors = (
{
name = _top;
position = "{137, 700}";
},
{
name = top;
position = "{137, 945}";
}
);
layerId = "293088C9-8C6F-4F1A-8530-3146F0106214";
paths = (
{
closed = 1;
nodes = (
"89 756 LINE",
"320 854 LINE",
"275 932 LINE",
"52 820 LINE"
);
}
);
width = 373;
}
);
},
{
glyphname = circumflexcomb.case;
lastChange = "2017-12-10 13:55:03 +0000";
layers = (
{
anchors = (
{
name = _top;
position = "{208, 700}";
},
{
name = top;
position = "{208, 932}";
}
);
layerId = "293088C9-8C6F-4F1A-8530-3146F0106214";
paths = (
{
closed = 1;
nodes = (
"76 761 LINE",
"208 834 LINE",
"340 761 LINE",
"376 823 LINE",
"208 919 LINE",
"40 823 LINE"
);
}
);
width = 416;
}
);
},
{
glyphname = caroncomb.case;
lastChange = "2017-12-10 13:09:43 +0000";
layers = (
{
anchors = (
{
name = _top;
position = "{208, 700}";
},
{
name = top;
position = "{208, 919}";
}
);
layerId = "293088C9-8C6F-4F1A-8530-3146F0106214";
paths = (
{
closed = 1;
nodes = (
"208 758 LINE",
"376 854 LINE",
"340 916 LINE",
"208 843 LINE",
"76 916 LINE",
"40 854 LINE"
);
}
);
width = 416;
}
);
},
{
glyphname = brevecomb.case;
lastChange = "2017-12-10 13:55:21 +0000";
layers = (
{
anchors = (
{
name = _top;
position = "{217, 700}";
},
{
name = top;
position = "{217, 915}";
}
);
layerId = "293088C9-8C6F-4F1A-8530-3146F0106214";
paths = (
{
closed = 1;
nodes = (
"72 825 OFFCURVE",
"125 767 OFFCURVE",
"217 767 CURVE SMOOTH",
"309 767 OFFCURVE",
"362 825 OFFCURVE",
"384 865 CURVE",
"325 899 LINE",
"305 865 OFFCURVE",
"263 836 OFFCURVE",
"217 836 CURVE",
"171 836 OFFCURVE",
"129 865 OFFCURVE",
"109 899 CURVE",
"50 865 LINE"
);
}
);
width = 434;
}
);
},
{
glyphname = ringcomb.case;
lastChange = "2017-12-10 11:14:56 +0000";
layers = (
{
anchors = (
{
name = _top;
position = "{129, 700}";
},
{
name = top;
position = "{129, 923}";
}
);
layerId = "293088C9-8C6F-4F1A-8530-3146F0106214";
paths = (
{
closed = 1;
nodes = (
"193 705 OFFCURVE",
"233 743 OFFCURVE",
"233 803 CURVE SMOOTH",
"233 863 OFFCURVE",
"193 900 OFFCURVE",
"129 900 CURVE SMOOTH",
"64 900 OFFCURVE",
"24 863 OFFCURVE",
"24 803 CURVE SMOOTH",
"24 743 OFFCURVE",
"64 705 OFFCURVE",
"129 705 CURVE SMOOTH"
);
},
{
closed = 1;
nodes = (
"96 758 OFFCURVE",
"77 775 OFFCURVE",
"77 803 CURVE SMOOTH",
"77 831 OFFCURVE",
"96 847 OFFCURVE",
"129 847 CURVE SMOOTH",
"161 847 OFFCURVE",
"180 831 OFFCURVE",
"180 803 CURVE SMOOTH",
"180 775 OFFCURVE",
"161 758 OFFCURVE",
"129 758 CURVE SMOOTH"
);
}
);
width = 257;
}
);
},
{
glyphname = tildecomb.case;
lastChange = "2017-12-10 13:57:32 +0000";
layers = (
{
anchors = (
{
name = _top;
position = "{203, 700}";
},
{
name = top;
position = "{203, 885}";
}
);
layerId = "293088C9-8C6F-4F1A-8530-3146F0106214";
paths = (
{
closed = 1;
nodes = (
"116 798 OFFCURVE",
"130 820 OFFCURVE",
"155 820 CURVE SMOOTH",
"186 820 OFFCURVE",
"218 772 OFFCURVE",
"270 772 CURVE SMOOTH",
"316 772 OFFCURVE",
"344 808 OFFCURVE",
"367 855 CURVE",
"309 889 LINE",
"301 867 OFFCURVE",
"287 845 OFFCURVE",
"262 845 CURVE SMOOTH",
"231 845 OFFCURVE",
"199 893 OFFCURVE",
"147 893 CURVE SMOOTH",
"101 893 OFFCURVE",
"73 858 OFFCURVE",
"50 810 CURVE",
"108 776 LINE"
);
}
);
width = 396;
}
);
},
{
glyphname = macroncomb.case;
lastChange = "2017-12-09 14:28:29 +0000";
layers = (
{
anchors = (
{
name = _top;
position = "{212, 700}";
},
{
name = top;
position = "{212, 872}";
}
);
layerId = "293088C9-8C6F-4F1A-8530-3146F0106214";
paths = (
{
closed = 1;
nodes = (
"50 792 LINE",
"374 792 LINE",
"374 872 LINE",
"50 872 LINE"
);
}
);
width = 424;
}
);
},
{
glyphname = commaturnedabovecomb.case;
lastChange = "2017-12-09 15:12:27 +0000";
layers = (
{
anchors = (
{
name = _top;
position = "{98, 700}";
},
{
name = top;
position = "{113, 905}";
}
);
layerId = "293088C9-8C6F-4F1A-8530-3146F0106214";
paths = (
{
closed = 1;
nodes = (
"134 758 LINE",
"184 905 LINE",
"84 905 LINE",
"62 758 LINE"
);
}
);
width = 236;
}
);
},
{
glyphname = commaaccentcomb.case;
lastChange = "2017-12-09 14:46:08 +0000";
layers = (
{
anchors = (
{
name = _bottom;
position = "{123, 0}";
},
{
name = bottom;
position = "{123, -222}";
}
);
layerId = "293088C9-8C6F-4F1A-8530-3146F0106214";
paths = (
{
closed = 1;
nodes = (
"124 -222 LINE",
"174 -75 LINE",
"74 -75 LINE",
"52 -222 LINE"
);
}
);
width = 256;
}
);
},
{
glyphname = cedillacomb.case;
lastChange = "2017-12-31 15:54:16 +0000";
layers = (
{
anchors = (
{
name = _bottom;
position = "{344, 0}";
},
{
name = bottom;
position = "{344, -215}";
}
);
layerId = "293088C9-8C6F-4F1A-8530-3146F0106214";
paths = (
{
closed = 1;
nodes = (
"303 -195 LINE",
"377 -164 OFFCURVE",
"409 -111 OFFCURVE",
"409 -62 CURVE",
"409 -33 OFFCURVE",
"401 -8 OFFCURVE",
"391 11 CURVE",
"316 12 LINE",
"314 0 LINE",
"323 -16 OFFCURVE",
"329 -34 OFFCURVE",
"329 -56 CURVE SMOOTH",
"329 -92 OFFCURVE",
"305 -112 OFFCURVE",
"268 -134 CURVE"
);
}
);
width = 600;
}
);
},
{
glyphname = ogonekcomb.case;
lastChange = "2018-01-20 11:22:12 +0000";
layers = (
{
anchors = (
{
name = _ogonek;
position = "{173, 0}";
}
);
layerId = "293088C9-8C6F-4F1A-8530-3146F0106214";
paths = (
{
closed = 1;
nodes = (
"169 -119 OFFCURVE",
"145 -106 OFFCURVE",
"145 -76 CURVE SMOOTH",
"145 -46 OFFCURVE",
"173 -16 OFFCURVE",
"216 0 CURVE",
"216 12 LINE",
"151 12 LINE",
"134 0 LINE",
"86 -25 OFFCURVE",
"71 -55 OFFCURVE",
"71 -92 CURVE",
"71 -150 OFFCURVE",
"120 -184 OFFCURVE",
"168 -184 CURVE SMOOTH",
"194 -184 OFFCURVE",
"215 -179 OFFCURVE",
"239 -166 CURVE",
"206 -108 LINE"
);
}
);
width = 340;
}
);
},
{
glyphname = strokeshortcomb.case;
lastChange = "2017-12-10 12:00:03 +0000";
layers = (
{
anchors = (
{
name = _center;
position = "{271, 354}";
}
);
layerId = "293088C9-8C6F-4F1A-8530-3146F0106214";
paths = (
{
closed = 1;
nodes = (
"50 319 LINE",
"491 319 LINE",
"491 389 LINE",
"50 389 LINE"
);
}
);
width = 541;
}
);
},
{
glyphname = strokelongcomb.case;
lastChange = "2018-01-10 10:35:57 +0000";
layers = (
{
anchors = (
{
name = _center;
position = "{421, 364}";
}
);
layerId = "293088C9-8C6F-4F1A-8530-3146F0106214";
paths = (
{
closed = 1;
nodes = (
"51 326 LINE",
"791 326 LINE",
"791 401 LINE",
"51 401 LINE"
);
}
);
width = 841;
}
);
},
{
glyphname = slashshortcomb.case;
lastChange = "2017-12-10 13:23:18 +0000";
layers = (
{
anchors = (
{
name = _center;
position = "{232, 357}";
}
);
layerId = "293088C9-8C6F-4F1A-8530-3146F0106214";
paths = (
{
closed = 1;
nodes = (
"84 233 LINE",
"413 421 LINE",
"378 482 LINE",
"49 294 LINE"
);
}
);
width = 463;
}
);
},
